<svg width="1961" height="1978" viewBox="0 0 1961 1978" fill="none" xmlns="http://www.w3.org/2000/svg">
<g clip-path="url(#clip0_543_82013)">
<path d="M1107.8 1363L1110.2 1371L1107.4 1383.4L1111 1395.4L1107.4 1405L1109 1413.8L1062.2 1413.4L1059 1495.4L1073.4 1516.2L1087.8 1532.2L1046.2 1542.6L992.2 1539L977 1527L886.2 1527.8L883 1529.8L869.8 1518.2L855.4 1517.4L841.8 1521.8L831 1526.6L829 1510.6L832.6 1487.8L840.6 1464.2L841.8 1453.4L849.4 1430.2L855 1419.8L868.2 1403L875.8 1391.4L878.2 1372.6L877 1357.8L870.6 1348.6L864.6 1333L859.4 1317.8L860.6 1312.2L867.4 1302.2L861 1277.4L856.2 1260.2L845 1243.8L847.4 1239L856.6 1235.4L863.4 1235.8L871.4 1233L938.2 1233.4L943.4 1252.2L949.8 1267.8L955 1276.2L963.4 1289.4L978.6 1287.4L985.8 1283.8L998.2 1287.4L1001.8 1281L1007.8 1266.2L1021.8 1265L1023 1260.6H1034.6L1032.6 1269.8L1059.8 1269.4L1060.2 1285.8L1064.6 1295.4L1061 1311L1062.6 1327L1069.8 1336.6L1068.2 1367L1073.8 1364.6L1083.4 1365.4L1097.4 1361.4L1107.8 1363Z" fill="#ECECEC" stroke="black" stroke-width="0.8" stroke-linecap="round" stroke-linejoin="round"/>
<path d="M844.203 1230.99L838.203 1211.79L847.403 1200.59L854.203 1196.19L862.603 1204.99L854.603 1210.59L850.603 1216.99L849.803 1228.19L844.203 1230.99Z" fill="#ECECEC" stroke="black" stroke-width="0.8" stroke-linecap="round" stroke-linejoin="round"/>
<path d="M1807.8 421.8L1813 442.2H1801.8V459L1806.2 462.6L1796.6 467.8L1797.4 478.2L1792.2 488.6V499L1788.2 504.6L1720.6 491.8L1709.8 465.4L1708.6 459.8L1712.2 458.2L1713.8 465.4L1730.6 461.4L1749 462.2L1762.6 463L1775.8 445.4L1790.6 429L1802.6 413L1807.8 421.8Z" fill="#ECECEC" stroke="black" stroke-width="0.8" stroke-linecap="round" stroke-linejoin="round"/>
<path d="M1546.2 86.9969L1539 87.7969L1527.8 72.9969L1527 68.9969H1517.8L1510.2 62.1969L1506.2 62.5969L1496.6 55.3969L1479.8 48.9969L1479.4 36.5969L1474.2 27.7969L1502.2 23.7969L1507.8 30.1969L1516.6 34.5969L1513.8 40.9969L1526.6 49.7969L1522.2 58.1969L1532.6 64.9969L1542.6 68.9969L1546.2 86.9969Z" fill="#ECECEC" stroke="black" stroke-width="0.8" stroke-linecap="round" stroke-linejoin="round"/>
<path d="M1539 87.8031L1523.8 84.2031L1511 72.6031L1506.2 62.6031L1510.2 62.2031L1517.8 69.0031H1527L1527.8 73.0031L1539 87.8031Z" fill="#ECECEC" stroke="black" stroke-width="0.8" stroke-linecap="round" stroke-linejoin="round"/>
<path d="M1564.2 19.8031L1574.2 9.40314L1588.2 22.6031L1602.6 41.0031L1612.6 42.2031L1620.2 49.0031L1603.4 51.0031L1603.8 71.0031L1602.2 79.8031L1595.4 85.8031L1598.6 98.2031L1593.4 99.8032L1577.8 86.2031L1582.6 73.8031L1575 66.2031L1567.4 68.2031L1546.2 87.0031L1542.6 69.0031L1532.6 65.0031L1522.2 58.2031L1526.6 49.8031L1513.8 41.0031L1516.6 34.6031L1507.8 30.2031L1502.2 23.8031L1506.6 19.4031L1523.4 27.0031L1535 28.2031L1537.4 25.4031L1524.2 11.4031L1529 8.20312L1535 9.00311L1552.2 24.2031L1561.8 26.2031L1564.2 19.8031Z" fill="#ECECEC" stroke="black" stroke-width="0.8" stroke-linecap="round" stroke-linejoin="round"/>
<path d="M1242.6 1196.59L1240.2 1196.99V1195.79L1232.2 1171.39L1232.16 1171.15L1231.8 1166.99L1226.2 1155.39L1240.2 1157.39L1247 1142.59L1259.4 1144.19L1260.6 1154.19L1265.4 1160.19V1168.59L1259.8 1173.79L1250.6 1187.39L1242.6 1196.59Z" fill="#ECECEC" stroke="black" stroke-width="0.8" stroke-linecap="round" stroke-linejoin="round"/>
<path d="M649.797 782.988L648.997 791.388L654.197 806.588L649.797 816.988L652.197 823.788L640.997 839.788L634.197 847.788L629.797 863.788L630.597 880.188L629.397 921.388L610.597 924.588L604.997 906.988L606.197 847.788L601.397 842.588L600.597 829.788L592.597 820.988L585.797 813.388L588.597 799.788L596.597 796.988L600.997 785.788L612.197 783.388L616.997 775.788L624.597 768.188H632.597L649.797 782.988Z" fill="#ECECEC" stroke="black" stroke-width="0.8" stroke-linecap="round" stroke-linejoin="round"/>
<path d="M577 698.988L575 711.388L578.2 722.988L590.6 739.788L591.4 752.188L617.4 758.188L617 775.788L612.2 783.388L601 785.788L596.6 796.988L588.6 799.788L569 799.388L558.6 797.388L551.4 801.388L541.4 799.388L502.2 800.588L501.4 815.388L504.6 834.588L489 828.188L478.6 828.988L470.6 835.388L460.6 830.188L456.6 821.388L446.6 815.788L445 800.988L451.4 790.188L450.6 781.388L468.6 760.188L472.2 742.588L478.2 736.188L489 739.788L498.6 734.588L501.8 727.788L519 716.588L523.4 708.588L544.6 697.788L557 694.188L562.6 698.988H577Z" fill="#ECECEC" stroke="black" stroke-width="0.8" stroke-linecap="round" stroke-linejoin="round"/>
<path d="M1133.4 1537.81L1141 1558.21L1145.4 1563.01L1151.8 1577.81L1176.2 1605.81L1185.4 1608.61L1185 1617.81L1191 1634.21L1208.2 1638.21L1221.8 1649.81L1189.4 1668.61L1168.6 1687.81L1160.6 1705.01L1153.4 1714.61L1141.4 1716.61L1136.6 1729.01L1134.2 1737.01L1119.8 1742.61L1101.8 1741.41L1091.8 1734.21L1082.6 1731.41L1071.4 1737.01L1065.4 1749.41L1054.6 1757.01L1043.4 1768.61L1027.4 1771.41L1023 1762.21L1025.4 1746.61L1013.4 1722.21L1007.8 1718.21L1010.2 1643.41L1032.2 1642.61L1035.4 1551.01L1052.2 1550.21L1087 1541.01L1095 1551.81L1109.8 1541.81H1116.6L1129.4 1535.81L1133.4 1537.81Z" fill="#ECECEC" stroke="black" stroke-width="0.8" stroke-linecap="round" stroke-linejoin="round"/>
<path d="M1108.2 860.988L1123.8 870.988L1136.2 881.388L1136.6 889.788L1152.2 902.988L1161.8 914.188L1167.4 929.388L1184.6 939.788L1188.2 947.788L1181 950.588L1166.2 950.188L1149.4 947.388L1141 949.388L1137.4 955.788L1130.2 956.588L1121.4 950.988L1096.2 963.788L1085.8 961.388L1082.6 963.388L1076.2 978.988L1059 973.788L1042.6 971.388L1028.2 961.788L1009.4 952.988L997.397 961.388L988.597 974.188L986.597 992.188L972.197 990.988L956.597 986.588L943.397 1000.19L931.397 1024.19L928.997 1016.59L927.797 1004.99L917.397 996.588L908.997 983.388L906.997 974.188L896.197 960.588L898.197 952.988L895.797 942.188L897.397 922.188L902.997 917.788L914.197 891.788L932.597 889.788L936.597 882.988L940.597 883.788L946.197 889.388L974.597 879.788L984.197 869.788L995.797 860.588L993.397 851.788L999.797 849.388L1021.8 850.988L1042.6 838.988L1058.6 810.988L1069.8 800.588L1084.2 796.188L1087 806.988L1100.2 822.988V833.788L1097 844.188L1098.6 852.188L1106.2 859.788L1108.2 860.988Z" fill="#ECECEC" stroke="black" stroke-width="0.8" stroke-linecap="round" stroke-linejoin="round"/>
<path d="M446.597 815.788L456.597 821.388L460.597 830.188L470.597 835.388L478.597 828.988L488.997 828.188L504.597 834.588L510.597 871.388L500.997 892.588L494.997 921.788L504.597 943.788L503.797 954.188H493.397L477.797 949.388H462.997L436.197 954.188L420.597 961.388L398.197 970.988L393.797 970.188L395.397 948.988L397.797 945.788L396.997 935.788L387.397 924.988L380.197 923.388L373.797 916.188L378.597 904.588L376.597 892.188L377.397 884.988H380.997L382.597 873.788L380.997 868.588L382.997 864.988L391.397 862.188L385.797 841.388L380.597 830.988L382.597 822.188L386.997 820.188L390.197 817.788L396.197 821.788H413.797L417.797 814.588L421.797 814.988L428.197 812.188L431.797 822.988L436.997 819.788L446.597 815.788Z" fill="#ECECEC" stroke="black" stroke-width="0.8" stroke-linecap="round" stroke-linejoin="round"/>
<path d="M914.202 891.788L903.001 917.788L897.401 922.188L895.801 942.188L898.202 952.988L896.202 960.588L907.001 974.188L909.001 983.388L917.401 996.588L927.801 1004.99L929.001 1016.59L931.401 1024.19L929.801 1037.79L911.801 1031.79L893.401 1024.99L865.001 1024.19L862.202 1022.59L848.602 1025.79L835.001 1022.59L824.202 1024.19L787.001 1023.79L790.602 1003.39L781.401 986.188L771.001 982.188L766.602 970.588L760.602 966.988L761.001 959.788L766.602 941.388L777.401 916.588H783.801L797.401 901.388L805.801 900.988L818.602 911.788L834.202 902.988L836.202 892.188L841.401 881.788L844.602 868.988L856.602 858.588L861.001 840.588L865.801 834.588L869.001 821.388L874.602 804.988L893.401 784.988L894.602 776.588L897.001 771.788L887.801 761.788L888.602 753.388L894.602 752.188L903.801 768.588L905.801 785.388L905.001 802.588L917.801 825.788H905.001L898.602 827.388L888.202 824.988L883.401 836.988L897.001 852.188L907.001 856.588L910.202 866.988L917.401 884.588L914.202 891.788Z" fill="#ECECEC" stroke="black" stroke-width="0.8" stroke-linecap="round" stroke-linejoin="round"/>
<path d="M1188.2 947.806L1202.2 969.006L1212.6 972.206L1218.6 967.806L1229 969.406L1241.4 964.206L1247 975.006L1267.4 992.206L1266.2 1022.21L1275.4 1025.81L1267.8 1034.61L1259.4 1041.81L1250.6 1055.01L1245.8 1067.01L1244.6 1087.41L1239.4 1097.41L1239 1116.61L1232.6 1123.81L1231.8 1139.01L1228.6 1141.01L1226.2 1155.41L1231.8 1167.01L1232.2 1171.01L1227.4 1212.21L1233.4 1226.61L1229.4 1237.41L1236.6 1255.81L1250.2 1269.81L1253 1283.81L1259.4 1290.61L1258.2 1295.01L1254.6 1293.81L1223.8 1298.21L1217.8 1301.41L1211 1317.81L1215.8 1329.01L1211.4 1359.41L1207.8 1385.01L1213.8 1389.81L1229.4 1399.81L1235.8 1395.01L1236.6 1422.61H1219.4L1210.6 1408.61L1202.6 1397.41L1185.4 1393.81L1180.6 1380.61L1166.6 1388.61L1149 1385.01L1141.4 1373.41L1127.4 1371.01L1116.6 1371.41L1115.4 1363.41L1107.8 1363.01L1097.4 1361.41L1083.4 1365.41L1073.8 1364.61L1068.2 1367.01L1069.8 1336.61L1062.6 1327.01L1061 1311.01L1064.6 1295.41L1060.2 1285.81L1059.8 1269.41L1032.6 1269.81L1034.6 1260.61H1023L1021.8 1265.01L1007.8 1266.21L1001.8 1281.01L998.203 1287.41L985.803 1283.81L978.603 1287.41L963.403 1289.41L955.003 1276.21L949.803 1267.81L943.403 1252.21L938.203 1233.41L871.403 1233.01L863.403 1235.81L856.603 1235.41L847.403 1239.01L844.203 1231.01L849.803 1228.21L850.603 1217.01L854.603 1210.61L862.603 1205.01L868.603 1207.81L876.603 1197.81L889.003 1198.21L890.203 1205.41L898.603 1209.81L912.203 1193.81L925.403 1181.41L931.003 1173.01L930.603 1151.81L940.603 1127.01L951.003 1113.81L965.803 1101.41L968.603 1093.41L969.003 1083.81L972.603 1075.01L971.403 1060.21L974.203 1037.41L978.603 1021.41L985.403 1007.81L986.603 992.206L988.603 974.206L997.403 961.406L1009.4 953.006L1028.2 961.806L1042.6 971.406L1059 973.806L1076.2 979.006L1082.6 963.406L1085.8 961.406L1096.2 963.806L1121.4 951.006L1130.2 956.606L1137.4 955.806L1141 949.406L1149.4 947.406L1166.2 950.206L1181 950.606L1188.2 947.806Z" fill="#ECECEC" stroke="black" stroke-width="0.8" stroke-linecap="round" stroke-linejoin="round"/>
<path d="M986.597 992.194L985.397 1007.79L978.597 1021.39L974.197 1037.39L971.397 1060.19L972.597 1074.99L968.997 1083.79L968.597 1093.39L965.797 1101.39L950.997 1113.79L940.597 1126.99L930.597 1151.79L930.997 1172.99L925.397 1181.39L912.197 1193.79L898.597 1209.79L890.197 1205.39L888.997 1198.19L876.597 1197.79L868.597 1207.79L862.597 1204.99L854.197 1196.19L847.397 1200.59L838.197 1211.79L819.797 1184.59L836.997 1170.19L828.597 1153.39L836.597 1146.99L851.797 1143.79L853.397 1132.19L865.797 1144.59L885.797 1145.79L892.597 1133.79L895.397 1116.59L892.997 1096.59L882.197 1081.39L892.197 1051.39L886.597 1046.59L869.797 1048.59L863.397 1035.39L864.997 1024.19L893.397 1024.99L911.797 1031.79L929.797 1037.79L931.397 1024.19L943.397 1000.19L956.597 986.594L972.197 990.994L986.597 992.194Z" fill="#ECECEC" stroke="black" stroke-width="0.8" stroke-linecap="round" stroke-linejoin="round"/>
<path d="M1541 787.788L1533.4 801.788L1528.2 796.988L1523 798.988L1510.2 798.588L1509.4 790.588L1507.4 783.388L1514.6 771.388L1522.2 760.188L1531.8 762.588L1538.6 756.188L1544.2 764.188L1543.8 774.588L1531.4 780.988L1541 787.788Z" fill="#ECECEC" stroke="black" stroke-width="0.8" stroke-linecap="round" stroke-linejoin="round"/>
<path d="M746.997 133.4L742.997 146.6L746.997 171L742.597 192.2L729.797 206.6L732.197 225.8L750.197 241.4L750.597 247.4L764.197 257.8L774.597 303.8L782.197 326.6L783.797 338.6L780.597 359.4L782.197 371.4L779.797 385.4L782.197 401.4L773.397 412.2L786.997 431L787.797 441.8L796.197 456.2L806.197 451.4L824.197 463.4L834.197 479.4L758.997 528.6L694.997 579L663.797 590.2L638.997 593L638.597 576.6L628.197 572.2L614.197 565L608.997 553L534.197 497L459.797 441L377.797 378.6L378.197 373.8L378.597 372.2L378.997 341.8L414.597 322.6L436.197 318.6L454.197 311.8L462.597 299L488.197 289L489.397 269.8L501.797 267.4L511.797 258.2L540.197 253.8L544.197 243.8L538.597 238.2L530.997 211L529.797 195.4L522.197 179L542.597 165L565.797 160.6L578.997 150.2L599.397 142.2L635.397 137.8L670.597 135.8L681.397 139.4L700.997 129.4L723.797 129L732.597 135L746.997 133.4Z" fill="#ECECEC" stroke="black" stroke-width="0.8" stroke-linecap="round" stroke-linejoin="round"/>
<path d="M1311.4 280.6L1327 318.2L1329.8 324.6L1324.6 335L1321.8 354.2L1317 367.8L1312.2 372.2L1304.2 363.8L1293.4 352.6L1274.6 315.8L1272.6 318.2L1283.8 345L1299.4 371L1319 411L1328.2 425L1336.2 439.4L1357.8 467.8L1353.8 472.2L1355.4 489L1382.6 512.2L1387 517.4H1298.6H1212.6H1123.4L1119.4 422.6L1114.2 331.4L1106.2 310.6L1110.6 295L1106.6 283.8L1113.4 271.4L1142.2 271L1163.8 277.8L1185.8 285.4L1196.2 289.4L1212.2 281.4L1220.6 274.2L1239.4 271.8L1255 275L1262.2 287.8L1266.6 279.4L1284.2 285.4L1301.4 287L1311.4 280.6Z" fill="#ECECEC" stroke="black" stroke-width="0.8" stroke-linecap="round" stroke-linejoin="round"/>
<path d="M1538.6 756.188L1531.8 762.588L1522.2 760.188L1514.2 751.788L1504.2 736.988L1493.8 728.588L1487.8 719.788L1467.8 709.388L1452.2 708.988L1446.6 703.788L1433.8 709.788L1419.4 698.188L1413.4 717.388L1387 711.788L1384.2 701.788L1392.2 663.788L1393.4 646.988L1400.2 638.988L1416.2 634.588L1427 620.188L1441.4 649.788L1449 673.388L1461.8 685.788L1493.8 710.188L1507 724.588L1519.8 739.788L1527 748.588L1538.6 756.188Z" fill="#ECECEC" stroke="black" stroke-width="0.8" stroke-linecap="round" stroke-linejoin="round"/>
<path d="M1452.2 708.988L1467.8 709.388L1487.8 719.788L1493.8 728.588L1504.2 736.988L1514.2 751.788L1522.2 760.188L1514.6 771.388L1507.4 783.388L1509.4 790.588L1510.2 798.588L1523 798.988L1528.2 796.988L1533.4 801.788L1528.6 810.588L1537.4 824.988L1546.2 837.388L1555 846.588L1629.8 876.988L1649 876.588L1586.6 953.788L1557.4 954.988L1537.4 972.988L1523 973.388L1517 981.788H1501.4L1492.2 972.988L1471.4 983.788L1465 994.588L1449.8 992.188L1444.6 989.388L1439.4 990.188L1432.2 989.788L1403.4 968.188H1387.4L1379.8 959.788L1379.4 945.388L1367.8 940.988L1353.8 912.988L1343.4 906.988L1339.4 896.588L1327.4 884.188L1313.4 882.188L1321 867.788L1333 866.988L1336.2 859.388L1335.4 839.388V836.188L1341.4 809.388L1351.8 802.188L1353.8 791.788L1363 771.788L1376.2 759.388L1384.2 733.788L1387 711.788L1413.4 717.388L1419.4 698.188L1433.8 709.788L1446.6 703.788L1452.2 708.988Z" fill="#ECECEC" stroke="black" stroke-width="0.8" stroke-linecap="round" stroke-linejoin="round"/>
<path d="M864.997 1024.19L863.397 1035.39L869.797 1048.59L886.597 1046.59L892.197 1051.39L882.197 1081.39L892.997 1096.59L895.397 1116.59L892.597 1133.79L885.797 1145.79L865.797 1144.59L853.397 1132.19L851.797 1143.79L836.597 1146.99L828.597 1153.39L836.997 1170.19L819.797 1184.59L796.597 1158.59L781.797 1137.39L767.797 1110.99L768.597 1102.19L773.797 1094.19L778.997 1075.39L783.797 1056.19L791.397 1054.99H824.197V1024.19L834.997 1022.59L848.597 1025.79L862.197 1022.59L864.997 1024.19Z" fill="#ECECEC" stroke="black" stroke-width="0.8" stroke-linecap="round" stroke-linejoin="round"/>
<path d="M569 799.406L567.4 807.406L576.6 820.606V839.406L579 859.406L584.6 869.006L579.4 891.806L581.4 904.606L587.4 921.006L592.6 930.206L557 945.006L544.2 953.806L523.8 961.406L503.8 954.206L504.6 943.806L495 921.806L501 892.606L510.6 871.406L504.6 834.606L501.4 815.406L502.2 800.606L541.4 799.406L551.4 801.406L558.6 797.406L569 799.406Z" fill="#ECECEC" stroke="black" stroke-width="0.8" stroke-linecap="round" stroke-linejoin="round"/>
<path d="M309 762.6L310.2 772.2H313.8L319.8 768.6L323.4 769.4L329.8 776.2L339.4 778.2L345.4 772.6L353 769L358.2 765.4L362.6 766.2L367.8 771.8L370.2 779L379.4 789.8L375 796.2L373.8 804.6L378.6 802.2L381.4 805L380.2 812.6L387 820.2L382.6 822.2L380.6 831L385.8 841.4L391.4 862.2L383 865L381 868.6L382.6 873.8L381 885H377.4L371 884.2L366.6 894.6H360.2L355.8 889L357.4 878.6L347.8 863L342.2 865.8L337 866.6L331 867.8L331.4 858.6L327.8 851.8L328.6 844.2L323.8 833.4L317.4 824.2H299.4L294.2 829L287.8 829.8L283.8 835.4L281.4 842.2L269 853.8L259.4 838.6L250.6 828.6L245 825L239.4 819.8L237 808.6L233.8 803L227 798.6L237.4 786.2L244.2 786.6L250.2 782.6L255 782.2L258.6 779L257 770.6L259.4 767.8L259.8 759L270.6 759.4L287 765.4L291.8 765L293.4 762.2L305.8 764.2L309 762.6Z" fill="#ECECEC" stroke="black" stroke-width="0.8" stroke-linecap="round" stroke-linejoin="round"/>
<path d="M189.398 744.612L192.599 733.012L216.999 732.612L222.198 726.212L229.398 725.812L238.198 732.212H244.999L252.599 728.212L256.999 735.412L246.999 741.412L237.398 740.612L227.799 735.412L219.398 741.412H215.398L209.799 745.012L189.398 744.612Z" fill="#ECECEC" stroke="black" stroke-width="0.8" stroke-linecap="round" stroke-linejoin="round"/>
<path d="M259.802 759.012L259.401 767.812L257.001 770.612L258.602 779.012L255.001 782.212L250.201 782.612L244.201 786.612L237.401 786.212L227.001 798.612L215.401 788.212L205.802 786.212L200.602 779.012L201.001 775.012L194.201 769.812L192.602 764.212L204.602 760.212L212.201 761.012L218.201 757.812L259.802 759.012Z" fill="#ECECEC" stroke="black" stroke-width="0.8" stroke-linecap="round" stroke-linejoin="round"/>
<path d="M824.199 1024.21V1055.01H791.398L783.798 1056.21L779.398 1052.61L786.999 1023.81L824.199 1024.21Z" fill="#ECECEC" stroke="black" stroke-width="0.8" stroke-linecap="round" stroke-linejoin="round"/>
<path d="M1539 87.7938L1546.2 86.9938L1567.4 68.1938L1575 66.1938L1582.6 73.7938L1577.8 86.1938L1593.4 99.7938L1598.6 98.1938L1608.6 117.394L1629.8 122.594L1647 135.394L1677.8 139.794L1709.8 132.994L1710.6 126.994L1728.2 122.194L1740.2 107.394L1754.6 108.194L1762.6 103.394L1778.2 105.794L1804.6 118.994L1821.8 121.794L1851 144.194L1867 145.394L1873.8 166.594L1871.4 198.594L1869.4 217.394L1879.4 221.394L1873 235.394L1883.8 255.794L1888.6 272.194L1905.8 276.594L1910.2 292.994L1894.6 316.194L1907.4 329.794L1918.6 345.394L1941.4 356.594L1945.4 378.994L1956.2 383.394L1959.8 394.994L1929.8 408.594L1925.4 438.194L1883 430.594L1858.2 424.594L1833 421.394L1819.8 389.794L1808.6 385.394L1792.2 389.794L1771.8 402.194L1743.8 393.794L1719.4 373.794L1697.4 366.594L1679.8 342.194L1659 308.194L1647.8 312.194L1633 303.794L1626.2 313.794L1612.2 300.194L1610.2 286.594H1603.4L1604.2 267.794L1590.2 248.594L1561.8 234.194L1543.4 209.794L1545.4 189.794L1554.6 180.994L1551 166.194L1535.8 158.194L1517 127.794L1501.8 107.394L1504.6 99.3938L1493 70.1938L1506.2 62.5938L1511 72.5938L1523.8 84.1938L1539 87.7938Z" fill="#ECECEC" stroke="black" stroke-width="0.8" stroke-linecap="round" stroke-linejoin="round"/>
<path d="M1517 127.803L1535.8 158.203L1551 166.203L1554.6 181.003L1545.4 189.803L1543.4 209.803L1561.8 234.203L1590.2 248.603L1604.2 267.803L1603.4 286.603H1610.2L1612.2 300.203L1626.2 313.803L1613 312.603L1598.2 310.203L1585 335.003L1544.2 333.003L1477 281.403L1442.6 263.403L1415.4 256.203L1403 225.003L1447 198.203L1451 167.403L1446.2 148.603L1457 142.203L1465.4 126.203L1473.8 122.203L1499 125.803L1507.4 132.203L1517 127.803Z" fill="#ECECEC" stroke="black" stroke-width="0.8" stroke-linecap="round" stroke-linejoin="round"/>
<path d="M1339.4 227.797L1341 238.197L1338.6 242.197H1339L1336.2 250.197L1327.8 246.997L1325 263.797L1331 266.597L1325.8 270.197L1325.4 276.997L1335.4 273.797L1337 283.797L1329.8 324.597L1327 318.197L1311.4 280.597L1317 272.197L1315.4 270.597L1319.8 258.597L1322.2 239.397L1324.6 232.597H1325H1332.2L1333.8 228.197L1339.4 227.797Z" fill="#ECECEC" stroke="black" stroke-width="0.8" stroke-linecap="round" stroke-linejoin="round"/>
<path d="M895.798 100.594L888.999 120.994L892.599 128.594L888.999 141.794L872.199 132.194L861.398 129.394L831.398 116.594L833.398 103.394L858.199 105.794L879.798 102.994L895.798 100.594Z" fill="#ECECEC" stroke="black" stroke-width="0.8" stroke-linecap="round" stroke-linejoin="round"/>
<path d="M1415.4 256.2L1411.8 260.2L1370.2 273L1394.2 299L1387.8 303L1385 311.8L1368.6 315.4L1364.2 324.6L1355.8 332.6L1331 328.2L1329.8 324.6L1337 283.8L1335.4 273.8L1337.8 266.2L1336.2 250.2L1339 242.2L1364.2 252.6L1403 225L1415.4 256.2Z" fill="#ECECEC" stroke="black" stroke-width="0.8" stroke-linecap="round" stroke-linejoin="round"/>
<path d="M1517 981.8L1497.4 1010.6L1498.2 1104.2L1511.4 1125.4L1495.4 1135.8L1489.8 1146.6L1481 1148.2L1477.8 1166.6L1470.2 1177L1465.8 1193.8L1456.6 1202.2L1424.2 1176.6L1423 1161.8L1341 1109.4L1342.6 1090.6L1337 1080.6V1079.4L1343.4 1069L1354.6 1052.2L1363 1033.4L1352.6 1003.8L1349.8 991L1339 973L1352.6 957.8L1367.8 941L1379.4 945.4L1379.8 959.8L1387.4 968.2H1403.4L1432.2 989.8L1439.4 990.2L1444.6 989.4L1449.8 992.2L1465 994.6L1471.4 983.8L1492.2 973L1501.4 981.8H1517Z" fill="#ECECEC" stroke="black" stroke-width="0.8" stroke-linecap="round" stroke-linejoin="round"/>
<path d="M1613 312.603L1619 323.803L1617.8 329.803L1627.4 349.003L1611.8 349.803L1605 337.403L1585 335.003L1598.2 310.203L1613 312.603Z" fill="#ECECEC" stroke="black" stroke-width="0.8" stroke-linecap="round" stroke-linejoin="round"/>
<path d="M1339.4 227.794L1333.8 228.194L1332.2 232.594H1325L1330.2 211.394L1339 193.394V192.594L1349 193.794L1353.8 203.794L1343 213.794L1339.4 227.794Z" fill="#ECECEC" stroke="black" stroke-width="0.8" stroke-linecap="round" stroke-linejoin="round"/>
<path d="M377.398 885L376.599 892.2L378.599 904.6L373.799 916.2L380.198 923.4L387.398 925L396.999 935.8L397.799 945.8L395.398 949L393.799 970.2L387.799 970.6L364.599 958.2L343.799 938.6L324.599 924.6L309.398 908.2L314.999 899.8L316.198 892.2L326.599 878.6L336.999 866.6L342.198 865.8L347.799 863L357.398 878.6L355.799 889L360.198 894.6H366.599L370.999 884.2L377.398 885Z" fill="#ECECEC" stroke="black" stroke-width="0.8" stroke-linecap="round" stroke-linejoin="round"/>
<path d="M1113.4 271.406L1106.6 283.806L1110.6 295.006L1106.2 310.606L1114.2 331.406L1119.4 422.606L1123.4 517.406L1125.4 568.606H1099.8V579.406L1009.4 530.206L919.398 481.006L897.398 495.006L882.199 504.606L869.398 490.606L834.199 479.406L824.199 463.406L806.199 451.406L796.199 456.206L787.798 441.806L786.999 431.006L773.398 412.206L782.199 401.406L779.798 385.406L782.199 371.406L780.599 359.406L783.798 338.606L782.199 326.606L774.599 303.806L784.999 298.206L786.599 287.006L784.199 276.606L798.599 266.606L804.999 258.206L815.398 251.006L815.798 231.406L841.398 240.206L850.599 237.806L868.599 242.206L897.798 253.806L908.999 276.606L928.599 281.406L959.798 292.206L983.798 305.006L993.798 298.206L1003.8 286.606L997.398 267.006L1003.4 254.206L1018.2 242.206L1033 239.006L1062.6 244.206L1070.6 255.406L1078.6 255.806L1085.8 260.206L1107.4 263.006L1113.4 271.406Z" fill="#ECECEC" stroke="black" stroke-width="0.8" stroke-linecap="round" stroke-linejoin="round"/>
<path d="M1179.4 1866.61L1171.4 1869.41L1156.6 1849.41L1169.4 1833.41L1181.8 1823.41L1192.6 1817.81L1201.4 1825.81L1208.2 1833.81L1200.6 1846.21L1196.2 1854.61L1183.8 1858.61L1179.4 1866.61Z" fill="#ECECEC" stroke="black" stroke-width="0.8" stroke-linecap="round" stroke-linejoin="round"/>
<path d="M522.203 178.997L529.803 195.397L531.003 210.997L538.603 238.197L544.203 243.797L540.203 253.797L511.803 258.197L501.803 267.397L489.403 269.797L488.203 288.997L462.603 298.997L454.203 311.797L436.203 318.597L414.603 322.597L379.003 341.797L378.603 372.197H375.003L375.403 385.797L361.803 386.597L354.603 392.597H344.603L336.603 388.997L318.203 391.797L310.603 411.797L303.403 413.797L292.603 446.197L261.003 473.797L253.003 509.397L243.403 520.997L240.603 530.197L190.603 532.197H190.203L191.403 520.197L200.203 513.397L207.803 499.797L206.603 490.997L214.603 472.997L227.403 456.597L235.003 452.597L241.403 437.797L242.203 423.797L250.603 408.197L265.803 398.597L280.203 372.597L280.603 372.197L292.203 362.197L312.603 359.397L330.203 341.797L341.403 334.997L360.203 313.397L355.403 281.797L364.203 259.397L367.803 245.797L382.203 228.597L403.803 216.997L420.203 206.197L435.003 179.797L442.203 163.797L457.803 164.197L470.203 174.997L490.603 173.397L512.603 178.997H522.203Z" fill="#ECECEC" stroke="black" stroke-width="0.8" stroke-linecap="round" stroke-linejoin="round"/>
<path d="M1694.6 1430.61L1696.2 1461.41L1701.4 1473.41L1698.6 1485.81L1693.8 1493.01L1687.4 1478.21L1682.6 1485.81L1685.8 1504.61L1683 1515.81L1676.2 1521.41L1673.4 1543.41L1662.6 1573.41L1649 1608.61L1631.8 1657.41L1620.2 1693.01L1607.8 1723.01L1589.4 1729.01L1569 1739.81L1557 1733.41L1540.2 1724.21L1535.4 1710.61V1687.81L1529.4 1667.41L1528.6 1648.61L1533.8 1630.21L1544.2 1625.81L1545 1617.41L1556.6 1597.81L1559.8 1581.41L1555.4 1569.41L1552.2 1553.01L1551.8 1529.41L1560.6 1515.01L1564.6 1498.61L1575.8 1497.81L1588.6 1492.61L1597.4 1487.81L1607 1487.41L1620.6 1473.01L1640.2 1457.01L1647.4 1444.21L1645 1433.01L1654.6 1436.21L1667.8 1418.61L1669 1403.01L1677 1391.41L1684.2 1402.61L1689.8 1413.41L1694.6 1430.61Z" fill="#ECECEC" stroke="black" stroke-width="0.8" stroke-linecap="round" stroke-linejoin="round"/>
<path d="M663.8 590.2L664.2 649.4L651.8 666.6L650.2 682.6L630.2 686.6L599.4 688.6L591.4 697.8L577 699H562.6L557 694.2L544.6 697.8L523.4 708.6L519 716.6L501.8 727.8L498.6 734.6L489 739.8L478.2 736.2L472.2 742.6L468.6 760.2L450.6 781.4L451.4 790.2L445 801L446.6 815.8L437 819.8L431.8 823L428.2 812.2L421.8 815L417.8 814.6L413.8 821.8H396.2L390.2 817.8L387 820.2L380.2 812.6L381.4 805L378.6 802.2L373.8 804.6L375 796.2L379.4 789.8L370.2 779L367.8 771.8L362.6 766.2L358.2 765.4L353 769L345.4 772.6L339.4 778.2L329.8 776.2L323.4 769.4L319.8 768.6L313.8 772.2H310.2L309 762.6L310.2 754.6L308.2 745L300.2 737.8L295.8 723L295 707L302.6 702.2L306.6 687L313.8 686.6L329.4 693.8L342.2 688.6L350.6 690.2L354.2 684.6L444.2 684.2L449.4 666.2L445.4 663L435.4 552.2L425.8 441.4L459.8 441L534.2 497L609 553L614.2 565L628.2 572.2L638.6 576.6L639 593L663.8 590.2Z" fill="#ECECEC" stroke="black" stroke-width="0.8" stroke-linecap="round" stroke-linejoin="round"/>
<path d="M1289.8 1769.01H1273.4L1272.2 1757.41L1269.8 1745.81L1268.2 1736.61L1273.8 1708.21L1269.4 1689.81L1260.6 1653.81L1285.4 1624.61L1292.2 1606.21L1295.4 1603.81L1299 1588.61L1295.8 1581.01L1297.4 1561.81L1302.6 1544.21L1304.2 1511.41L1293 1503.41L1282.2 1501.41L1277.8 1495.01L1267.4 1489.81L1248.6 1490.21L1247.8 1480.61L1246.2 1462.21L1315 1441.01L1327.8 1453.41L1333.8 1451.01L1342.6 1457.41L1343.4 1467.81L1338.2 1479.81L1339 1497.81L1353 1513.81L1360.6 1495.81L1370.6 1490.61L1370.2 1457.41L1361.4 1439.01L1353.8 1430.61H1352.2L1349.8 1401.41L1355.8 1377.01L1364.6 1376.21L1391.4 1383.41L1397.4 1380.21L1413 1379.41L1421.4 1371.81L1435 1372.21L1459.8 1362.21L1478.2 1347.41L1481.8 1358.61L1479.8 1384.21L1481.8 1407.01L1481 1447.01L1484.2 1459.41L1476.6 1477.81L1467 1495.81L1452.2 1511.81L1431 1521.41L1405 1533.81L1378.6 1561.41L1369.8 1566.21L1353 1584.61L1343.8 1590.21L1340.6 1608.61L1350.2 1628.21L1353.8 1643.01V1651.01L1357.8 1649.41L1355.8 1674.61L1351.4 1686.61L1356.2 1691.01L1352.2 1701.81L1342.6 1711.01L1323.8 1719.41L1296.2 1733.41L1286.2 1743.01L1287.4 1753.81L1292.6 1755.41L1289.8 1769.01Z" fill="#ECECEC" stroke="black" stroke-width="0.8" stroke-linecap="round" stroke-linejoin="round"/>
<path d="M459.8 440.994L425.8 441.394L435.4 552.194L445.4 662.994L449.4 666.194L444.2 684.194L354.2 684.594L350.6 690.194L342.2 688.594L329.4 693.794L313.8 686.594L306.6 686.994L302.6 702.194L295 706.994L280.6 689.394L267 670.194L252.6 663.394L241.8 656.194H229.4L218.2 661.794L207.4 659.794L199.4 667.794L197.8 654.194L204.2 641.394L207.4 617.394L205.8 591.794L203.4 578.994L205.8 566.194L200.2 554.194L189 542.994L194.2 534.594H281L277.4 497.394L283.4 484.194L304.2 482.194L305 416.194L377 417.794L377.8 378.594L459.8 440.994Z" fill="#ECECEC" stroke="black" stroke-width="0.8" stroke-linecap="round" stroke-linejoin="round"/>
<path d="M1352.2 1430.61H1353.8L1361.4 1439.01L1370.2 1457.41L1370.6 1490.61L1360.6 1495.81L1353 1513.81L1339 1497.81L1338.2 1479.81L1343.4 1467.81L1342.6 1457.41L1333.8 1451.01L1327.8 1453.41L1315 1441.01L1303.4 1434.61L1311.4 1410.61L1318.6 1401.81L1315 1380.21L1320.2 1359.41L1324.2 1352.61L1319 1331.01L1308.6 1319.41L1330.6 1324.21L1334.6 1331.01L1334.2 1334.21L1341.4 1350.61L1342.2 1381.41L1335 1395.81L1341.4 1414.61L1340.6 1425.81L1345.4 1433.41L1345 1443.01L1348.6 1448.61L1352.6 1442.21L1360.2 1452.21L1361 1449.01L1357 1435.41L1352.6 1434.21L1352.2 1430.61Z" fill="#ECECEC" stroke="black" stroke-width="0.8" stroke-linecap="round" stroke-linejoin="round"/>
<path d="M1087.8 1532.21L1106.2 1526.61L1120.6 1527.81L1129.4 1533.81V1535.81L1116.6 1541.81H1109.8L1095 1551.81L1087 1541.01L1052.2 1550.21L1035.4 1551.01L1032.2 1642.61L1010.2 1643.41L1007.8 1718.21L1003.4 1813.01L983.4 1826.21L971.8 1828.21L958.2 1823.41L948.2 1821.41L945 1810.61L937 1803.41L925.8 1816.21L910.2 1796.61L902.2 1778.21L898.2 1753.01L893.4 1734.61L887 1695.01L887.4 1664.21L885 1650.21L876.6 1639.41L865.4 1618.21L854.2 1587.41L849.8 1571.41L832.2 1546.21L831 1526.61L841.8 1521.81L855.4 1517.41L869.8 1518.21L883 1529.81L886.2 1527.81L977 1527.01L992.2 1539.01L1046.2 1542.61L1087.8 1532.21Z" fill="#ECECEC" stroke="black" stroke-width="0.8" stroke-linecap="round" stroke-linejoin="round"/>
<path d="M897.4 495.006L903.8 535.006L912.6 541.806L913 549.806L922.6 558.606L917.8 569.806L910.6 621.806L909.8 655.406L881.8 679.406L872.6 713.406L882.2 723.006V739.406L897 739.806L894.6 752.206L888.6 753.406L887.8 761.806L883.8 762.206L868.2 734.206L862.6 733.006L845.4 747.406L827.8 739.806L815.8 738.606L809.4 742.206L796.2 741.406L783 752.206L771.4 753.006L744.2 739.806L733.4 745.806L721.8 745.406L713.4 735.806L691 726.206L666.6 729.406L661 734.606L657.8 749.406L651.4 759.806L649.8 783.006L632.6 768.206H624.6L617 775.806L617.4 758.206L591.4 752.206L590.6 739.806L578.2 723.006L575 711.406L577 699.006L591.4 697.806L599.4 688.606L630.2 686.606L650.2 682.606L651.8 666.606L664.2 649.406L663.8 590.206L695 579.006L759 528.606L834.2 479.406L869.4 490.606L882.2 504.606L897.4 495.006Z" fill="#ECECEC" stroke="black" stroke-width="0.8" stroke-linecap="round" stroke-linejoin="round"/>
<path d="M887.798 761.788L896.999 771.788L894.599 776.588L893.398 784.988L874.599 804.988L868.999 821.388L865.798 834.588L860.999 840.588L856.599 858.588L844.599 868.988L841.398 881.788L836.199 892.188L834.199 902.988L818.599 911.788L805.798 900.988L797.398 901.388L783.798 916.588H777.398L766.599 941.388L760.999 959.788L737.398 968.988L728.999 967.788L720.199 973.388L702.198 972.988L689.799 956.588L682.198 938.188L666.198 921.388H649.398H629.398L630.599 880.188L629.799 863.788L634.198 847.788L640.999 839.788L652.198 823.788L649.799 816.988L654.198 806.588L648.999 791.388L649.799 782.988L651.398 759.788L657.799 749.388L660.999 734.588L666.599 729.388L690.999 726.188L713.398 735.788L721.798 745.388L733.398 745.788L744.199 739.788L771.398 752.988L782.999 752.188L796.199 741.388L809.398 742.188L815.798 738.588L827.798 739.788L845.398 747.388L862.599 732.988L868.199 734.188L883.798 762.188L887.798 761.788Z" fill="#ECECEC" stroke="black" stroke-width="0.8" stroke-linecap="round" stroke-linejoin="round"/>
<path d="M1758.2 654.588L1749.4 636.588L1728.6 594.188L1793.8 568.588L1804.2 517.388L1792.2 498.988V488.588L1797.4 478.188L1796.6 467.788L1806.2 462.588L1801.8 458.988V442.188H1813L1825 459.788L1838.2 468.988L1854.6 472.588L1868.2 476.988L1879.8 491.788L1886.6 500.188L1894.6 503.788L1895.4 509.388L1888.6 524.588L1885.8 531.788L1877 540.188L1870.2 557.788L1860.2 556.188L1856.2 562.588L1853.4 575.388L1857.8 592.588L1855.8 595.788H1845.8L1832.6 605.388L1831.4 617.788L1826.6 623.388L1812.6 622.988L1804.6 629.388L1805.4 639.788L1795 646.988L1782.6 644.588L1768.2 653.388L1758.2 654.588Z" fill="#ECECEC" stroke="black" stroke-width="0.8" stroke-linecap="round" stroke-linejoin="round"/>
<path d="M1807.8 421.794L1802.6 412.994L1808.2 404.594L1811 406.594L1810.2 417.394L1807.8 421.794Z" fill="#ECECEC" stroke="black" stroke-width="0.8" stroke-linecap="round" stroke-linejoin="round"/>
<path d="M1336.2 250.2L1337.8 266.2L1335.4 273.8L1325.4 277L1325.8 270.2L1331 266.6L1325 263.8L1327.8 247L1336.2 250.2Z" fill="#ECECEC" stroke="black" stroke-width="0.8" stroke-linecap="round" stroke-linejoin="round"/>
<path d="M1703.4 449.812L1697.4 451.812L1690.2 446.612L1687 427.812L1691.4 414.612L1697.4 411.812L1704.6 419.812L1706.6 434.612L1703.4 449.812Z" fill="#ECECEC" stroke="black" stroke-width="0.8" stroke-linecap="round" stroke-linejoin="round"/>
<path d="M1258.2 1111.41L1267 1125.81L1265.8 1141.01L1259.4 1144.21L1247 1142.61L1240.2 1157.41L1226.2 1155.41L1228.6 1141.01L1231.8 1139.01L1232.6 1123.81L1239 1116.61L1244.6 1119.41L1258.2 1111.41Z" fill="#ECECEC" stroke="black" stroke-width="0.8" stroke-linecap="round" stroke-linejoin="round"/>
<path d="M378.6 372.188L378.2 373.788L377.8 378.588L377 417.788L305 416.188L304.2 482.188L283.4 484.188L277.4 497.388L281 534.588H194.2L189 542.988L190.2 532.188H190.6L240.6 530.188L243.4 520.988L253 509.388L261 473.788L292.6 446.188L303.4 413.788L310.6 411.788L318.2 391.788L336.6 388.988L344.6 392.588H354.6L361.8 386.588L375.4 385.788L375 372.188H378.6Z" fill="#ECECEC" stroke="black" stroke-width="0.8" stroke-linecap="round" stroke-linejoin="round"/>
<path d="M1585 335.003L1605 337.403L1611.8 349.803L1627.4 349.003L1638.2 371.403L1649.8 377.003L1654.6 386.203L1670.6 397.003L1673.4 407.403L1671.8 416.203L1675.4 424.603L1682.6 431.803L1686.2 440.203L1690.2 446.603L1697.4 451.803L1703.4 449.803L1708.6 459.803L1709.8 465.403L1720.6 491.803L1788.2 504.603L1792.2 499.003L1804.2 517.403L1793.8 568.603L1728.6 594.203L1665 604.203L1645 615.803L1631 642.603L1620.6 647.003L1614.6 638.603L1606.2 639.803L1584.2 637.003L1579.8 634.603L1554.2 635.003L1548.2 637.403L1538.6 631.003L1533.4 643.403L1536.6 654.203L1527 662.603L1523.4 651.403L1516.2 643.803L1514.2 633.403L1501.8 624.203L1488.6 602.603L1481 581.803L1464.6 564.203L1454.6 559.803L1438.2 535.403L1434.6 517.803V502.603L1420.2 473.803L1409 463.803L1397 458.603L1388.6 443.803L1389.4 438.203L1382.2 424.603L1375.4 419.003L1365.4 399.803L1350.2 379.403L1337.8 361.803H1327L1329 347.803L1329.4 338.603L1331 328.203L1355.8 332.603L1364.2 324.603L1368.6 315.403L1385 311.803L1387.8 303.003L1394.2 299.003L1370.2 273.003L1411.8 260.203L1415.4 256.203L1442.6 263.403L1477 281.403L1544.2 333.003L1585 335.003Z" fill="#ECECEC" stroke="black" stroke-width="0.8" stroke-linecap="round" stroke-linejoin="round"/>
<path d="M1387 711.806L1384.2 733.806L1376.2 759.406L1363 771.806L1353.8 791.806L1351.8 802.206L1341.4 809.406L1335.4 836.206V839.406L1332.2 838.606L1332.6 825.806L1329.4 817.006L1317.8 807.006L1314.2 788.606L1316.6 769.406L1306.2 767.806L1304.6 773.406L1291 775.006L1297 782.206L1299 797.806L1287 811.806L1276.2 830.206L1264.6 833.006L1245.4 818.206L1237 823.406L1235 830.606L1223.4 835.806L1222.6 841.006H1200.2L1197 835.806L1180.6 834.606L1172.6 839.006L1166.2 837.006L1154.6 821.806L1150.6 815.006L1134.2 818.606L1128.2 830.206L1123 853.406L1115 858.206L1108.2 861.006L1106.2 859.806L1098.6 852.206L1097 844.206L1100.2 833.806V823.006L1087 807.006L1084.2 796.206V789.806L1075.8 782.206L1075.4 767.406L1070.2 757.406L1062.6 759.006L1064.6 749.406L1070.2 739.006L1067.4 728.206L1074.6 720.206L1069.8 714.206L1075 698.606L1085 679.406L1104.2 681.406L1099.8 579.406V568.606H1125.4L1123.4 517.406H1212.6H1298.6H1387L1395.4 542.606L1390.6 547.006L1395.4 573.806L1405.4 604.206L1414.2 610.606L1427 620.206L1416.2 634.606L1400.2 639.006L1393.4 647.006L1392.2 663.806L1384.2 701.806L1387 711.806Z" fill="#ECECEC" stroke="black" stroke-width="0.8" stroke-linecap="round" stroke-linejoin="round"/>
<path d="M1335.4 839.412L1336.2 859.412L1333 867.012L1321 867.812L1313.4 882.212L1327.4 884.212L1339.4 896.612L1343.4 907.012L1353.8 913.012L1367.8 941.012L1352.6 957.812L1339 973.012L1325 985.012H1309L1291 991.012L1276.6 985.012L1267.4 992.212L1247 975.012L1241.4 964.212L1229 969.412L1218.6 967.812L1212.6 972.212L1202.2 969.012L1188.2 947.812L1184.6 939.812L1167.4 929.412L1161.8 914.212L1152.2 903.012L1136.6 889.812L1136.2 881.412L1123.8 871.012L1108.2 861.012L1115 858.212L1123 853.412L1128.2 830.212L1134.2 818.612L1150.6 815.012L1154.6 821.812L1166.2 837.012L1172.6 839.012L1180.6 834.612L1197 835.812L1200.2 841.012H1222.6L1223.4 835.812L1235 830.612L1237 823.412L1245.4 818.212L1264.6 833.012L1276.2 830.212L1287 811.812L1299 797.812L1297 782.212L1291 775.012L1304.6 773.412L1306.2 767.812L1316.6 769.412L1314.2 788.612L1317.8 807.012L1329.4 817.012L1332.6 825.812L1332.2 838.612L1335.4 839.412Z" fill="#ECECEC" stroke="black" stroke-width="0.8" stroke-linecap="round" stroke-linejoin="round"/>
<path d="M295.001 706.988L295.802 722.988L300.201 737.788L308.201 744.988L310.201 754.588L309.001 762.588L305.802 764.188L293.401 762.188L291.802 764.988L287.001 765.388L270.602 759.388L259.802 758.988L218.201 757.788L212.201 760.988L204.602 760.188L192.602 764.188L189.401 744.588L209.802 744.988L215.401 741.388H219.401L227.802 735.388L237.401 740.588L247.001 741.388L257.001 735.388L252.602 728.188L245.001 732.188H238.201L229.401 725.788L222.201 726.188L217.001 732.588L192.602 732.988L183.401 712.988L172.602 704.188L182.602 698.988L193.802 680.988L199.401 667.788L207.401 659.788L218.201 661.788L229.401 656.188H241.802L252.602 663.388L267.001 670.188L280.602 689.388L295.001 706.988Z" fill="#ECECEC" stroke="black" stroke-width="0.8" stroke-linecap="round" stroke-linejoin="round"/>
<path d="M337 866.588L326.6 878.588L316.2 892.188L315 899.788L309.4 908.188L303.4 906.188L287.4 895.788L275.4 882.188L271.8 872.588L269 853.788L281.4 842.188L283.8 835.388L287.8 829.788L294.2 828.988L299.4 824.188H317.4L323.8 833.388L328.6 844.188L327.8 851.788L331.4 858.588L331 867.788L337 866.588Z" fill="#ECECEC" stroke="black" stroke-width="0.8" stroke-linecap="round" stroke-linejoin="round"/>
<path d="M1269.8 1745.81L1272.2 1757.41L1273.4 1769.01L1267.8 1780.21L1255 1783.01L1242.6 1769.01L1243 1760.21L1249.8 1750.61L1252.2 1743.01L1259 1741.41L1269.8 1745.81Z" fill="#ECECEC" stroke="black" stroke-width="0.8" stroke-linecap="round" stroke-linejoin="round"/>
<path d="M1403 225.003L1364.2 252.603L1339 242.203H1338.6L1341 238.203L1339.4 227.803L1343 213.803L1353.8 203.803L1349 193.803L1339 192.603L1334.6 173.003L1338.6 162.203L1343.8 156.603L1348.6 151.003L1347.8 137.003L1355.4 141.803L1377.8 134.603L1389.8 139.403H1407.4L1430.2 129.803L1441.8 130.203L1465.4 126.203L1457 142.203L1446.2 148.603L1451 167.403L1447 198.203L1403 225.003Z" fill="#ECECEC" stroke="black" stroke-width="0.8" stroke-linecap="round" stroke-linejoin="round"/>
<path d="M1099.8 579.4L1104.2 681.4L1085 679.4L1075 698.6L1069.8 714.2L1074.6 720.2L1067.4 728.2L1070.2 739L1064.6 749.4L1062.6 759L1070.2 757.4L1075.4 767.4L1075.8 782.2L1084.2 789.8V796.2L1069.8 800.6L1058.6 811L1042.6 839L1021.8 851L999.801 849.4L993.401 851.8L995.801 860.6L984.202 869.8L974.602 879.8L946.202 889.4L940.602 883.8L936.602 883L932.602 889.8L914.202 891.8L917.401 884.6L910.202 867L907.001 856.6L897.001 852.2L883.401 837L888.202 825L898.602 827.4L905.001 825.8H917.801L905.001 802.6L905.801 785.4L903.801 768.6L894.602 752.2L897.001 739.8L882.202 739.4V723L872.602 713.4L881.801 679.4L909.801 655.4L910.602 621.8L917.801 569.8L922.602 558.6L913.001 549.8L912.602 541.8L903.801 535L897.401 495L919.401 481L1009.4 530.2L1099.8 579.4Z" fill="#ECECEC" stroke="black" stroke-width="0.8" stroke-linecap="round" stroke-linejoin="round"/>
<path d="M588.599 799.806L585.799 813.406L592.599 821.006L600.599 829.806L601.398 842.606L606.198 847.806L604.999 907.006L610.599 924.606L592.599 930.206L587.398 921.006L581.398 904.606L579.398 891.806L584.599 869.006L578.999 859.406L576.599 839.406V820.606L567.398 807.406L568.999 799.406L588.599 799.806Z" fill="#ECECEC" stroke="black" stroke-width="0.8" stroke-linecap="round" stroke-linejoin="round"/>
<path d="M815.797 231.406L815.397 251.006L804.997 258.206L798.597 266.606L784.197 276.606L786.597 287.006L784.997 298.206L774.597 303.806L764.197 257.806L750.597 247.406L750.197 241.406L732.197 225.806L729.797 206.606L742.597 192.206L746.997 171.006L742.997 146.606L746.997 133.406L769.797 123.406L784.597 126.206V139.406L802.197 129.806L803.797 134.606L793.797 147.406L794.197 159.006L801.797 165.406L799.797 187.806L785.797 200.606L790.597 214.606L801.797 215.006L807.397 227.406L815.797 231.406Z" fill="#ECECEC" stroke="black" stroke-width="0.8" stroke-linecap="round" stroke-linejoin="round"/>
<path d="M1429.8 16.2062L1451.8 15.0062L1474.2 27.8062L1479.4 36.6062L1479.8 49.0062L1496.6 55.4062L1506.2 62.6062L1493 70.2062L1504.6 99.4062L1501.8 107.406L1517 127.806L1507.4 132.206L1499 125.806L1473.8 122.206L1465.4 126.206L1441.8 130.206L1430.2 129.806L1407.4 139.406H1389.8L1377.8 134.606L1355.4 141.806L1347.8 137.006L1348.6 151.006L1343.8 156.606L1338.6 162.206L1329.4 150.606L1336.2 141.006L1323.4 143.406L1305 137.406L1292.2 152.206L1260.2 155.006L1241.4 141.406L1218.6 140.606L1214.6 151.006L1200.2 154.206L1178.6 140.606L1155.4 141.006L1140.2 115.406L1123.4 101.406L1131.4 81.4062L1117 69.0062L1137.4 44.6062L1169.4 43.8062L1175.8 24.2062L1215.8 27.8062L1238.2 11.4062L1261.4 4.20624L1295.4 3.40625L1334.6 21.4062L1366.2 31.4062L1389.4 27.4062L1407.8 29.8062L1429.8 16.2062Z" fill="#ECECEC" stroke="black" stroke-width="0.8" stroke-linecap="round" stroke-linejoin="round"/>
<path d="M1110.6 34.6L1115.4 31.8L1119.8 15.8L1109 9L1129 1L1147.4 4.20001L1151 14.2L1170.2 22.2L1167.4 28.6L1142.6 29.8L1134.6 37.8L1119 51.4L1111 39.8L1110.6 34.6Z" fill="#ECECEC" stroke="black" stroke-width="0.8" stroke-linecap="round" stroke-linejoin="round"/>
<path d="M1291 1108.59L1290.2 1124.19L1285.8 1142.19L1292.2 1152.19L1302.2 1146.19L1315.4 1144.59L1318.2 1147.79L1331.4 1141.39L1322.2 1132.59L1329.8 1120.99L1341 1109.39L1423 1161.79L1424.2 1176.59L1456.6 1202.19L1445.4 1234.19L1446.6 1248.59L1460.6 1257.79L1461.4 1264.59L1454.6 1280.19L1455.8 1287.79L1454.2 1300.19L1461.4 1316.19L1470.2 1341.79L1478.2 1347.39L1459.8 1362.19L1435 1372.19L1421.4 1371.79L1413 1379.39L1397.4 1380.19L1391.4 1383.39L1364.6 1376.19L1355.8 1376.99L1356.2 1376.59L1349 1366.99L1347.8 1339.79L1336.2 1326.19L1334.6 1330.99L1330.6 1324.19L1308.6 1319.39L1295.8 1311.79L1281.4 1307.39L1272.6 1302.99L1271.4 1302.19L1260.6 1275.79L1259 1260.19L1241 1242.59L1246.6 1232.99L1242.2 1222.59L1243 1211.79L1239 1208.19L1240.2 1196.99L1242.6 1196.59L1250.6 1187.39L1259.8 1173.79L1265.4 1168.59V1160.19L1260.6 1154.19L1259.4 1144.19L1265.8 1140.99L1267 1125.79L1258.2 1111.39L1266.2 1108.19L1291 1108.59Z" fill="#ECECEC" stroke="black" stroke-width="0.8" stroke-linecap="round" stroke-linejoin="round"/>
<path d="M1339 973L1349.8 991L1352.6 1003.8L1363 1033.4L1354.6 1052.2L1343.4 1069L1337 1079.4V1080.6L1336.2 1079L1324.2 1073.8L1314.6 1080.2L1300.2 1083.8L1289.8 1098.6L1291 1108.6L1266.2 1108.2L1258.2 1111.4L1244.6 1119.4L1239 1116.6L1239.4 1097.4L1244.6 1087.4L1245.8 1067L1250.6 1055L1259.4 1041.8L1267.8 1034.6L1275.4 1025.8L1266.2 1022.2L1267.4 992.2L1276.6 985L1291 991L1309 985H1325L1339 973Z" fill="#ECECEC" stroke="black" stroke-width="0.8" stroke-linecap="round" stroke-linejoin="round"/>
<path d="M1758.2 654.588L1742.2 661.388L1738.6 672.988V681.788L1717 692.588L1681.8 704.588L1663 722.588L1653 724.188L1646.2 722.588L1633.4 733.388L1619.4 738.188L1600.6 739.388L1595 740.988L1590.6 747.788L1584.6 749.788L1581.4 756.188L1570.2 755.388L1563.4 758.988L1547.4 757.788L1541 742.588V728.588L1537 720.988L1531.8 702.188L1524.6 691.788L1529 690.188L1526.2 678.588L1528.6 673.788L1527 662.588L1536.6 654.188L1533.4 643.388L1538.6 630.988L1548.2 637.388L1554.2 634.988L1579.8 634.588L1584.2 636.988L1606.2 639.788L1614.6 638.588L1620.6 646.988L1631 642.588L1645 615.788L1665 604.188L1728.6 594.188L1749.4 636.588L1758.2 654.588Z" fill="#ECECEC" stroke="black" stroke-width="0.8" stroke-linecap="round" stroke-linejoin="round"/>
<path d="M1271.4 1302.21L1272.6 1303.01L1281.4 1307.41L1295.8 1311.81L1308.6 1319.41L1319 1331.01L1324.2 1352.61L1320.2 1359.41L1315 1380.21L1318.6 1401.81L1311.4 1410.61L1303.4 1434.61L1315 1441.01L1246.2 1462.21L1247.8 1480.61L1230.6 1484.21L1217.4 1494.21L1214.2 1503.01L1206.2 1505.41L1185.8 1526.21L1173 1543.01L1165.4 1543.41L1158.2 1540.61L1133.4 1537.81L1129.4 1535.81V1533.81L1120.6 1527.81L1106.2 1526.61L1087.8 1532.21L1073.4 1516.21L1059 1495.41L1062.2 1413.41L1109 1413.81L1107.4 1405.01L1111 1395.41L1107.4 1383.41L1110.2 1371.01L1107.8 1363.01L1115.4 1363.41L1116.6 1371.41L1127.4 1371.01L1141.4 1373.41L1149 1385.01L1166.6 1388.61L1180.6 1380.61L1185.4 1393.81L1202.6 1397.41L1210.6 1408.61L1219.4 1422.61H1236.6L1235.8 1395.01L1229.4 1399.81L1213.8 1389.81L1207.8 1385.01L1211.4 1359.41L1215.8 1329.01L1211 1317.81L1217.8 1301.41L1223.8 1298.21L1254.6 1293.81L1258.2 1295.01L1257 1300.61L1264.6 1302.61L1269.4 1307.81L1273.4 1306.61L1271.4 1302.21Z" fill="#ECECEC" stroke="black" stroke-width="0.8" stroke-linecap="round" stroke-linejoin="round"/>
<path d="M1260.6 1653.79L1249 1650.99L1241.4 1654.19L1230.6 1649.79H1221.8L1208.2 1638.19L1191 1634.19L1185 1617.79L1185.4 1608.59L1176.2 1605.79L1151.8 1577.79L1145.4 1562.99L1141 1558.19L1133.4 1537.79L1158.2 1540.59L1165.4 1543.39L1173 1542.99L1185.8 1526.19L1206.2 1505.39L1214.2 1502.99L1217.4 1494.19L1230.6 1484.19L1247.8 1480.59L1248.6 1490.19L1267.4 1489.79L1277.8 1494.99L1282.2 1501.39L1293 1503.39L1304.2 1511.39L1302.6 1544.19L1297.4 1561.79L1295.8 1580.99L1299 1588.59L1295.4 1603.79L1292.2 1606.19L1285.4 1624.59L1260.6 1653.79Z" fill="#ECECEC" stroke="black" stroke-width="0.8" stroke-linecap="round" stroke-linejoin="round"/>
<path d="M1511.4 1125.41L1498.2 1104.21L1497.4 1010.61L1517 981.806L1523 973.406L1537.4 973.006L1557.4 955.006L1586.6 953.806L1649 876.606L1629.8 877.006L1555 846.606L1546.2 837.406L1537.4 825.006L1528.6 810.606L1533.4 801.806L1541 787.806L1548.6 792.606L1553.4 803.406L1564.2 814.206H1575.4L1596.2 807.406L1620.6 804.606L1640.2 796.606L1651.4 795.006L1659.4 790.206L1672.2 789.406L1679.4 788.606L1689.4 785.006L1701.4 782.206L1711.4 773.406H1720.2L1721 780.606L1719.4 795.406L1720.2 809.006L1715.8 818.206L1710.2 846.206L1700.6 874.606L1687.4 907.406L1669 945.006L1650.2 973.806L1623.8 1009.01L1601.4 1029.81L1567.8 1055.41L1546.6 1074.61L1521.8 1105.81L1516.6 1119.41L1511.4 1125.41Z" fill="#ECECEC" stroke="black" stroke-width="0.8" stroke-linecap="round" stroke-linejoin="round"/>
<path d="M1260.6 1653.81L1269.4 1689.81L1273.8 1708.21L1268.2 1736.61L1269.8 1745.81L1259 1741.41L1252.2 1743.01L1249.8 1750.61L1243 1760.21L1242.6 1769.01L1255 1783.01L1267.8 1780.21L1273.4 1769.01H1289.8L1283 1787.81L1279 1809.01L1272.2 1820.61L1256.2 1833.81L1251.8 1837.41L1241.4 1850.61L1234.2 1863.81L1220.2 1882.21L1193.4 1908.61L1177 1923.81L1159.8 1935.81L1136.2 1945.41L1125.4 1947.01L1121.8 1954.21L1109 1950.21L1098.2 1955.01L1075.4 1950.21L1062.2 1953.41L1053.4 1951.81L1030.2 1962.21L1011.8 1966.21L997.797 1975.81L988.197 1976.61L979.797 1967.41L972.597 1967.01L963.797 1955.41L962.597 1959.01L960.197 1952.21L961.397 1937.01L955.397 1919.81L962.597 1915.01L962.997 1895.41L949.797 1871.41L940.197 1849.81V1849.41L925.797 1816.21L936.997 1803.41L944.997 1810.61L948.197 1821.41L958.197 1823.41L971.797 1828.21L983.397 1826.21L1003.4 1813.01L1007.8 1718.21L1013.4 1722.21L1025.4 1746.61L1023 1762.21L1027.4 1771.41L1043.4 1768.61L1054.6 1757.01L1065.4 1749.41L1071.4 1737.01L1082.6 1731.41L1091.8 1734.21L1101.8 1741.41L1119.8 1742.61L1134.2 1737.01L1136.6 1729.01L1141.4 1716.61L1153.4 1714.61L1160.6 1705.01L1168.6 1687.81L1189.4 1668.61L1221.8 1649.81H1230.6L1241.4 1654.21L1249 1651.01L1260.6 1653.81ZM1179.4 1866.61L1183.8 1858.61L1196.2 1854.61L1200.6 1846.21L1208.2 1833.81L1201.4 1825.81L1192.6 1817.81L1181.8 1823.41L1169.4 1833.41L1156.6 1849.41L1171.4 1869.41L1179.4 1866.61Z" fill="#ECECEC" stroke="black" stroke-width="0.8" stroke-linecap="round" stroke-linejoin="round"/>
<path d="M1679.4 408.188L1680.6 408.588L1681.4 408.188L1683 410.988L1682.6 411.788L1683 415.388V418.188L1682.2 419.788L1681.8 418.188L1679.4 414.988L1679.8 413.388L1679 410.588V408.988L1679.4 408.188Z" fill="#ECECEC" stroke="black" stroke-width="0.8" stroke-linecap="round" stroke-linejoin="round"/>
<path d="M1555.8 1400.2L1552.2 1399.8L1551.4 1398.2V1397L1553.4 1397.4L1556.2 1399.4L1555.8 1400.2Z" fill="#ECECEC" stroke="black" stroke-width="0.8" stroke-linecap="round" stroke-linejoin="round"/>
<path d="M1570.6 1392.59L1571.4 1396.59V1399.39L1571 1400.19L1570.2 1398.99L1568.6 1397.79L1568.2 1396.99L1567 1396.59L1564.6 1394.99L1565 1394.59L1567 1395.39L1568.2 1394.99L1569 1393.39V1392.59L1570.2 1392.19L1570.6 1392.59Z" fill="#ECECEC" stroke="black" stroke-width="0.8" stroke-linecap="round" stroke-linejoin="round"/>
<path d="M1547.8 1388.59L1545.8 1386.99L1544.6 1386.59L1543.4 1385.79L1542.6 1383.39L1543 1382.19V1381.39L1543.8 1376.59L1543.4 1376.19L1544.2 1374.59L1546.2 1374.19L1547 1375.39L1546.2 1380.19L1546.6 1381.39L1547.4 1382.99L1547.8 1384.99L1548.6 1387.39L1547.8 1388.59Z" fill="#ECECEC" stroke="black" stroke-width="0.8" stroke-linecap="round" stroke-linejoin="round"/>
<path d="M14.2014 701.012L13.4014 702.212L12.6016 701.412V700.212L13.8015 699.812L14.2014 701.012Z" fill="#ECECEC" stroke="black" stroke-width="0.8" stroke-linecap="round" stroke-linejoin="round"/>
<path d="M21.7969 701.388L20.9968 701.788L19.3967 701.388L18.1968 700.188L17.7969 698.988L18.5969 697.388L20.5969 696.188H22.1968L22.9968 698.988L22.5969 700.588L21.7969 701.388Z" fill="#ECECEC" stroke="black" stroke-width="0.8" stroke-linecap="round" stroke-linejoin="round"/>
<path d="M35.8032 689L36.6033 689.4V690.2L37.4031 691L39.0032 693H39.8032L40.6033 694.2L41.4031 696.2L42.2031 697L41.0032 699L39.8032 699.4L37.8032 699L36.6033 698.6L35.4031 697.4V696.6L34.6033 696.2L34.2031 694.6L34.6033 693.8V692.6L35.4031 691L34.6033 689H35.8032Z" fill="#ECECEC" stroke="black" stroke-width="0.8" stroke-linecap="round" stroke-linejoin="round"/>
<path d="M48.2031 689L49.4031 689.4L49.8032 691.8L49.4031 693.4L47.8032 694.2L46.2031 692.6L47.0032 691L46.6033 690.2L48.2031 689Z" fill="#ECECEC" stroke="black" stroke-width="0.8" stroke-linecap="round" stroke-linejoin="round"/>
<path d="M56.1968 666.206L57.3967 665.406L59.3967 666.206L59.7969 667.006V669.806L58.1968 671.006L56.9968 671.806H55.7969L53.7969 671.006V669.006L54.5969 668.206V665.806L54.9968 665.406L56.1968 666.206Z" fill="#ECECEC" stroke="black" stroke-width="0.8" stroke-linecap="round" stroke-linejoin="round"/>
<path d="M24.1985 655.012L25.7986 654.612L26.9985 655.412H28.5986L29.7986 656.212L30.1985 657.012H28.1985L25.3984 655.812L24.5986 656.212L23.3984 658.612L22.1985 656.212L21.7986 655.812L21.3984 654.212L22.5986 653.812L24.1985 655.012Z" fill="#ECECEC" stroke="black" stroke-width="0.8" stroke-linecap="round" stroke-linejoin="round"/>
<path d="M55.3984 653.006L55.7986 653.406L55.3984 655.806L54.5986 656.206V654.206L53.7986 653.006V651.806L53.3984 650.606L54.9985 649.406L55.7986 650.206L55.3984 652.606V653.006Z" fill="#ECECEC" stroke="black" stroke-width="0.8" stroke-linecap="round" stroke-linejoin="round"/>
<path d="M10.2014 647.812L11.0015 649.012L11.4014 650.212L8.60156 651.412L7.40137 650.612L6.60156 649.812L8.20142 648.212L10.2014 647.812Z" fill="#ECECEC" stroke="black" stroke-width="0.8" stroke-linecap="round" stroke-linejoin="round"/>
<path d="M7 640.594L8.19995 640.994V641.794L9.3999 642.994L8.6001 644.594L6.19995 645.794L4.6001 647.394L1.80005 647.794V647.394V645.394L1 644.594V643.794L1.80005 642.994H2.6001L3.3999 642.194L6.19995 640.594H7Z" fill="#ECECEC" stroke="black" stroke-width="0.8" stroke-linecap="round" stroke-linejoin="round"/>
<path d="M1295.8 181.797L1296.2 182.597L1297.4 184.197L1295.8 183.797H1294.6L1293 184.597L1291.8 183.397V182.197L1293 181.797L1293.8 182.197L1295.8 181.797Z" fill="#ECECEC" stroke="black" stroke-width="0.8" stroke-linecap="round" stroke-linejoin="round"/>
<path d="M1289 183.794V184.194L1288.2 184.994L1287.8 187.394L1287.4 188.194H1286.2L1285.4 188.994L1283.4 189.794L1282.6 190.194L1280.2 191.394L1278.6 190.994L1276.6 191.394L1275.4 192.994L1274.6 191.794L1273.4 192.194H1272.6L1271.4 190.994L1269.8 192.194H1267.8L1265.8 191.394L1263.8 190.994L1262.2 189.794L1261 187.394L1259.8 186.194L1259 183.394L1258.2 182.194L1258.6 180.994L1260.6 182.194L1262.2 181.794L1263 180.594L1263.4 179.394L1264.6 178.994L1265.4 179.394L1266.2 178.594H1267L1267.4 180.194L1269.4 180.994L1269.8 181.794H1272.2L1274.6 179.794L1276.2 180.194L1277.4 179.394L1278.6 179.794L1280.2 180.594L1281 179.394H1282.2L1283.4 180.994V183.394L1284.6 182.594L1285.8 183.394L1286.2 182.994L1289 183.794Z" fill="#ECECEC" stroke="black" stroke-width="0.8" stroke-linecap="round" stroke-linejoin="round"/>
<path d="M878.599 161.794L877.798 162.994L875.798 162.194L873.798 160.994V158.994L873.398 158.594H875.798L877.398 159.794L878.199 160.594L878.599 161.794Z" fill="#ECECEC" stroke="black" stroke-width="0.8" stroke-linecap="round" stroke-linejoin="round"/>
<path d="M872.203 157.397L870.203 156.997V156.197L871.803 155.797L873.403 156.997L872.203 157.397Z" fill="#ECECEC" stroke="black" stroke-width="0.8" stroke-linecap="round" stroke-linejoin="round"/>
<path d="M1853.8 1598.21L1855.4 1601.81L1854.6 1604.21L1853 1605.81L1853.4 1607.01L1852.2 1608.21L1850.2 1609.01H1848.2L1845.8 1608.61L1845.4 1609.01L1844.2 1607.81L1845 1607.01L1845.4 1605.41L1845.8 1602.61L1846.6 1601.01L1848.6 1599.41L1849 1598.61L1849.8 1596.61L1851.4 1595.41L1853 1595.81L1853.8 1598.21Z" fill="#ECECEC" stroke="black" stroke-width="0.8" stroke-linecap="round" stroke-linejoin="round"/>
<path d="M718.6 1080.21H717.8L717 1081.41H716.2L715.8 1079.81L715 1076.61V1075.41L716.6 1073.41L717.8 1073.01L719 1071.81L720.6 1072.21L721.4 1073.81L721.8 1075.01L721.4 1076.61L720.6 1077.81L719.4 1079.41L718.6 1080.21Z" fill="#ECECEC" stroke="black" stroke-width="0.8" stroke-linecap="round" stroke-linejoin="round"/>
<path d="M737.001 1040.99L736.602 1042.19L735.801 1042.59L734.602 1042.19V1040.99L735.401 1040.59V1039.39L736.202 1038.59L737.401 1038.99L737.001 1040.99Z" fill="#ECECEC" stroke="black" stroke-width="0.8" stroke-linecap="round" stroke-linejoin="round"/>
<path d="M1619 1323.39L1617.8 1324.19H1615.8L1614.2 1324.99H1612.6V1324.19H1614.6L1616.2 1323.79L1617.8 1322.59H1618.6L1619 1323.39Z" fill="#ECECEC" stroke="black" stroke-width="0.8" stroke-linecap="round" stroke-linejoin="round"/>
<path d="M1617 1322.21L1616.2 1322.61H1614.6V1321.81L1617 1322.21Z" fill="#ECECEC" stroke="black" stroke-width="0.8" stroke-linecap="round" stroke-linejoin="round"/>
<path d="M1824.6 1201.01L1826.2 1202.61L1825.4 1203.81L1824.6 1202.61L1823.4 1201.81L1824.2 1199.81L1824.6 1201.01Z" fill="#ECECEC" stroke="black" stroke-width="0.8" stroke-linecap="round" stroke-linejoin="round"/>
<path d="M176.603 368.6L175.403 370.6L173.803 372.6L172.603 371H171.003L170.203 370.2L171.003 369L172.603 369.4L174.203 367.8L175.403 367L176.203 367.4L176.603 368.6Z" fill="#ECECEC" stroke="black" stroke-width="0.8" stroke-linecap="round" stroke-linejoin="round"/>
<path d="M230.997 359.4V361.4L231.797 363L230.997 365.8L231.397 367L229.797 368.6L227.797 369.4L226.997 370.2L224.597 369.4L222.597 367.4L221.797 365.8V363.4L224.197 361.8L224.597 359.8V359L226.997 359.4H228.597L229.797 359.8L230.997 359.4Z" fill="#ECECEC" stroke="black" stroke-width="0.8" stroke-linecap="round" stroke-linejoin="round"/>
<path d="M191.401 362.597H190.602L189.401 361.797L188.602 360.597L189.001 358.997L189.401 357.797H190.602H191.802L193.802 359.397L194.201 360.597L192.201 362.597H191.401Z" fill="#ECECEC" stroke="black" stroke-width="0.8" stroke-linecap="round" stroke-linejoin="round"/>
<path d="M215.803 348.603V349.403L213.403 350.603L211.803 352.603L210.603 353.403V355.003L209.003 357.803L208.603 359.403L206.603 361.803L206.203 362.603H205.403L203.003 363.403L202.603 363.003L202.203 361.403L201.003 359.803L200.603 359.003L199.803 357.803V356.603L198.203 354.203L200.203 353.003L201.403 353.803L203.803 353.003H205.403L207.403 352.203L209.403 350.603V349.803L211.803 348.603H214.203L215.403 348.203L215.803 348.603Z" fill="#ECECEC" stroke="black" stroke-width="0.8" stroke-linecap="round" stroke-linejoin="round"/>
<path d="M256.6 359.797L255.4 361.397L253.8 361.797L252.6 361.397H251V360.597H252.2L254.6 359.797L256.2 358.597L257.4 357.397L257.8 355.397L258.2 354.197L259 352.197L260.2 350.597L261.4 348.197L262.2 344.997L263 344.197L264.6 343.797L265.8 344.997L266.2 346.997L265.8 348.997L265.4 350.997V352.997L265 353.397L263.8 356.197L262.6 357.397L260.2 357.797L257.4 358.997L256.6 359.797Z" fill="#ECECEC" stroke="black" stroke-width="0.8" stroke-linecap="round" stroke-linejoin="round"/>
<path d="M178.2 341.806L179.4 341.406L180.2 342.606L181 344.606L180.2 345.806L180.6 347.406L178.2 351.406L177.8 351.006L177.4 349.406L175.8 345.806L175.4 344.606L175 343.806L175.8 342.206L177 341.406L178.2 341.806Z" fill="#ECECEC" stroke="black" stroke-width="0.8" stroke-linecap="round" stroke-linejoin="round"/>
<path d="M274.599 333.806V335.406L273.799 337.406L270.999 339.406L268.999 339.806L267.398 341.806L265.398 341.006V340.606L266.198 339.006V337.406L266.999 336.206L268.198 335.406H269.398L270.599 334.206H272.599L272.999 333.806L273.799 331.806L274.599 331.406L275.398 332.206L274.599 333.806Z" fill="#ECECEC" stroke="black" stroke-width="0.8" stroke-linecap="round" stroke-linejoin="round"/>
<path d="M1583.8 1407.41L1584.6 1408.61L1586.6 1409.41V1410.61L1585.8 1411.41L1586.2 1412.21L1585 1414.61L1585.4 1415.41L1584.2 1415.81L1583.4 1414.61V1413.41L1584.2 1412.61L1583.4 1409.81L1583 1409.41L1582.6 1408.61L1583.8 1407.41Z" fill="#ECECEC" stroke="black" stroke-width="0.8" stroke-linecap="round" stroke-linejoin="round"/>
<path d="M1803 1618.19H1804.6L1806.2 1618.99L1807.4 1620.19V1621.39L1807.8 1623.39L1809 1624.19L1809.8 1624.99L1810.2 1625.79L1809.4 1628.19L1809 1629.79L1808.2 1630.59L1806.6 1630.99H1803L1802.2 1630.19L1799 1628.59L1797.8 1626.59V1625.39L1796.6 1622.99L1797 1621.39L1797.8 1620.59L1798.6 1618.99H1799L1801 1618.19H1803Z" fill="#ECECEC" stroke="black" stroke-width="0.8" stroke-linecap="round" stroke-linejoin="round"/>
</g>
<defs>
<clipPath id="clip0_543_82013">
<rect width="1961" height="1978" fill="white"/>
</clipPath>
</defs>
</svg>
