<svg width="1909" height="1680" viewBox="0 0 1909 1680" fill="none" xmlns="http://www.w3.org/2000/svg">
<g clip-path="url(#clip0_543_81539)">
<path d="M884.205 1530.99L899.004 1539.79L912.205 1536.19L931.805 1531.39L943.004 1532.99L925.004 1563.39L911.805 1571.79L895.805 1592.59L893.405 1585.39L867.004 1602.99L863.805 1601.79L851.805 1600.99L853.805 1579.39L861.805 1562.59L864.205 1540.19L872.205 1528.59L884.205 1530.99Z" fill="#ECECEC" stroke="black" stroke-width="0.8" stroke-linecap="round" stroke-linejoin="round"/>
<path d="M1086.2 837.381L1091 857.381L1107 847.781L1112.6 858.581L1121.8 868.581L1117.4 880.181L1118.2 902.181L1119 914.981L1124.2 918.181L1125.8 940.181L1121 953.381L1124.2 970.581L1145.8 984.181L1158.6 996.181L1171.4 1007.38L1167 1013.78L1176.2 1029.78L1178.2 1057.78L1188.6 1052.18L1194.6 1062.98L1201 1059.38L1198.2 1086.58L1209.8 1102.18L1217.4 1111.78L1228.6 1132.58V1153.38L1224.6 1168.18L1217.4 1183.78L1220.2 1205.78L1210.2 1228.58L1201.8 1240.58L1186.6 1263.38L1180.6 1278.18L1168.2 1296.58L1148.2 1319.78L1126.2 1332.58L1108.6 1352.18L1095.4 1364.98L1077.8 1386.98L1063 1399.78L1047.4 1418.98L1035 1436.58L1031.8 1444.98L1014.6 1453.78L990.2 1454.58L965 1465.38L949.8 1474.98L930.6 1486.18L919.8 1474.58L909.4 1470.18L919.8 1456.98L905.8 1461.78L877 1480.18L862.6 1473.38L853 1469.38L841.8 1467.38L825.4 1460.18L820.2 1444.18L826.2 1424.98L827.8 1411.78L822.2 1401.38L803.4 1398.58L816.2 1385.78L819.8 1366.98L801 1384.58L779.8 1389.38L797.8 1375.38L807.8 1360.58L821.8 1347.78L828.2 1328.98L801 1350.58L783.8 1359.38L766.6 1379.78L754.6 1369.38L761.4 1355.78L755.8 1336.98L748.6 1327.38L755 1321.38L733.8 1305.78L718.6 1305.38L702.6 1292.58L663 1294.98L631.4 1304.18L603.8 1312.98L583.8 1311.38L555.8 1324.58L534.6 1330.18L525.4 1343.78L513.4 1354.18L494.6 1354.98L480.2 1356.98L463.4 1352.58L446.6 1355.38L431.4 1356.58L413.4 1370.18L407.4 1368.98L393.8 1376.18L380.2 1384.18L365 1383.38H351L334.6 1366.98L325 1362.18L331 1347.38L342.6 1343.78L348.6 1338.18L351 1328.98L360.2 1310.98L363 1295.78L360.2 1269.78L361 1254.98L366.6 1240.58L363 1223.78L364.2 1216.18L357.4 1205.78L360.2 1185.78L352.6 1165.38L352.2 1154.58L359.4 1165.78L357.4 1141.78L366.6 1149.38L371 1159.38L373.4 1146.18L367 1125.78L366.6 1117.78L363.4 1110.18L368.6 1095.38L374.6 1088.98L379.8 1076.18L380.2 1060.98L392.6 1042.58L391 1062.18L403.4 1044.58L423 1035.78L435.8 1024.98L454.6 1015.38L465 1013.38L470.6 1016.58L489.8 1006.98L503.8 1004.18L508.2 998.581L514.2 996.181L526.6 996.981L551.4 989.381L565.4 977.781L573.4 964.181L589 951.381L591.8 940.981L594.6 926.981L614.2 904.981L619.8 927.381L630.2 922.181L624.2 910.181L633.4 897.781L642.2 903.381L648.2 883.781L662.2 870.981L669.4 860.981L681 856.581L682.6 849.381L691.8 852.181L693.4 845.781L703.8 842.181L715 838.581L729.8 850.581L740.2 865.781H754.2L768.2 868.181L765.4 854.181L779.4 833.781L790.2 826.981L787.8 820.581L799.4 805.781L814.2 796.581L825 799.781L844.6 794.981L845.8 781.781L830.2 773.381L842.6 769.781L857 776.181L867.8 786.581L885.8 792.981L892.6 790.581L905.8 798.581L919.8 790.981L927.8 793.381L933.8 788.181L942.6 800.981L934.6 814.981L924.6 825.381L917 826.181L918.2 836.181L909.4 848.981L899.4 861.781L900.2 868.981L915.4 883.381L931.4 891.381L941.4 900.181L954.6 915.381H961L971.4 922.181L973.4 930.181L993 938.581L1009.4 929.781L1016.6 916.181L1023.4 904.581L1028.6 890.581L1039 870.181L1038.2 857.781L1041 850.181L1040.6 835.781L1046.2 816.181L1051.4 810.981L1049 802.581L1056.2 788.981L1062.2 774.981L1063.8 767.381L1073 757.781L1078.2 770.581L1077.8 786.581L1083 789.781L1082.6 800.581L1089 813.381L1088.6 828.181L1086.2 837.381Z" fill="#ECECEC" stroke="black" stroke-width="0.8" stroke-linecap="round" stroke-linejoin="round"/>
<path d="M444.602 367.781L453.402 358.181L471.802 343.781L471.402 356.581L471.001 372.981L460.202 372.181L455.802 380.981L444.602 367.781Z" fill="#ECECEC" stroke="black" stroke-width="0.8" stroke-linecap="round" stroke-linejoin="round"/>
<path d="M582.203 746.987L572.603 747.387L544.203 729.387L565.803 724.188L577.003 732.188L584.203 739.787L582.203 746.987Z" fill="#ECECEC" stroke="black" stroke-width="0.8" stroke-linecap="round" stroke-linejoin="round"/>
<path d="M681.403 712.188L683.403 717.387L683.003 724.987L666.603 744.188L646.603 749.787L644.203 746.987L647.003 738.188L658.203 722.587L681.403 712.188Z" fill="#ECECEC" stroke="black" stroke-width="0.8" stroke-linecap="round" stroke-linejoin="round"/>
<path d="M523 691.781L530.6 698.581L545 696.581L549.8 707.381L523 712.581L507.4 716.181L495 715.781L503.8 700.981H516.6L523 691.781Z" fill="#ECECEC" stroke="black" stroke-width="0.8" stroke-linecap="round" stroke-linejoin="round"/>
<path d="M636.206 691.781L631.806 706.181L597.406 713.381L567.406 710.181L568.206 700.581L586.606 695.381L600.206 702.981L615.406 700.981L636.206 691.781Z" fill="#ECECEC" stroke="black" stroke-width="0.8" stroke-linecap="round" stroke-linejoin="round"/>
<path d="M315.405 657.806L358.604 660.606L364.205 649.806L405.405 662.206L412.604 679.006L446.205 683.806L473.004 699.006L446.604 708.606L422.205 698.206L401.805 699.006L378.604 697.006L357.805 692.606L332.205 682.606L315.805 680.206L306.205 683.406L265.405 672.606L262.205 661.806L241.805 659.806L258.604 635.406L285.805 637.006L303.405 647.006L313.004 649.006L315.405 657.806Z" fill="#ECECEC" stroke="black" stroke-width="0.8" stroke-linecap="round" stroke-linejoin="round"/>
<path d="M907.006 643.381L894.206 660.981L893.406 641.781L897.806 632.581L903.006 623.781L907.806 631.381L907.006 643.381Z" fill="#ECECEC" stroke="black" stroke-width="0.8" stroke-linecap="round" stroke-linejoin="round"/>
<path d="M741.406 572.587L732.606 581.387L717.406 576.587L713.406 565.387L736.206 564.188L741.406 572.587Z" fill="#ECECEC" stroke="black" stroke-width="0.8" stroke-linecap="round" stroke-linejoin="round"/>
<path d="M815.003 563.381L822.203 582.981L803.803 572.181L785.003 570.181L771.803 571.781L756.203 570.981L762.203 556.981L790.203 555.781L815.003 563.381Z" fill="#ECECEC" stroke="black" stroke-width="0.8" stroke-linecap="round" stroke-linejoin="round"/>
<path d="M1054.2 550.606L1050.2 634.206L1043.8 718.206L1025.4 697.006L1003 691.806L997.004 699.006L968.205 699.806L979.405 679.006L994.205 671.806L990.205 643.806L981.004 622.606L938.205 600.606L919.805 598.606L886.604 574.606L879.405 587.406L870.604 589.406L866.205 580.206L866.604 569.006L849.805 556.206L874.604 547.006L890.604 547.406L889.004 540.606H855.805L847.004 525.406L827.004 520.606L817.805 507.806L848.205 501.806L859.805 493.406L896.205 503.806L899.805 513.406L905.004 555.006L927.805 570.206L947.805 543.006L974.205 527.806H994.205L1013.4 536.606L1029.8 545.806L1054.2 550.606Z" fill="#ECECEC" stroke="black" stroke-width="0.8" stroke-linecap="round" stroke-linejoin="round"/>
<path d="M697.805 447.381L679.805 472.981L662.604 477.781L641.004 472.981L603.004 474.181L583.405 477.781L580.205 497.381L600.205 520.181L612.604 508.581L655.004 499.781L653.004 511.381L643.004 507.781L633.004 522.981L612.604 532.981L633.004 565.781L628.604 574.581L647.805 604.181L646.604 620.981L634.205 628.581L625.805 619.381L637.805 598.581L615.004 608.581L609.805 601.381L613.004 591.381L597.405 576.181L600.205 551.381L584.604 558.981L585.405 588.981L584.604 625.781L569.805 629.381L560.604 622.181L568.205 598.581L565.805 573.781L556.205 573.381L549.805 555.781L559.805 538.981L563.405 518.581L575.405 479.781L579.805 469.381L599.004 450.181L617.004 457.781L645.405 461.381L671.405 460.181L693.805 441.781L697.805 447.381Z" fill="#ECECEC" stroke="black" stroke-width="0.8" stroke-linecap="round" stroke-linejoin="round"/>
<path d="M776.2 454.988L775 477.388L763.4 474.588L759.8 490.188L769 503.787L762.6 506.988L753.8 490.588L747 457.787L751 437.388L758.2 428.188L760.2 442.188L773.8 444.188L776.2 454.988Z" fill="#ECECEC" stroke="black" stroke-width="0.8" stroke-linecap="round" stroke-linejoin="round"/>
<path d="M344.202 432.206L348.202 449.406L363.802 464.206L378.602 459.006L393.001 460.606L406.202 447.806L417.001 445.406L438.602 452.606L457.001 447.006L467.402 411.406L475.802 402.606L482.602 373.406H508.602L528.602 377.806L516.602 401.006L534.202 425.006L530.602 437.006L556.202 460.606L529.402 463.806L522.202 481.406L523.001 504.606L501.001 522.206L499.402 547.806L489.402 587.006L486.602 577.806L460.202 589.406L451.802 573.806L435.802 572.206L424.602 563.806L397.402 573.406L389.802 560.606L374.602 562.206L356.202 559.406L353.802 525.006L342.602 517.806L331.802 495.806L328.602 473.406L331.001 449.406L344.202 432.206Z" fill="#ECECEC" stroke="black" stroke-width="0.8" stroke-linecap="round" stroke-linejoin="round"/>
<path d="M253.006 634.2L228.206 634.6L210.206 613.4L181.806 592.2L172.606 576.6L156.206 555.8L145.406 536.6L128.606 500.6L109.006 479L102.206 457L93.4062 437L72.606 421L60.2061 399L42.606 384.6L17.8062 356.2L15.4062 343L29.8062 344.2L65.4062 349L86.2061 374.2L104.606 391.8L117.406 402.2L139.406 429.8L162.606 430.2L181.806 447.8L195.406 469.4L212.606 481.4L203.406 502.2L216.606 511L224.606 511.8L228.206 529.8L235.806 543.8L252.206 546.2L262.606 562.6L255.806 594.6L253.006 634.2Z" fill="#ECECEC" stroke="black" stroke-width="0.8" stroke-linecap="round" stroke-linejoin="round"/>
<path d="M528.603 377.781L508.603 373.381H482.603L475.803 402.581L467.403 411.381L457.003 446.981L438.603 452.581L417.003 445.381L406.203 447.781L393.003 460.581L378.603 458.981L363.803 464.181L348.203 449.381L344.203 432.181L361.003 440.981L378.203 436.181L382.203 414.581L391.803 409.781L419.003 404.181L434.203 383.781L444.603 367.781L455.803 380.981L460.203 372.181L471.003 372.981L471.403 356.581L471.803 343.781L488.203 326.181L498.603 306.181L507.803 305.781L520.203 318.981L521.803 330.181L537.003 337.381L556.203 344.981L555.403 354.981L540.203 356.181L544.603 368.981L528.603 377.781Z" fill="#ECECEC" stroke="black" stroke-width="0.8" stroke-linecap="round" stroke-linejoin="round"/>
<path d="M714.205 267.806L717.805 285.006L720.205 299.406L713.805 322.606L703.805 296.606L694.205 309.806L702.604 328.606L697.004 340.606L669.405 325.806L661.805 307.006L667.805 295.006L652.604 282.606L646.205 293.406L635.805 292.206L619.805 306.606L615.805 299.006L623.004 277.406L636.604 270.206L648.205 260.606L657.004 272.206L673.805 265.406L676.604 253.806L692.604 253.006L689.405 233.406L709.004 245.406L711.805 258.206L714.205 267.806Z" fill="#ECECEC" stroke="black" stroke-width="0.8" stroke-linecap="round" stroke-linejoin="round"/>
<path d="M655.8 219.806L648.6 228.206L643 244.606L636.6 252.206L621 234.606L625 227.406L630.2 220.206L631 204.606L643.4 203.006L641.4 220.206L655.8 195.406V219.806Z" fill="#ECECEC" stroke="black" stroke-width="0.8" stroke-linecap="round" stroke-linejoin="round"/>
<path d="M534.603 244.581L506.203 268.981L515.803 250.981L531.003 234.981L543.003 217.381L552.203 191.781L558.603 212.981L544.603 226.981L534.603 244.581Z" fill="#ECECEC" stroke="black" stroke-width="0.8" stroke-linecap="round" stroke-linejoin="round"/>
<path d="M604.602 178.594L619.001 186.594H633.001L633.802 196.994L624.602 208.194L611.001 215.794L609.001 203.794L609.402 190.594L604.602 178.594Z" fill="#ECECEC" stroke="black" stroke-width="0.8" stroke-linecap="round" stroke-linejoin="round"/>
<path d="M685.003 171.406L694.603 200.206L676.603 193.406L677.803 202.206L685.003 217.806L674.603 223.806L672.203 205.406L665.003 204.206L660.203 188.606L673.403 190.606L672.203 181.006L656.203 161.406L677.803 161.806L685.003 171.406Z" fill="#ECECEC" stroke="black" stroke-width="0.8" stroke-linecap="round" stroke-linejoin="round"/>
<path d="M593.001 148.188L589.402 170.588L578.602 157.787L564.602 138.188L583.802 138.988L593.001 148.188Z" fill="#ECECEC" stroke="black" stroke-width="0.8" stroke-linecap="round" stroke-linejoin="round"/>
<path d="M567.003 8.59375L582.203 16.1937L587.803 9.3938L591.003 15.7937L589.403 26.5938L599.803 44.9938L597.403 66.1937L585.803 74.5938L585.403 95.3938L593.403 115.794L605.403 118.594L615.003 115.794L645.003 129.794L644.603 143.794L653.003 150.194L651.803 161.794L633.003 149.394L623.003 135.794L618.203 145.394L602.203 129.794L582.203 133.794L570.203 128.194L569.803 117.394L576.203 110.994L568.603 104.994L567.003 114.194L553.803 99.3938L548.603 88.1937L544.203 63.7937L554.603 72.1937L550.203 31.7937L553.403 8.59375H567.003Z" fill="#ECECEC" stroke="black" stroke-width="0.8" stroke-linecap="round" stroke-linejoin="round"/>
<path d="M1384.6 659.006L1378.2 661.806L1369 651.806L1360.2 635.406L1357 615.806L1360.2 613.406L1362.2 621.006L1368.6 627.006L1378.2 643.006L1388.2 651.806L1384.6 659.006Z" fill="#ECECEC" stroke="black" stroke-width="0.8" stroke-linecap="round" stroke-linejoin="round"/>
<path d="M1299.01 624.594L1287.01 626.594L1283.01 633.794L1270.21 640.194L1258.21 646.194H1245.81L1227.81 638.594L1215.41 631.394L1217.81 623.394L1237.81 627.394L1250.61 625.394L1254.61 612.994L1258.21 612.194L1259.41 625.794L1272.21 624.194L1279.41 615.394L1292.61 606.194L1291.01 590.994L1304.61 590.594L1309.01 594.594L1307.41 608.994L1299.01 624.594Z" fill="#ECECEC" stroke="black" stroke-width="0.8" stroke-linecap="round" stroke-linejoin="round"/>
<path d="M1043.8 718.194L1050.2 634.194L1054.2 550.594L1092.6 568.194L1133.8 582.994L1148.6 596.194L1160.6 608.994L1163 624.194L1199.8 640.194L1204.2 653.794L1183.4 656.594L1187 673.794L1205.8 690.594L1217.8 717.794L1231 716.994L1228.6 728.194L1245.8 732.594L1238.6 737.394L1261.4 748.194L1257.8 755.794L1242.6 757.394L1237.8 750.994L1219 747.794L1196.6 744.194L1180.6 727.794L1169.4 713.394L1159.4 690.994L1131 679.794L1111.4 686.994L1096.6 695.794L1097.8 714.594L1079.4 723.394L1067 718.994L1043.8 718.194Z" fill="#ECECEC" stroke="black" stroke-width="0.8" stroke-linecap="round" stroke-linejoin="round"/>
<path d="M1326.6 599.387L1319.4 606.188L1315.8 590.987L1311.4 581.387L1301.4 572.987L1289 561.787L1273 554.188L1279.4 548.188L1291.4 555.387L1299 560.987L1308.2 566.987L1316.6 577.787L1325 586.188L1326.6 599.387Z" fill="#ECECEC" stroke="black" stroke-width="0.8" stroke-linecap="round" stroke-linejoin="round"/>
<path d="M683.006 724.987L683.406 717.387L681.406 712.188L684.606 706.188L704.206 700.587L720.206 699.387L727.406 696.188L735.806 699.387L727.006 706.587L702.606 717.787L683.006 724.987Z" fill="#ECECEC" stroke="black" stroke-width="0.8" stroke-linecap="round" stroke-linejoin="round"/>
<path d="M1457 1534.21L1453.8 1544.61L1476.2 1534.21L1474.2 1545.01L1465.8 1555.81L1449 1567.41L1420.6 1586.21L1401.8 1596.61L1399.4 1608.61L1383.4 1609.01L1358.2 1618.61L1339.4 1635.01L1306.6 1660.61L1281.4 1671.81L1265.4 1679.01L1247 1678.61L1241 1670.21L1220.6 1668.61L1224.6 1659.01L1250.6 1640.61L1296.2 1615.41L1313.4 1610.61L1335.8 1601.01L1363.8 1587.81L1386.6 1574.61L1410.6 1555.81L1423 1549.41L1437 1535.01L1460.2 1523.41L1457 1534.21Z" fill="#ECECEC" stroke="black" stroke-width="0.8" stroke-linecap="round" stroke-linejoin="round"/>
<path d="M1573 1412.19L1571.4 1439.39L1583 1421.79L1588.2 1428.99L1578.6 1448.19L1590.2 1456.59L1603 1458.59L1621.8 1448.99L1630.6 1451.79L1609.8 1474.59L1593 1489.39L1577.4 1488.99L1566.2 1496.59L1560.2 1507.79L1553.8 1512.19L1535.4 1526.19L1511.8 1543.39L1487.8 1553.79L1489.8 1546.99L1483.8 1543.39L1511.4 1522.59L1515 1508.19L1499.8 1498.19L1507 1488.99L1528.2 1480.19L1545 1460.19L1555 1443.79L1557.4 1426.59L1560.6 1422.19L1557 1411.39L1554.2 1388.99L1555.8 1370.59L1564.6 1368.59L1568.2 1382.99L1581 1389.39L1573 1412.19Z" fill="#ECECEC" stroke="black" stroke-width="0.8" stroke-linecap="round" stroke-linejoin="round"/>
<path d="M1549.8 347.381L1549 348.581L1547 348.181V347.381L1549 345.781L1549.8 347.381Z" fill="#ECECEC" stroke="black" stroke-width="0.8" stroke-linecap="round" stroke-linejoin="round"/>
<path d="M1437.01 305H1438.61L1439.81 305.8L1440.21 307.4L1439.41 307.8L1439.81 308.6L1439.41 309.4H1437.01L1436.21 308.6V307.8L1435.41 306.6V305.4L1437.01 305Z" fill="#ECECEC" stroke="black" stroke-width="0.8" stroke-linecap="round" stroke-linejoin="round"/>
<path d="M978.205 238.581L978.604 239.781H977.405L976.205 241.781L975.805 241.381L977.004 238.181L978.604 237.781L978.205 238.581Z" fill="#ECECEC" stroke="black" stroke-width="0.8" stroke-linecap="round" stroke-linejoin="round"/>
<path d="M1115.4 138.606L1115 140.206V142.606L1114.6 143.806H1113.4L1112.6 142.606L1112.2 140.606V138.606L1114.6 136.606L1115 135.806L1115.4 133.806L1116.2 133.406L1116.6 134.206L1118.2 134.606L1117.4 136.606L1115.4 138.606Z" fill="#ECECEC" stroke="black" stroke-width="0.8" stroke-linecap="round" stroke-linejoin="round"/>
<path d="M1727.41 300.594L1731.41 302.194H1730.61L1727.41 300.594Z" fill="#ECECEC" stroke="black" stroke-width="0.8" stroke-linecap="round" stroke-linejoin="round"/>
<path d="M1122.2 121.006L1121.8 121.406L1121 121.006L1120.6 120.206L1122.6 119.406L1123.4 120.206L1122.2 121.006Z" fill="#ECECEC" stroke="black" stroke-width="0.8" stroke-linecap="round" stroke-linejoin="round"/>
<path d="M1128.2 100.6H1127.4L1126.2 98.2L1126.6 97H1127.8V98.2L1128.6 99L1128.2 100.6Z" fill="#ECECEC" stroke="black" stroke-width="0.8" stroke-linecap="round" stroke-linejoin="round"/>
<path d="M1130.2 94.1813L1129.4 94.9813L1129.8 96.1813H1128.2V93.3813L1128.6 92.5813L1130.2 91.7812L1129.8 93.7812L1130.2 94.1813Z" fill="#ECECEC" stroke="black" stroke-width="0.8" stroke-linecap="round" stroke-linejoin="round"/>
<path d="M1122.6 64.2062H1121.4L1121 63.4062H1122.6V64.2062Z" fill="#ECECEC" stroke="black" stroke-width="0.8" stroke-linecap="round" stroke-linejoin="round"/>
<path d="M1115 20.2L1114.6 19.4V17.4L1115.8 17L1116.6 18.2L1115 20.2Z" fill="#ECECEC" stroke="black" stroke-width="0.8" stroke-linecap="round" stroke-linejoin="round"/>
<path d="M1110.2 3L1108.6 2.59998V1.40002L1109.4 1L1110.2 1.79993V3Z" fill="#ECECEC" stroke="black" stroke-width="0.8" stroke-linecap="round" stroke-linejoin="round"/>
<path d="M1573 1064.19L1572.2 1064.59L1571.4 1066.19L1569.8 1065.39L1570.6 1063.39L1571 1062.59L1572.2 1062.99L1573 1064.19Z" fill="#ECECEC" stroke="black" stroke-width="0.8" stroke-linecap="round" stroke-linejoin="round"/>
<path d="M1590.6 1033L1590.2 1033.4L1591 1035H1592.2L1593.8 1034.2L1593.4 1036.6L1592.6 1037.4L1592.2 1039L1590.2 1040.2L1588.6 1039.4V1039L1587.4 1037.8L1587.8 1037L1587 1036.2L1587.4 1034.6L1587 1033H1587.4L1589 1033.4L1590.6 1033Z" fill="#ECECEC" stroke="black" stroke-width="0.8" stroke-linecap="round" stroke-linejoin="round"/>
<path d="M1579.8 1015.79L1579 1017.79V1019.39L1578.2 1020.59L1579.4 1021.39L1580.2 1021.79L1580.6 1022.59L1580.2 1023.39L1581.4 1024.99H1580.6L1579.8 1026.99L1579 1027.79L1577.8 1027.39L1577 1026.19L1576.6 1025.39L1574.2 1024.99L1573 1022.99V1022.19L1572.6 1020.99H1573.8L1575 1020.19L1576.6 1018.99L1577 1017.79L1575.4 1016.99L1573.8 1017.39L1574.6 1015.79L1575.8 1015.39L1576.6 1015.79L1578.2 1014.59L1579.8 1015.79Z" fill="#ECECEC" stroke="black" stroke-width="0.8" stroke-linecap="round" stroke-linejoin="round"/>
<path d="M1566.2 1009.41L1565 1011.81L1564.6 1013.01H1565.8L1563.8 1015.01L1563 1015.81L1562.6 1015.01L1563.8 1013.41L1564.6 1011.41L1566.2 1009.41Z" fill="#ECECEC" stroke="black" stroke-width="0.8" stroke-linecap="round" stroke-linejoin="round"/>
<path d="M1566.21 1009.38L1565.41 1007.78H1567.01L1567.41 1009.38H1566.21Z" fill="#ECECEC" stroke="black" stroke-width="0.8" stroke-linecap="round" stroke-linejoin="round"/>
<path d="M1510.6 999.781L1511.4 1000.18L1513.4 1003.78L1514.6 1004.98L1515.8 1004.58L1516.6 1003.38L1520.2 1005.38L1521.4 1007.38L1524.2 1009.78L1525.4 1011.38L1525.8 1012.58L1527.4 1014.18L1527.8 1014.98H1528.6L1529.8 1016.18L1533.4 1016.98L1533.8 1018.18V1019.78L1535 1021.38L1536.6 1021.78L1535.4 1023.78L1535.8 1024.58L1537.4 1026.58H1537.8L1539.4 1028.58L1539 1030.18L1541.8 1030.98L1543.4 1032.98H1544.6L1545.8 1033.78L1547.8 1035.38L1547.4 1036.58H1548.6L1550.2 1038.58L1552.6 1040.18V1040.98L1553.8 1041.38L1555 1042.58V1043.38L1556.2 1045.78L1557.8 1047.38L1558.2 1046.98L1559.8 1049.38L1561.8 1049.78L1563 1050.98V1052.58L1563.4 1054.18L1563.8 1054.58L1563 1056.98L1560.2 1058.58L1559.8 1057.38L1558.6 1057.78L1557.4 1058.98L1555 1055.78H1553.4L1553 1054.98H1552.2L1551.4 1056.18L1547.8 1052.58H1547L1545.4 1050.58L1545.8 1047.38H1544.6H1543L1541.8 1046.58L1541.4 1045.78L1540.6 1045.38H1539.4V1044.18L1538.6 1042.18L1537 1042.58L1533.8 1040.58L1533.4 1039.78V1038.58L1532.2 1039.38L1529.8 1038.18L1529.4 1036.58L1527.8 1035.38L1527 1033.38L1525 1032.98L1525.8 1032.18L1524.6 1030.98L1523.4 1030.58L1522.2 1027.78V1026.18L1521.4 1024.98H1520.2L1519.4 1022.58L1519.8 1021.78L1517 1020.18L1515.8 1019.38L1514.2 1016.98L1515.4 1016.18L1514.6 1015.38L1513.8 1014.18V1012.18L1511.8 1010.98V1008.58L1511 1007.38H1512.2L1512.6 1006.18L1512.2 1005.38H1509.8L1509 1004.18L1511 1001.38L1509.8 1000.18L1510.6 999.781Z" fill="#ECECEC" stroke="black" stroke-width="0.8" stroke-linecap="round" stroke-linejoin="round"/>
<path d="M1515 1001L1513.8 1000.6L1514.2 999L1515 1001Z" fill="#ECECEC" stroke="black" stroke-width="0.8" stroke-linecap="round" stroke-linejoin="round"/>
<path d="M1505.8 991.381L1505 992.181L1504.6 990.581L1505.4 989.781L1505.8 991.381Z" fill="#ECECEC" stroke="black" stroke-width="0.8" stroke-linecap="round" stroke-linejoin="round"/>
<path d="M1644.2 497.794H1643.4L1643 496.594H1644.2V497.794Z" fill="#ECECEC" stroke="black" stroke-width="0.8" stroke-linecap="round" stroke-linejoin="round"/>
<path d="M903.006 288.981L902.206 290.581L902.606 290.981L901.806 293.381L902.206 294.181L900.206 294.981L899.406 292.181L900.606 291.381L899.806 290.581L901.006 288.181L902.206 287.781L903.006 288.981Z" fill="#ECECEC" stroke="black" stroke-width="0.8" stroke-linecap="round" stroke-linejoin="round"/>
<path d="M1619.4 781.406L1620.6 782.206L1620.2 783.806H1621.4V784.606H1618.2L1617 782.606L1617.8 781.406H1619.4Z" fill="#ECECEC" stroke="black" stroke-width="0.8" stroke-linecap="round" stroke-linejoin="round"/>
<path d="M1466.2 778.987H1467L1471 782.188L1473 783.387L1476.6 786.188L1476.2 787.387H1475.4L1474.6 788.188L1473.8 786.987H1473.4L1472.6 786.188L1472.2 784.587L1470.6 784.188V782.987L1469.4 782.587L1469 782.987H1468.2L1464.6 781.387L1463.8 779.787L1465 778.188L1466.2 778.987Z" fill="#ECECEC" stroke="black" stroke-width="0.8" stroke-linecap="round" stroke-linejoin="round"/>
<path d="M1613.8 772.981L1613 774.181L1611.8 773.381V772.581L1613 771.781L1613.8 772.981Z" fill="#ECECEC" stroke="black" stroke-width="0.8" stroke-linecap="round" stroke-linejoin="round"/>
<path d="M1604.6 757.406L1605 757.806H1606.2L1605.8 759.406L1603.8 760.206H1602.6L1601 760.606L1599.4 763.006L1599 761.806L1597.8 762.206L1597 761.406V760.206L1599 759.806V759.006L1600.2 757.406L1603 757.806L1604.6 757.406Z" fill="#ECECEC" stroke="black" stroke-width="0.8" stroke-linecap="round" stroke-linejoin="round"/>
<path d="M1499.4 746.181L1500.6 745.781L1503 746.981L1505 748.981L1506.2 750.181H1507L1507.8 750.981H1508.6L1509.8 752.181L1511 751.781L1512.6 752.181L1513.4 752.981H1515L1516.2 752.581L1517 753.781L1517.8 756.981L1519 758.181V760.181L1518.2 760.981L1518.6 762.181L1517 761.381L1515.8 762.181L1514.6 761.781L1512.6 760.581H1511.8L1509.4 759.781L1507.8 759.381L1507 758.181L1505.8 757.381L1504.6 756.981L1503.8 755.781L1502.2 754.981L1503 753.381L1502.6 751.781V750.181L1501.8 749.781L1499.4 748.981L1498.2 749.381L1497.8 748.581L1498.2 747.381L1498.6 746.181H1499.4Z" fill="#ECECEC" stroke="black" stroke-width="0.8" stroke-linecap="round" stroke-linejoin="round"/>
<path d="M1515.4 732.594L1515 733.394V736.194L1514.2 735.394V733.394L1515.4 732.594Z" fill="#ECECEC" stroke="black" stroke-width="0.8" stroke-linecap="round" stroke-linejoin="round"/>
<path d="M1503.8 725.406L1505 729.006L1505.8 730.606V732.206L1506.2 734.206L1505.4 735.406L1503.8 732.606L1503.4 733.806L1502.2 731.806L1502.6 727.806L1503 727.006V725.806L1503.8 725.406Z" fill="#ECECEC" stroke="black" stroke-width="0.8" stroke-linecap="round" stroke-linejoin="round"/>
<path d="M1470.2 726.206H1471.4L1472.6 725.806L1474.2 726.206L1474.6 725.806H1476.6H1479.8L1480.6 727.006L1481.8 727.406L1482.6 728.606H1483.4L1484.2 729.006L1485.8 730.606V733.006H1486.6L1488.2 733.806L1488.6 735.006V737.406L1488.2 737.806L1485.4 738.606L1484.6 739.006L1483 738.606L1481.4 737.806H1479.8L1479.4 737.006L1477.4 735.806H1475L1473 736.206H1471L1469 735.806L1467.8 735.006L1466.6 735.406L1465.4 733.806L1464.2 733.006L1463 729.806L1462.2 728.206L1463 727.406L1462.6 726.606V723.806L1463 722.606L1465.4 721.406L1467 722.206L1468.6 724.206L1469 725.406L1470.2 726.206Z" fill="#ECECEC" stroke="black" stroke-width="0.8" stroke-linecap="round" stroke-linejoin="round"/>
<path d="M1479.4 716.594L1481.4 718.594L1480.2 719.794L1479 718.994V718.594L1479.4 716.594Z" fill="#ECECEC" stroke="black" stroke-width="0.8" stroke-linecap="round" stroke-linejoin="round"/>
<path d="M1479.4 716.6L1478.6 718.2H1478.2L1476.6 717L1475.4 717.4L1474.6 717L1474.2 716.2L1475.4 715.8L1476.2 715L1478.2 715.4L1479.4 716.6Z" fill="#ECECEC" stroke="black" stroke-width="0.8" stroke-linecap="round" stroke-linejoin="round"/>
<path d="M1453 714.594L1453.4 715.394L1454.2 715.794L1453.4 717.394L1451.8 718.194L1450.6 716.594L1453 714.594Z" fill="#ECECEC" stroke="black" stroke-width="0.8" stroke-linecap="round" stroke-linejoin="round"/>
<path d="M1419 707.4L1419.8 708.6L1419.4 709.8L1416.2 708.2L1418.2 707L1419 707.4Z" fill="#ECECEC" stroke="black" stroke-width="0.8" stroke-linecap="round" stroke-linejoin="round"/>
<path d="M1432.61 710.606L1431.41 709.806L1431.81 708.606L1433.01 707.406V709.406L1433.41 710.206L1432.61 710.606Z" fill="#ECECEC" stroke="black" stroke-width="0.8" stroke-linecap="round" stroke-linejoin="round"/>
<path d="M1429.01 703.387L1429.81 702.987H1431.41V703.787L1429.81 704.987L1430.61 705.787V706.987L1429.01 708.587L1428.21 708.987L1427.01 708.587L1425.41 706.987L1425.81 704.587L1427.01 704.188L1427.81 702.587L1429.01 702.188V703.387Z" fill="#ECECEC" stroke="black" stroke-width="0.8" stroke-linecap="round" stroke-linejoin="round"/>
<path d="M1414.6 703.781L1413.8 704.181L1413 706.181L1414.6 708.181L1412.6 707.381V706.581L1412.2 705.381L1410.6 703.781V702.981L1412.2 702.181L1412.6 700.981L1414.2 699.781L1415.4 700.581V702.181L1414.6 703.781Z" fill="#ECECEC" stroke="black" stroke-width="0.8" stroke-linecap="round" stroke-linejoin="round"/>
<path d="M1466.21 701.8L1467.01 702.6L1466.61 703.4L1465.81 703L1463.41 701L1464.21 699.4L1465.41 699L1466.21 699.8L1465.81 701L1466.21 701.8Z" fill="#ECECEC" stroke="black" stroke-width="0.8" stroke-linecap="round" stroke-linejoin="round"/>
<path d="M1492.21 698.606L1493.81 701.806L1496.21 705.006V706.206L1494.61 707.006V709.006V710.206L1495.01 711.006H1495.81L1496.61 712.206L1498.61 713.806L1499.01 715.806L1499.41 717.006L1500.21 717.806L1499.41 718.606L1500.61 719.806L1500.21 720.206L1500.61 722.206L1499.81 723.006L1501.01 724.206L1501.41 726.206L1502.21 728.206V730.606L1501.81 731.006L1500.61 729.806L1499.41 727.806V726.606L1498.21 725.006L1496.61 723.806L1495.41 722.606L1493.41 720.206L1491.81 719.006L1490.61 715.406L1489.81 711.406L1489.01 708.606V706.606L1488.61 705.006L1490.21 703.406L1489.81 702.206L1487.81 699.406L1487.41 698.206L1487.81 697.806L1489.41 698.206L1490.21 698.606L1491.41 697.406L1492.21 698.606Z" fill="#ECECEC" stroke="black" stroke-width="0.8" stroke-linecap="round" stroke-linejoin="round"/>
<path d="M1409.41 697.394L1408.61 695.794L1407.41 694.594H1409.01L1409.41 697.394Z" fill="#ECECEC" stroke="black" stroke-width="0.8" stroke-linecap="round" stroke-linejoin="round"/>
<path d="M1409 693.406L1410.6 693.806L1411 694.206L1411.4 696.206H1410.6L1409.8 694.606L1409 693.406Z" fill="#ECECEC" stroke="black" stroke-width="0.8" stroke-linecap="round" stroke-linejoin="round"/>
<path d="M1421.4 694.188L1421 695.387H1421.8H1423.8L1425.4 698.188V698.987L1426.2 700.188L1426.6 702.188L1425.8 702.987V704.188L1423.4 703.387L1422.6 702.587H1421.4L1419.8 701.387L1419.4 700.587L1419 699.387L1420.6 699.787L1419.4 696.587L1419 695.787L1417 696.188L1416.2 696.587H1414.6L1413.4 698.188L1411.8 697.387V694.987L1412.6 694.188H1414.2V692.587L1415.8 690.188L1417.4 688.987L1418.6 688.188L1420.2 689.387L1421 690.987L1420.6 693.787L1421.4 694.188Z" fill="#ECECEC" stroke="black" stroke-width="0.8" stroke-linecap="round" stroke-linejoin="round"/>
<path d="M1397.8 694.188H1397.4L1396.6 690.987L1397 689.787V688.188L1397.8 688.587L1398.2 690.188V692.987L1397.8 694.188Z" fill="#ECECEC" stroke="black" stroke-width="0.8" stroke-linecap="round" stroke-linejoin="round"/>
<path d="M1411.4 692.206L1410.2 693.006L1409.8 692.606H1408.2L1407 691.406L1406.6 690.206L1406.2 689.006L1406.6 687.806L1407.8 686.206L1409.8 685.406L1410.6 686.206L1411.8 688.206V690.606L1411.4 692.206Z" fill="#ECECEC" stroke="black" stroke-width="0.8" stroke-linecap="round" stroke-linejoin="round"/>
<path d="M1399.4 678.188L1401 680.188V680.587L1403.8 682.188L1403.4 683.387L1401 686.188V687.387L1399.8 687.787V686.188H1399V684.587L1398.2 682.987L1397 682.188L1396.6 680.987L1397 679.787L1397.8 678.987L1398.6 678.188H1399.4Z" fill="#ECECEC" stroke="black" stroke-width="0.8" stroke-linecap="round" stroke-linejoin="round"/>
<path d="M1440.6 678.587L1441.8 679.387L1441 679.787L1439 680.188L1438.6 678.987L1439.4 678.188L1440.6 678.587Z" fill="#ECECEC" stroke="black" stroke-width="0.8" stroke-linecap="round" stroke-linejoin="round"/>
<path d="M1444.21 678.606L1445.01 678.206L1447.01 679.406L1448.21 679.806L1449.01 680.606L1450.21 682.606L1451.41 683.006L1452.61 684.206V685.406L1454.61 685.806V687.006L1455.81 687.406L1457.01 687.006L1457.41 687.406L1459.01 688.206L1459.41 689.006L1460.61 688.606L1461.81 689.006L1462.21 690.206L1463.81 691.406L1465.01 692.606L1466.61 693.806L1470.61 697.806L1469.41 699.406L1470.61 701.406L1471.01 703.806L1469.81 703.406L1468.61 701.806L1465.81 698.606L1464.21 698.206L1462.21 696.606L1459.81 696.206L1459.41 695.006L1457.01 694.206L1455.01 692.206H1454.21L1451.01 689.806L1449.01 688.606V687.806L1447.41 687.006L1446.61 686.206L1445.81 684.606L1444.21 683.406L1443.81 682.606V681.006L1442.21 679.006L1441.41 678.606V677.406L1444.21 678.606Z" fill="#ECECEC" stroke="black" stroke-width="0.8" stroke-linecap="round" stroke-linejoin="round"/>
<path d="M1438.2 676.188L1439 676.987L1439.8 676.587L1441 677.387L1440.6 678.188L1439.4 677.787L1438.2 676.188Z" fill="#ECECEC" stroke="black" stroke-width="0.8" stroke-linecap="round" stroke-linejoin="round"/>
<path d="M1420.2 673.781H1422.2L1421.4 674.581L1420.2 674.181V673.781Z" fill="#ECECEC" stroke="black" stroke-width="0.8" stroke-linecap="round" stroke-linejoin="round"/>
<path d="M1437.4 673.781L1436.6 675.781L1436.2 674.981L1437.4 673.781Z" fill="#ECECEC" stroke="black" stroke-width="0.8" stroke-linecap="round" stroke-linejoin="round"/>
<path d="M1426.6 675.406L1424.6 675.806L1423.8 675.006L1425 673.406L1426.2 673.806L1426.6 675.406Z" fill="#ECECEC" stroke="black" stroke-width="0.8" stroke-linecap="round" stroke-linejoin="round"/>
<path d="M1376.6 671.781L1377.4 672.981L1376.6 673.781L1375.4 673.381L1375 672.981L1376.6 671.781Z" fill="#ECECEC" stroke="black" stroke-width="0.8" stroke-linecap="round" stroke-linejoin="round"/>
<path d="M1382.61 664.2L1383.81 665L1383.41 666.2L1380.61 667L1379.41 665.8L1380.61 663.4L1381.41 663L1382.61 664.2Z" fill="#ECECEC" stroke="black" stroke-width="0.8" stroke-linecap="round" stroke-linejoin="round"/>
<path d="M1389.4 660.594V662.594L1388.6 661.794V660.994L1389.4 660.594Z" fill="#ECECEC" stroke="black" stroke-width="0.8" stroke-linecap="round" stroke-linejoin="round"/>
<path d="M1401 654.606L1402.2 655.006L1403.8 657.006L1405 657.806L1406.2 658.206L1407.4 659.406L1410.6 661.006L1412.2 663.006V664.606L1412.6 667.006L1413.4 667.806L1414.6 669.006H1415.4L1415.8 670.606L1418.6 671.806L1420.2 671.406L1420.6 671.806V673.006L1419.4 673.406L1418.6 674.606L1416.6 673.806L1413.4 672.206H1411.4L1410.2 670.606L1407.4 669.006L1405 665.006L1402.6 661.006L1400.6 659.806L1397.8 657.006V655.006V654.206L1399 653.406L1400.2 653.806L1401 654.606Z" fill="#ECECEC" stroke="black" stroke-width="0.8" stroke-linecap="round" stroke-linejoin="round"/>
<path d="M1907.8 702.987V702.188H1908.2V702.587L1907.8 702.987Z" fill="#ECECEC" stroke="black" stroke-width="0.8" stroke-linecap="round" stroke-linejoin="round"/>
<path d="M1639.41 1003.8L1637.41 1003L1638.21 1001.4L1640.21 1001L1641.01 1002.6L1640.61 1003.4L1639.41 1003.8Z" fill="#ECECEC" stroke="black" stroke-width="0.8" stroke-linecap="round" stroke-linejoin="round"/>
<path d="M1634.6 988.587H1633.8L1632.6 988.188L1631 986.188L1630.6 984.587V982.987L1631.4 982.188L1631.8 980.587L1633 980.188H1634.6L1633.8 981.387V983.387L1636.6 985.387L1635.4 986.587L1634.6 988.587Z" fill="#ECECEC" stroke="black" stroke-width="0.8" stroke-linecap="round" stroke-linejoin="round"/>
<path d="M1634.61 964.987H1635.81L1636.21 965.787L1634.21 966.188L1634.61 967.387L1636.21 968.188L1636.61 969.387L1636.21 970.987L1634.61 971.387L1633.01 970.188H1631.41L1630.61 969.387L1629.41 968.587L1629.81 966.987V965.787L1630.61 963.787L1631.81 962.188H1633.81L1634.61 962.587L1634.21 964.188L1634.61 964.987Z" fill="#ECECEC" stroke="black" stroke-width="0.8" stroke-linecap="round" stroke-linejoin="round"/>
<path d="M1622.6 934.587L1625 934.188L1625.4 934.587L1626.2 936.987L1627 938.188L1627.4 938.587L1625.8 940.987L1622.6 941.787L1621.4 940.587L1621 938.587L1619.8 938.188L1618.2 939.387L1617.8 938.987L1618.6 937.387L1620.2 936.188L1621.8 934.188L1622.6 934.587Z" fill="#ECECEC" stroke="black" stroke-width="0.8" stroke-linecap="round" stroke-linejoin="round"/>
<path d="M1631.81 918.981L1631.41 917.781H1632.61L1631.81 918.981Z" fill="#ECECEC" stroke="black" stroke-width="0.8" stroke-linecap="round" stroke-linejoin="round"/>
<path d="M1625.4 909.406L1625.8 911.406V912.206L1627.4 912.606L1628.2 914.606H1630.2V916.206L1629.8 916.606L1628.6 915.406L1627.4 915.006L1625 915.806L1623.8 915.406L1623.4 914.606L1623 913.006L1623.8 911.006L1624.6 909.806L1625.4 909.406Z" fill="#ECECEC" stroke="black" stroke-width="0.8" stroke-linecap="round" stroke-linejoin="round"/>
<path d="M1629 908.606H1628.6L1628.2 907.406H1629V908.606Z" fill="#ECECEC" stroke="black" stroke-width="0.8" stroke-linecap="round" stroke-linejoin="round"/>
<path d="M1629.8 903L1629 903.8H1626.6L1625.4 904.2L1624.6 903.4L1623 903L1621 901.4L1621.4 900.6L1623.4 899.8L1625 899.4L1626.6 898.2L1627 897H1627.8L1628.2 898.2V900.6L1630.2 902.2L1629.8 903Z" fill="#ECECEC" stroke="black" stroke-width="0.8" stroke-linecap="round" stroke-linejoin="round"/>
<path d="M1611 897.806L1611.8 899.006L1614.2 900.606L1617 903.406L1617.4 903.806V905.406L1618.2 906.606L1617 907.406L1615.4 909.006V908.206L1614.2 907.806H1612.6L1611.8 908.206V909.006L1610.2 909.806L1609 909.406V906.606L1608.6 904.206L1609 901.806L1609.4 899.806L1608.6 897.806L1606.2 899.006L1605.4 898.206L1605 897.006V895.806L1606.2 894.606V893.006L1606.6 891.806L1607.8 891.406L1610.2 892.606L1609.8 893.406L1610.6 895.406L1610.2 896.206L1611 897.806Z" fill="#ECECEC" stroke="black" stroke-width="0.8" stroke-linecap="round" stroke-linejoin="round"/>
<path d="M1608.61 888.2H1607.41L1605.41 887V886.6L1606.21 885.4L1607.01 885L1609.01 885.4L1608.61 887V888.2Z" fill="#ECECEC" stroke="black" stroke-width="0.8" stroke-linecap="round" stroke-linejoin="round"/>
<path d="M1606.6 884.2L1608.2 883L1608.6 883.4L1609 884.6H1607L1606.6 884.2Z" fill="#ECECEC" stroke="black" stroke-width="0.8" stroke-linecap="round" stroke-linejoin="round"/>
<path d="M1629.4 894.6L1628.6 894.2L1629 889.4L1628.6 888.2L1629 886.2L1630.2 883L1630.6 881L1631.4 883.4L1631 884.6V887V891L1630.6 893.4L1629.4 894.6Z" fill="#ECECEC" stroke="black" stroke-width="0.8" stroke-linecap="round" stroke-linejoin="round"/>
<path d="M1624.2 881.387H1621.4L1620.2 880.987V880.188L1623.8 877.387L1625.8 876.587L1627.8 876.188V876.987L1626.6 878.587L1625.8 879.787L1624.2 881.387Z" fill="#ECECEC" stroke="black" stroke-width="0.8" stroke-linecap="round" stroke-linejoin="round"/>
<path d="M1631.8 878.581V879.381H1630.6L1631 878.181L1631.8 872.981V872.581L1632.2 867.781L1633 868.181L1632.6 873.381L1633 874.581L1632.6 876.581L1631.8 878.581Z" fill="#ECECEC" stroke="black" stroke-width="0.8" stroke-linecap="round" stroke-linejoin="round"/>
<path d="M1606.6 884.181L1603 883.781L1600.6 884.981L1600.2 885.781H1599.4L1599 883.381L1598.2 882.981L1596.6 878.981L1598.2 875.781V874.181L1597.8 873.381V867.781L1597.4 866.581V864.581L1598.2 863.381V862.181L1599 860.981V860.181L1600.2 859.781L1600.6 861.781L1601.4 863.381L1602.2 864.581L1602.6 869.781L1602.2 872.981V873.381L1604.6 872.981L1605.8 871.781L1606.6 868.581V867.781L1607.8 866.981L1609 867.381L1608.6 868.981V872.581L1609.8 872.981V874.981L1609 875.381L1610.2 876.981L1609.4 877.781V879.781L1610.2 881.781L1609.8 882.581H1608.6L1606.6 884.181Z" fill="#ECECEC" stroke="black" stroke-width="0.8" stroke-linecap="round" stroke-linejoin="round"/>
<path d="M1623.4 847L1625 848.2L1624.6 849.8L1623.4 851L1622.6 851.8H1620.2V850.2L1620.6 848.6L1621.4 847.4L1623.4 847Z" fill="#ECECEC" stroke="black" stroke-width="0.8" stroke-linecap="round" stroke-linejoin="round"/>
<path d="M1625.8 839.381L1624.6 840.181L1623.8 840.581V841.381L1623 841.781V840.581L1622.2 839.781L1621.8 838.581L1622.2 836.981L1623 836.581L1624.6 835.781L1625 836.581L1625.4 838.181V838.581L1625.8 839.381Z" fill="#ECECEC" stroke="black" stroke-width="0.8" stroke-linecap="round" stroke-linejoin="round"/>
<path d="M1605.81 822.587L1605.41 822.188L1605.81 820.188L1606.61 820.987L1605.81 822.587Z" fill="#ECECEC" stroke="black" stroke-width="0.8" stroke-linecap="round" stroke-linejoin="round"/>
<path d="M1868.61 976.2L1867.41 976.6L1867.81 975L1868.61 976.2Z" fill="#ECECEC" stroke="black" stroke-width="0.8" stroke-linecap="round" stroke-linejoin="round"/>
<path d="M1838.61 969.781L1839.41 970.581L1840.61 970.981V972.181L1838.61 972.981L1836.61 971.781L1834.61 972.981H1833.41L1832.61 974.181L1833.01 975.381L1831.41 974.981L1831.01 975.781L1829.41 975.381L1829.01 975.781L1827.41 974.981L1828.61 974.581L1829.41 974.181L1830.21 973.381L1831.81 973.781L1833.01 972.581L1833.81 971.381L1835.81 970.981L1837.81 969.781H1838.61Z" fill="#ECECEC" stroke="black" stroke-width="0.8" stroke-linecap="round" stroke-linejoin="round"/>
<path d="M1842.2 969.394L1841.4 969.794L1840.6 969.394L1841.4 968.594L1842.2 969.394Z" fill="#ECECEC" stroke="black" stroke-width="0.8" stroke-linecap="round" stroke-linejoin="round"/>
<path d="M1865.8 944.994L1866.2 946.994L1865.4 949.394L1865 948.594L1864.6 946.994H1863.8L1864.2 944.994L1865 944.594L1865.8 944.994Z" fill="#ECECEC" stroke="black" stroke-width="0.8" stroke-linecap="round" stroke-linejoin="round"/>
<path d="M1855.4 939.394H1855L1854.6 937.794L1855.4 936.994L1857 936.594V938.194L1856.2 938.994L1855.4 939.394Z" fill="#ECECEC" stroke="black" stroke-width="0.8" stroke-linecap="round" stroke-linejoin="round"/>
<path d="M1846.6 929.387L1846.2 930.987L1847.4 931.787L1847.8 932.987L1849 934.587L1850.2 934.987L1850.6 936.188H1851.4L1851.8 937.787L1850.6 939.787L1851 940.587L1851.4 942.587L1850.2 943.387V945.387H1851L1851.4 947.387L1850.2 948.587L1847.8 949.387L1847.4 948.587L1846.2 948.987L1845.8 949.787L1844.6 948.587L1841.4 949.787L1838.2 952.587L1837 952.188L1835.4 952.987L1834.2 952.587L1831.8 952.987L1830.6 952.188L1827 950.987L1825.8 950.587L1823.4 950.188L1822.6 949.787L1820.6 948.987L1819.8 944.987L1821 942.188H1822.2L1823.4 941.787L1823.8 939.787L1825 939.387L1825.4 937.787L1824.6 936.987L1827 935.387L1828.6 933.387L1829 933.787L1831.4 931.787H1832.2L1835.8 930.188L1838.2 930.987L1839.4 930.587L1841.4 929.787L1843.8 929.387L1845 928.188L1846.6 929.387Z" fill="#ECECEC" stroke="black" stroke-width="0.8" stroke-linecap="round" stroke-linejoin="round"/>
<path d="M1871.8 930.2L1871 930.6L1871.8 927H1873.4L1873 928.6L1871.8 930.2Z" fill="#ECECEC" stroke="black" stroke-width="0.8" stroke-linecap="round" stroke-linejoin="round"/>
<path d="M1826.21 922.181L1825.41 923.381L1823.41 924.581V923.381L1825.01 921.781L1826.21 922.181Z" fill="#ECECEC" stroke="black" stroke-width="0.8" stroke-linecap="round" stroke-linejoin="round"/>
<path d="M1885.8 920.6L1885 919.8L1885.4 919L1887.4 917L1888.6 915L1887.4 919.4L1885.8 920.6Z" fill="#ECECEC" stroke="black" stroke-width="0.8" stroke-linecap="round" stroke-linejoin="round"/>
<path d="M1889.8 900.594L1888.2 902.194L1885 906.594L1883.8 906.994L1881 908.594L1880.2 910.994L1878.6 911.794L1877.8 912.994L1877.4 913.794L1878.6 914.194L1881 912.994L1881.4 912.594L1882.6 911.394L1883.4 910.194L1885.8 908.994L1887 907.794L1889.4 906.594V907.794L1887.4 910.594L1886.6 910.994L1887 913.394L1885.8 914.594L1884.6 913.394H1883L1881 913.794L1879.4 914.994L1876.6 915.394H1872.6L1874.6 913.394L1873 912.594L1870.6 913.394L1869 914.194V914.994L1867.8 915.394L1867 915.794L1866.6 917.394L1865.8 918.594L1864.6 918.194V917.394L1863 916.994L1861.4 917.794L1860.6 919.794L1859.4 920.594H1858.2V919.394V917.794L1857.4 916.194L1857.8 915.394L1857.4 914.994L1855 915.794V914.194L1856.6 912.994H1857L1856.6 910.994L1857.8 910.594L1859.8 911.794L1862.2 910.194H1863L1864.2 908.994H1865L1866.2 907.794V906.994L1869.4 906.594L1873 905.394L1874.2 904.994L1875.8 905.394L1877.8 904.594L1878.6 902.994H1879.4L1880.2 901.394L1881.8 901.794L1882.2 900.994L1883 901.394L1887 899.394L1887.4 900.594L1888.2 900.194L1889 900.594L1890.2 899.394L1892.2 898.594L1892.6 898.994L1890.6 900.594H1889.8Z" fill="#ECECEC" stroke="black" stroke-width="0.8" stroke-linecap="round" stroke-linejoin="round"/>
</g>
<defs>
<clipPath id="clip0_543_81539">
<rect width="1909" height="1680" fill="white"/>
</clipPath>
</defs>
</svg>
