<svg width="3405" height="2119" viewBox="0 0 3405 2119" fill="none" xmlns="http://www.w3.org/2000/svg">
<path d="M1116.6 1006.61L1122.6 1013.81L1111 1017.01L1101.4 1021.41L1077.8 1024.61L1056.6 1029.81L1047 1041.01L1054.6 1051.81L1060.2 1064.61L1052.2 1075.41L1055.4 1085.41L1051.8 1094.61L1031 1093.81L1043.4 1110.61L1031 1117.41L1025.4 1132.61L1029.8 1148.21L1022.6 1155.41L1014.2 1153.01L998.2 1156.61L997.4 1163.41H981L971.8 1178.21L975 1199.81L948.6 1210.61L933 1208.21L929.4 1213.81L915.8 1210.61L894.6 1214.61L856.2 1201.41L871.8 1178.21L867.4 1161.81L850.2 1157.41L845.4 1141.01L834.6 1120.61L841 1106.61L831 1102.61L833 1083.81L835.4 1051.81L859 1061.81L874.6 1058.21L876.2 1046.61L892.2 1043.01L902.6 1035.01L901.8 1014.61L918.6 1009.41L919.8 1000.61L931.4 1007.41L937.8 1008.21H949.8L967 1013.81L974.2 1016.61L987.8 1008.61L996.2 1013.41L999.8 1001.81L1012.6 1002.21L1015 998.606L1014.2 988.206L1021 979.406L1034.2 985.006L1033.8 993.006L1040.6 994.206L1044.2 1015.81L1055 1024.21L1061 1018.61L1069.8 1016.21L1079.8 1004.61L1095 1006.61H1116.6Z" fill="#ECECEC" stroke="black" stroke-width="0.8" stroke-linecap="round" stroke-linejoin="round"/>
<path d="M769.403 1307L774.603 1327.4H763.403V1344.2L767.803 1347.8L758.203 1353L759.003 1363.4L753.803 1373.8V1384.2L749.803 1389.8L682.203 1377L671.403 1350.6L670.203 1345L673.803 1343.4L675.403 1350.6L692.203 1346.6L710.603 1347.4L724.203 1348.2L737.403 1330.6L752.203 1314.2L764.203 1298.2L769.403 1307Z" fill="#ECECEC" stroke="black" stroke-width="0.8" stroke-linecap="round" stroke-linejoin="round"/>
<path d="M507.805 972.2L500.604 973L489.404 958.2L488.604 954.2H479.404L471.805 947.4L467.805 947.8L458.205 940.6L441.404 934.2L441.004 921.8L435.805 913L463.805 909L469.404 915.4L478.205 919.8L475.404 926.2L488.205 935L483.805 943.4L494.205 950.2L504.205 954.2L507.805 972.2Z" fill="#ECECEC" stroke="black" stroke-width="0.8" stroke-linecap="round" stroke-linejoin="round"/>
<path d="M500.604 973.006L485.404 969.406L472.604 957.806L467.805 947.806L471.805 947.406L479.404 954.206H488.604L489.404 958.206L500.604 973.006Z" fill="#ECECEC" stroke="black" stroke-width="0.8" stroke-linecap="round" stroke-linejoin="round"/>
<path d="M525.805 905.006L535.805 894.606L549.805 907.806L564.205 926.206L574.205 927.406L581.805 934.206L565.004 936.206L565.404 956.206L563.805 965.006L557.004 971.006L560.205 983.406L555.004 985.006L539.404 971.406L544.205 959.006L536.604 951.406L529.004 953.406L507.805 972.206L504.205 954.206L494.205 950.206L483.805 943.406L488.205 935.006L475.404 926.206L478.205 919.806L469.404 915.406L463.805 909.006L468.205 904.606L485.004 912.206L496.604 913.406L499.004 910.606L485.805 896.606L490.604 893.406L496.604 894.206L513.805 909.406L523.404 911.406L525.805 905.006Z" fill="#ECECEC" stroke="black" stroke-width="0.8" stroke-linecap="round" stroke-linejoin="round"/>
<path d="M1587 1401.4L1589.4 1419.8L1581 1415.8L1585.4 1436.6L1577 1423.4L1573.8 1410.2L1567.8 1397.8L1556.6 1383L1535.8 1381.8L1539.4 1392.6L1534.6 1406.6L1524.2 1401.4L1521.8 1406.2L1515 1403.4L1506.2 1401L1499.8 1379.8L1489.4 1360.6L1490.6 1345L1475.8 1338.2L1479.4 1329L1491.4 1319.4L1473 1305.8L1477.8 1288.2L1497.4 1299.4L1508.2 1300.6L1513 1318.6L1534.6 1322.2L1555 1321.8L1568.6 1326.2L1562.2 1347.8L1552.6 1349.4L1547.8 1363.8L1562.2 1377.4L1563.4 1360.6H1569.4L1587 1401.4Z" fill="#ECECEC" stroke="black" stroke-width="0.8" stroke-linecap="round" stroke-linejoin="round"/>
<path d="M2117 1851.39L2125.8 1841.79L2144.2 1827.39L2143.8 1840.19L2143.4 1856.59L2132.6 1855.79L2128.2 1864.59L2117 1851.39Z" fill="#ECECEC" stroke="black" stroke-width="0.8" stroke-linecap="round" stroke-linejoin="round"/>
<path d="M1539.8 1254.2L1550.2 1262.6L1552.2 1278.2L1534.2 1279L1515.4 1277.4L1502.6 1281.4L1480.6 1271.4L1479 1266.6L1489.4 1247.4L1499.8 1241L1517 1246.6L1528.6 1247.4L1539.8 1254.2Z" fill="#ECECEC" stroke="black" stroke-width="0.8" stroke-linecap="round" stroke-linejoin="round"/>
<path d="M1993.4 1487.79L1976.2 1500.19L1956.6 1492.19L1952.6 1470.19L1961.4 1458.59L1984.6 1451.39L1997.8 1451.79L2004.2 1461.79L1996.2 1472.99L1993.4 1487.79Z" fill="#ECECEC" stroke="black" stroke-width="0.8" stroke-linecap="round" stroke-linejoin="round"/>
<path d="M2087 702.2L2123 720.2L2147 743.4H2177.4L2187.8 733.8L2215.4 726.2L2220.6 749L2219.4 758.2L2230.6 785.4L2233 810.2L2205.4 805.8L2193.8 814.6L2212.6 836.2L2228.2 866.2L2218.2 866.6L2225.8 879.8L2203.8 864.6V879L2178.2 889.8L2189.4 903.4L2171 902.2L2156.6 894.2L2152.2 912.6L2136.6 926.2L2128.2 942.6L2103 949.8L2093.4 961.8L2074.2 969L2079.4 957L2070.2 947L2078.2 929.8L2060.2 916.6L2046.6 925.4L2032.2 943.4L2027 959.8L2007 961L2001.8 973L2021 990.2L2040.2 994.6L2045.8 1005.8L2066.2 1013.4L2081.4 995L2105 1005L2119 1005.8L2128.2 1019L2101.4 1026.2L2097.4 1040.2L2082.2 1053L2078.6 1071L2107 1085L2125.4 1110.2L2147.4 1133.8L2169.4 1153.4L2175.8 1172.6L2164.6 1179.8L2174.2 1193.4L2189.8 1201.4L2193 1222.2L2193.4 1242.6L2182.2 1245L2173.8 1272.6L2164.6 1306.6L2151 1337L2125.4 1360.6L2099 1382.6L2074.6 1385.4L2063 1396.6L2053.8 1388.6L2043.8 1401L2015 1414.2L1991.8 1417.8L1989 1445L1976.6 1446.6L1967.8 1427.8L1971.4 1418.2L1940.2 1409.8L1930.6 1414.2L1907 1407.4L1894.6 1397L1895.8 1382.2L1874.6 1377.4L1862.2 1367.8L1845.8 1381.4L1824.6 1384.6L1807 1384.2L1796.2 1390.6L1785.4 1394.2L1793.4 1423.8L1781.4 1423L1778.2 1417L1776.2 1406.2L1761 1413.8L1750.6 1409L1732.6 1399.4L1735.8 1378.2L1721 1373L1711.4 1349.4L1689 1353.8L1686.2 1323.4L1703 1301.8L1699.4 1280.6L1694.2 1261L1683.4 1255L1672.6 1239.8L1660.2 1241.8L1635.8 1237.8L1640.6 1227L1626.2 1211L1613.4 1221.8L1593.8 1215.8L1572.2 1231.8L1556.6 1251L1539.8 1254.2L1528.6 1247.4L1517 1246.6L1499.8 1241L1489.4 1247.4L1479 1266.6L1473 1246.2L1460.6 1251.8L1434.6 1249L1408.6 1243.4L1388.6 1231.8L1370.6 1227L1360.6 1214.6L1347.4 1211L1321.8 1194.2L1302.6 1186.2L1295 1192.2L1260.6 1174.2L1235.8 1158.2L1223 1129.8L1239.4 1133.4L1237 1120.2L1225 1107L1221.8 1086.2L1191 1055.8L1153 1045.8L1141.4 1025.8L1122.6 1013.8L1116.6 1006.6L1109.4 992.2L1107.4 982.2L1092.6 976.2L1086.6 979L1074.2 955L1078.6 949.4L1073.8 943.4L1090.2 931.4L1103 926.2L1126.2 929.8L1128.6 913.4L1154.2 910.6L1158.2 900.2L1185.8 886.6L1186.6 881L1179.8 866.2L1191.4 859.8L1156.2 815.8L1192.6 805.8L1200.6 800.2L1196.6 755L1239.8 763.4L1246.2 751.8L1236.2 727L1251.4 724.6L1259 707.8L1265.8 705.8L1279 723.4L1301.8 736.6L1334.6 745.8L1357.8 766.2L1363.4 795.4L1375.4 806.6L1401.4 811L1430.2 814.2L1462.2 830.2L1475.8 833L1495.8 856.2L1514.6 871.4L1537 870.6L1582.2 876.6L1607.8 873L1630.2 876.6L1667.8 892.2H1692.6L1705.8 899.8L1723.4 886.2L1752.2 877.4L1782.6 876.6L1802.2 867.8L1810.2 854.2L1819.8 845.4L1812.2 837L1800.6 827.4L1802.6 811L1815.4 813.4L1839 818.6L1851.8 805L1877.4 795.4L1882.6 778.6L1892.6 771.4L1919.8 768.2L1937.4 771L1934.2 762.2L1905.4 744.6L1884.6 736.6L1874.6 745.8L1852.6 741.8L1843.4 745L1832.2 735L1831 709.8L1828.6 691L1858.2 700.6L1875.8 685L1868.2 673.8L1867.4 647.8L1872.6 639.8L1862.6 626.2L1847.8 620.6L1854.6 608.2L1875 603.8L1899.8 603L1934.2 610.6L1958.2 619.4L1989 644.2L2004.2 655L2022.2 670.2L2047 694.2L2087 702.2Z" fill="#ECECEC" stroke="black" stroke-width="0.8" stroke-linecap="round" stroke-linejoin="round"/>
<path d="M500.205 1641.39L493.404 1647.79L483.805 1645.39L475.805 1636.99L465.805 1622.19L455.404 1613.79L449.404 1604.99L429.404 1594.59L413.805 1594.19L408.205 1588.99L395.404 1594.99L381.004 1583.39L375.004 1602.59L348.604 1596.99L345.805 1586.99L353.805 1548.99L355.004 1532.19L361.805 1524.19L377.805 1519.79L388.604 1505.39L403.004 1534.99L410.604 1558.59L423.404 1570.99L455.404 1595.39L468.604 1609.79L481.404 1624.99L488.604 1633.79L500.205 1641.39Z" fill="#ECECEC" stroke="black" stroke-width="0.8" stroke-linecap="round" stroke-linejoin="round"/>
<path d="M447.404 871.803L467.805 877.003L476.205 887.403L490.604 893.403L485.805 896.603L499.004 910.603L496.604 913.403L485.004 912.203L468.205 904.603L463.805 909.003L435.805 913.003L413.404 900.203L391.404 901.403L392.604 890.603L384.205 873.403L370.604 863.803L358.604 861.003L349.805 853.403L351.404 850.203L369.805 854.603L400.604 858.603L431.004 871.003L435.805 875.803L447.404 871.803Z" fill="#ECECEC" stroke="black" stroke-width="0.8" stroke-linecap="round" stroke-linejoin="round"/>
<path d="M1925.4 2117.81L1900.6 2118.21L1882.6 2097.01L1854.2 2075.81L1845 2060.21L1828.6 2039.41L1817.8 2020.21L1801 1984.21L1781.4 1962.61L1774.6 1940.61L1765.8 1920.61L1745 1904.61L1732.6 1882.61L1715 1868.21L1690.2 1839.81L1687.8 1826.61L1702.2 1827.81L1737.8 1832.61L1758.6 1857.81L1777 1875.41L1789.8 1885.81L1811.8 1913.41L1835 1913.81L1854.2 1931.41L1867.8 1953.01L1885 1965.01L1875.8 1985.81L1889 1994.61L1897 1995.41L1900.6 2013.41L1908.2 2027.41L1924.6 2029.81L1935 2046.21L1928.2 2078.21L1925.4 2117.81Z" fill="#ECECEC" stroke="black" stroke-width="0.8" stroke-linecap="round" stroke-linejoin="round"/>
<path d="M1295 1192.2L1283.8 1204.2L1280.2 1228.2L1303.4 1237.8L1326.6 1250.2L1357.8 1264.6L1388.6 1268.2L1403.8 1281L1421 1283.4L1448.6 1289.4L1467 1289L1467.4 1279L1461.4 1262.6L1460.6 1251.8L1473 1246.2L1479 1266.6L1480.6 1271.4L1502.6 1281.4L1515.4 1277.4L1534.2 1279L1552.2 1278.2L1550.2 1262.6L1539.8 1254.2L1556.6 1251L1572.2 1231.8L1593.8 1215.8L1613.4 1221.8L1626.2 1211L1640.6 1227L1635.8 1237.8L1660.2 1241.8L1664.2 1251.4L1657.4 1256.2L1663 1271.8L1646.2 1267.4L1621.4 1285L1625 1299.8L1617 1321.4L1618.2 1333.8L1611.8 1355L1593.4 1349L1597 1375.8L1593 1384.6L1597 1395.4L1587 1401.4L1569.4 1360.6H1563.4L1562.2 1377.4L1547.8 1363.8L1552.6 1349.4L1562.2 1347.8L1568.6 1326.2L1555 1321.8L1534.6 1322.2L1513 1318.6L1508.2 1300.6L1497.4 1299.4L1477.8 1288.2L1473 1305.8L1491.4 1319.4L1479.4 1329L1475.8 1338.2L1490.6 1345L1489.4 1360.6L1499.8 1379.8L1506.2 1401L1504.2 1410.6L1489 1410.2L1462.6 1415.4L1466.2 1434.6L1456.6 1449.8L1426.6 1467.4L1405.4 1497.4L1390.2 1513.8L1370.2 1530.6L1371.4 1542.2L1361 1548.6L1341.8 1557.8L1331.4 1559L1326.6 1578.6L1334.2 1612.2L1337 1633.4L1329.4 1657.8L1332.2 1701.4L1320.6 1702.6L1311.4 1722.2L1319 1731L1298.6 1738.2L1291.8 1755.4L1283 1763L1260.6 1739L1248.2 1703L1238.2 1677L1229.4 1665L1215.8 1640.2L1207.8 1608.2L1202.2 1592.2L1178.6 1557L1164.6 1507L1154.2 1474.2L1151 1443L1144.2 1419L1113.4 1434.6L1097.4 1431.4L1065 1400.2L1074.6 1391L1067 1381L1038.6 1359L1051.4 1341.8H1099.8L1092.6 1319.8L1078.6 1307L1073 1287L1057 1275.8L1076.6 1248.6L1102.6 1250.6L1120.6 1223.8L1129.4 1197.8L1145 1171.8L1141 1153.4L1156.2 1138.6L1135.8 1126.2L1124.2 1108.6L1111 1086.2L1119 1075L1153 1081.4L1175.8 1077.4L1191 1055.8L1221.8 1086.2L1225 1107L1237 1120.2L1239.4 1133.4L1223 1129.8L1235.8 1158.2L1260.6 1174.2L1295 1192.2Z" fill="#ECECEC" stroke="black" stroke-width="0.8" stroke-linecap="round" stroke-linejoin="round"/>
<path d="M500.602 972.997L507.802 972.197L529.001 953.397L536.602 951.397L544.202 958.997L539.401 971.397L555.001 984.997L560.202 983.397L570.202 1002.6L591.401 1007.8L608.602 1020.6L639.401 1025L671.401 1018.2L672.202 1012.2L689.802 1007.4L701.802 992.597L716.202 993.397L724.202 988.597L739.802 990.997L766.202 1004.2L783.401 1007L812.602 1029.4L828.602 1030.6L835.401 1051.8L833.001 1083.8L831.001 1102.6L841.001 1106.6L834.602 1120.6L845.401 1141L850.202 1157.4L867.401 1161.8L871.802 1178.2L856.202 1201.4L869.001 1215L880.202 1230.6L903.001 1241.8L907.001 1264.2L917.802 1268.6L921.401 1280.2L891.401 1293.8L887.001 1323.4L844.602 1315.8L819.802 1309.8L794.602 1306.6L781.401 1275L770.202 1270.6L753.802 1275L733.401 1287.4L705.401 1279L681.001 1259L659.001 1251.8L641.401 1227.4L620.602 1193.4L609.401 1197.4L594.602 1189L587.802 1199L573.802 1185.4L571.802 1171.8H565.001L565.802 1153L551.802 1133.8L523.401 1119.4L505.001 1095L507.001 1075L516.202 1066.2L512.602 1051.4L497.401 1043.4L478.602 1013L463.401 992.597L466.202 984.597L454.602 955.397L467.802 947.797L472.602 957.797L485.401 969.397L500.602 972.997Z" fill="#ECECEC" stroke="black" stroke-width="0.8" stroke-linecap="round" stroke-linejoin="round"/>
<path d="M478.602 1013.01L497.401 1043.41L512.602 1051.41L516.202 1066.21L507.001 1075.01L505.001 1095.01L523.401 1119.41L551.802 1133.81L565.802 1153.01L565.001 1171.81H571.802L573.802 1185.41L587.802 1199.01L574.602 1197.81L559.802 1195.41L546.602 1220.21L505.802 1218.21L438.602 1166.61L404.202 1148.61L377.001 1141.41L364.602 1110.21L408.602 1083.41L412.602 1052.61L407.802 1033.81L418.602 1027.41L427.001 1011.41L435.401 1007.41L460.602 1011.01L469.001 1017.41L478.602 1013.01Z" fill="#ECECEC" stroke="black" stroke-width="0.8" stroke-linecap="round" stroke-linejoin="round"/>
<path d="M301 1113L302.6 1123.4L300.2 1127.4H300.6L297.8 1135.4L289.4 1132.2L286.6 1149L292.6 1151.8L287.4 1155.4L287 1162.2L297 1159L298.6 1169L291.4 1209.8L288.6 1203.4L273 1165.8L278.6 1157.4L277 1155.8L281.4 1143.8L283.8 1124.6L286.2 1117.8H286.6H293.8L295.4 1113.4L301 1113Z" fill="#ECECEC" stroke="black" stroke-width="0.8" stroke-linecap="round" stroke-linejoin="round"/>
<path d="M376.999 1141.4L373.398 1145.4L331.799 1158.2L355.799 1184.2L349.398 1188.2L346.599 1197L330.199 1200.6L325.799 1209.8L317.398 1217.8L292.599 1213.4L291.398 1209.8L298.599 1169L296.999 1159L299.398 1151.4L297.799 1135.4L300.599 1127.4L325.799 1137.8L364.599 1110.2L376.999 1141.4Z" fill="#ECECEC" stroke="black" stroke-width="0.8" stroke-linecap="round" stroke-linejoin="round"/>
<path d="M2418.6 1090.6L2425 1099.4L2419.8 1115L2407.4 1106.6L2399 1112.6L2399.4 1127.4L2382.2 1120.2L2377.4 1108.2L2382.6 1092.6L2396.2 1095.8L2400.2 1085L2418.6 1090.6Z" fill="#ECECEC" stroke="black" stroke-width="0.8" stroke-linecap="round" stroke-linejoin="round"/>
<path d="M2517 1013.81L2519.4 1034.21L2529.4 1047.01L2527 1065.01L2505.4 1077.01L2468.6 1078.61L2451 1108.21L2432.2 1098.21L2422.6 1079.01L2388.2 1084.61L2367.8 1096.61L2343 1097.41L2372.6 1116.21L2375.8 1159.81L2365.8 1170.61L2351.4 1160.61L2347.8 1137.41L2331.4 1130.21L2315.4 1112.61L2332.6 1104.61L2337 1088.21L2352.6 1075.01L2360.6 1057.41L2399.4 1049.81L2424.6 1055.01V1009.41L2445 1021.81L2463 996.206L2469.8 986.206L2465.8 955.006L2445.4 926.206L2444.6 910.206L2463.8 905.406L2496.6 941.006L2507.8 961.406L2502.6 987.406L2517 1013.81Z" fill="#ECECEC" stroke="black" stroke-width="0.8" stroke-linecap="round" stroke-linejoin="round"/>
<path d="M2469.4 834.597L2487.4 839.797L2494.6 829.397L2518.6 857.797L2493 864.597L2491.4 889.797L2447.8 872.597L2454.2 900.197L2431.4 900.597L2412.6 875.397L2410.2 855.797L2431 854.597L2413.4 819.397L2406.2 799.797L2448.2 826.197L2469.4 834.597Z" fill="#ECECEC" stroke="black" stroke-width="0.8" stroke-linecap="round" stroke-linejoin="round"/>
<path d="M937.803 602.203L955.403 601.003L992.203 577.803L989.003 585.803L1022.6 604.603L1095.8 667.003L1100.2 654.203L1133.8 668.203L1158.6 661.803L1171.8 666.203L1188.2 680.603L1204.2 685.403L1217.4 696.203L1241.4 692.603L1259 707.803L1251.4 724.603L1236.2 727.003L1246.2 751.803L1239.8 763.403L1196.6 755.003L1200.6 800.203L1192.6 805.803L1156.2 815.803L1191.4 859.803L1179.8 866.203L1186.6 881.003L1172.6 877.003L1159 867.803L1127.4 865.403L1093 864.603L1086.6 867.403L1053.8 856.603L1043.8 862.203L1045.8 877.003L1009 868.203L996.603 871.803L995.403 883.003L985.003 887.803L963.403 905.403L959.803 923.803H951.803L942.603 911.803L915.803 911.003L905.803 890.203L895.403 889.803L889.403 864.203L859.003 845.803L824.603 847.803L801.803 851.403L775.403 828.603L756.203 819.003L719.403 801.003L715.003 799.003L667.003 813.803L691.803 907.403L681.403 908.603L662.203 888.603L646.603 881.403L624.203 886.603L617.003 895.403L614.603 889.003L617.003 878.603L611.003 869.803L585.003 861.003L570.203 838.203L557.403 831.803L555.003 823.403L575.403 825.803L571.403 807.403L587.803 803.403L606.603 807.003L603.803 782.603L596.203 767.003L576.203 768.203L557.403 762.203L537.003 773.003L519.403 778.603L508.203 774.203L507.403 761.403L490.203 744.603L475.803 745.403L454.603 728.603L461.403 709.403L454.203 704.603L463.003 677.003L487.003 691.403L484.603 673.403L517.003 646.603L547.403 645.803L595.403 663.003L621.803 673.003L639.403 662.603L670.203 662.203L699.403 675.003L702.603 667.403L730.603 668.603L731.403 657.003L693.803 639.803L707.803 627.803L701.803 621.403L717.803 615.003L697.403 598.203L703.003 589.803L771.003 581.403L777.803 575.403L821.403 566.203L833.803 556.203L870.203 561.403L887.803 586.603L905.003 580.603L933.403 589.003L937.803 602.203Z" fill="#ECECEC" stroke="black" stroke-width="0.8" stroke-linecap="round" stroke-linejoin="round"/>
<path d="M1186.6 881.009L1185.8 886.609L1158.2 900.209L1154.2 910.609L1128.6 913.409L1126.2 929.809L1103 926.209L1090.2 931.409L1073.8 943.409L1078.6 949.409L1074.2 955.009L1035.8 959.009L1007.4 950.609L985.4 952.609L983 938.209L1007 942.209L1012.6 934.609L1029 937.009L1050.2 918.609L1021.4 905.009L1008.6 911.409L990.2 901.809L1002.2 885.409L995.4 883.009L996.6 871.809L1009 868.209L1045.8 877.009L1043.8 862.209L1053.8 856.609L1086.6 867.409L1093 864.609L1127.4 865.409L1159 867.809L1172.6 877.009L1186.6 881.009Z" fill="#ECECEC" stroke="black" stroke-width="0.8" stroke-linecap="round" stroke-linejoin="round"/>
<path d="M1943.8 1602.59L1951 1619.79L1951.4 1650.59L1915.4 1670.59L1926.6 1685.79L1903 1687.79L1884.6 1698.19L1865.4 1694.59L1855 1680.99L1841 1654.59L1832.6 1623.39L1845 1602.19L1873.4 1597.39L1894.6 1600.99L1914.6 1610.99L1922.6 1593.39L1943.8 1602.59Z" fill="#ECECEC" stroke="black" stroke-width="0.8" stroke-linecap="round" stroke-linejoin="round"/>
<path d="M2196.2 998.203V995.803L2206.2 996.603L2208.6 985.403L2223 983.803L2231 982.203V976.203L2264.2 1006.2L2277.4 1023L2291 1052.6L2289 1066.6L2271.8 1071.4L2259.4 1082.2L2241 1084.2L2232.6 1070.2L2228.2 1051L2207 1024.6L2220.6 1020.2L2196.2 998.203Z" fill="#ECECEC" stroke="black" stroke-width="0.8" stroke-linecap="round" stroke-linejoin="round"/>
<path d="M574.602 1197.81L580.602 1209.01L579.401 1215.01L589.001 1234.21L573.401 1235.01L566.602 1222.61L546.602 1220.21L559.802 1195.41L574.602 1197.81Z" fill="#ECECEC" stroke="black" stroke-width="0.8" stroke-linecap="round" stroke-linejoin="round"/>
<path d="M1943.8 1602.61L1922.6 1593.41L1914.6 1611.01L1894.6 1601.01L1900.6 1589.41L1899 1567.81L1877.8 1545.41L1872.6 1519.81L1852.6 1499.01L1835.4 1497.41L1832.2 1506.21L1819.4 1507.01L1811.8 1502.61L1790.6 1517.81L1786.6 1494.61L1788.2 1467.81L1773 1466.61L1769.4 1451.01L1758.6 1443.01L1761.8 1433.81L1778.2 1417.01L1781.4 1423.01L1793.4 1423.81L1785.4 1394.21L1796.2 1390.61L1812.2 1411.01L1826.2 1434.21H1853.4L1865.4 1456.61L1852.2 1463.41L1847.4 1472.61L1876.6 1488.21L1899.4 1518.61L1917 1541.01L1936.6 1559.01L1944.6 1577.01L1943.8 1602.61Z" fill="#ECECEC" stroke="black" stroke-width="0.8" stroke-linecap="round" stroke-linejoin="round"/>
<path d="M301.001 1113L295.401 1113.4L293.802 1117.8H286.602L291.802 1096.6L300.602 1078.6V1077.8L310.602 1079L315.401 1089L304.602 1099L301.001 1113Z" fill="#ECECEC" stroke="black" stroke-width="0.8" stroke-linecap="round" stroke-linejoin="round"/>
<path d="M1368.2 1808.19L1349 1814.19L1337.4 1793.79L1331.8 1756.99L1339.8 1715.39L1356.2 1729.39L1367.4 1747.39L1379.8 1774.19L1377.4 1800.99L1368.2 1808.19Z" fill="#ECECEC" stroke="black" stroke-width="0.8" stroke-linecap="round" stroke-linejoin="round"/>
<path d="M1778.2 1417L1761.8 1433.8L1758.6 1443L1746.6 1449L1735.4 1460.2L1719.8 1461.4L1713.8 1489L1705 1493.8L1719 1516.2L1735.4 1535L1747 1552.2L1741.4 1574.2L1734.2 1579L1741.4 1591.8L1758.6 1612.2L1762.6 1626.6L1763.4 1638.6L1774.2 1662.2L1763.8 1686.2L1755 1712.6L1751.4 1693.4L1756.6 1673.8L1747.8 1658.6L1747 1630.6L1736.6 1617L1725.8 1586.6L1717.8 1554.2L1705.4 1532.6L1692.6 1545.8L1669.4 1563.8L1656.2 1561.8L1641.8 1555.8L1645.4 1523.8L1637.4 1499.8L1616.2 1470.2L1617.4 1461L1603.8 1457.4L1585.4 1436.6L1581 1415.8L1589.4 1419.8L1587 1401.4L1597 1395.4L1593 1384.6L1597 1375.8L1593.4 1349L1611.8 1355L1618.2 1333.8L1617 1321.4L1625 1299.8L1621.4 1285L1646.2 1267.4L1663 1271.8L1657.4 1256.2L1664.2 1251.4L1660.2 1241.8L1672.6 1239.8L1683.4 1255L1694.2 1261L1699.4 1280.6L1703 1301.8L1686.2 1323.4L1689 1353.8L1711.4 1349.4L1721 1373L1735.8 1378.2L1732.6 1399.4L1750.6 1409L1761 1413.8L1776.2 1406.2L1778.2 1417Z" fill="#ECECEC" stroke="black" stroke-width="0.8" stroke-linecap="round" stroke-linejoin="round"/>
<path d="M1569.4 686.197L1585.4 681.397L1608.2 678.197L1629.8 681.797L1656.2 693.397L1675.8 706.197H1694.2L1721.4 710.197L1735.8 703.797L1759.4 699.797L1777 682.197L1790.6 684.997L1806.2 693.397L1828.6 690.997L1831 709.797L1832.2 734.997L1843.4 744.997L1852.6 741.797L1874.6 745.797L1884.6 736.597L1905.4 744.597L1934.2 762.197L1937.4 770.997L1919.8 768.197L1892.6 771.397L1882.6 778.597L1877.4 795.397L1851.8 804.997L1839 818.597L1815.4 813.397L1802.6 810.997L1800.6 827.397L1812.2 836.997L1819.8 845.397L1810.2 854.197L1802.2 867.797L1782.6 876.597L1752.2 877.397L1723.4 886.197L1705.8 899.797L1692.6 892.197H1667.8L1630.2 876.597L1607.8 872.997L1582.2 876.597L1537 870.597L1514.6 871.397L1495.8 856.197L1475.8 832.997L1462.2 830.197L1430.2 814.197L1401.4 810.997L1375.4 806.597L1363.4 795.397L1357.8 766.197L1334.6 745.797L1301.8 736.597L1279 723.397L1265.8 705.797L1284.6 701.397L1311.4 680.197L1335 668.597L1356.2 676.197L1377 676.597L1396.2 688.197L1416.2 688.997L1448.2 695.397L1457.8 677.797L1441.8 663.397L1447 637.797L1475 647.797L1494.2 650.997L1521 657.397L1535.4 675.797L1569.4 686.197Z" fill="#ECECEC" stroke="black" stroke-width="0.8" stroke-linecap="round" stroke-linejoin="round"/>
<path d="M1841.8 1807.82L1847.4 1810.22L1861.4 1825.82L1871.4 1843.02L1873.8 1860.22L1871.8 1871.82L1874.2 1880.62L1876.2 1895.82L1884.6 1903.02L1893.8 1925.82V1934.22L1877.8 1936.22L1855.8 1917.02L1828.6 1896.62L1825.4 1883.42L1811.8 1866.22L1807.8 1845.02L1799 1831.02L1800.6 1812.22L1795 1801.42L1798.6 1797.02L1817.8 1808.22L1820.2 1821.42L1835 1818.22L1841.8 1807.82Z" fill="#ECECEC" stroke="black" stroke-width="0.8" stroke-linecap="round" stroke-linejoin="round"/>
<path d="M1460.6 1251.8L1461.4 1262.6L1467.4 1279L1467 1289L1448.6 1289.4L1421 1283.4L1403.8 1281L1388.6 1268.2L1357.8 1264.6L1326.6 1250.2L1303.4 1237.8L1280.2 1228.2L1283.8 1204.2L1295 1192.2L1302.6 1186.2L1321.8 1194.2L1347.4 1211L1360.6 1214.6L1370.6 1227L1388.6 1231.8L1408.6 1243.4L1434.6 1249L1460.6 1251.8Z" fill="#ECECEC" stroke="black" stroke-width="0.8" stroke-linecap="round" stroke-linejoin="round"/>
<path d="M719.803 1539.79L711.003 1521.79L690.203 1479.39L755.403 1453.79L765.803 1402.59L753.803 1384.19V1373.79L759.003 1363.39L758.203 1352.99L767.803 1347.79L763.403 1344.19V1327.39H774.603L786.603 1344.99L799.803 1354.19L816.203 1357.79L829.803 1362.19L841.403 1376.99L848.203 1385.39L856.203 1388.99L857.003 1394.59L850.203 1409.79L847.403 1416.99L838.603 1425.39L831.803 1442.99L821.803 1441.39L817.803 1447.79L815.003 1460.59L819.403 1477.79L817.403 1480.99H807.403L794.203 1490.59L793.003 1502.99L788.203 1508.59L774.203 1508.19L766.203 1514.59L767.003 1524.99L756.603 1532.19L744.203 1529.79L729.803 1538.59L719.803 1539.79Z" fill="#ECECEC" stroke="black" stroke-width="0.8" stroke-linecap="round" stroke-linejoin="round"/>
<path d="M769.403 1307L764.203 1298.2L769.803 1289.8L772.603 1291.8L771.803 1302.6L769.403 1307Z" fill="#ECECEC" stroke="black" stroke-width="0.8" stroke-linecap="round" stroke-linejoin="round"/>
<path d="M1191 1055.8L1175.8 1077.4L1153 1081.4L1119 1075L1111 1086.2L1124.2 1108.6L1135.8 1126.2L1156.2 1138.6L1141 1153.4L1145 1171.8L1129.4 1197.8L1120.6 1223.8L1102.6 1250.6L1076.6 1248.6L1057 1275.8L1073 1287L1078.6 1307L1092.6 1319.8L1099.8 1341.8H1051.4L1038.6 1359L1021.8 1352.6L1013 1334.2L993.403 1314.6L953.403 1319.4L917.403 1319.8L887.003 1323.4L891.403 1293.8L921.403 1280.2L917.803 1268.6L907.003 1264.2L903.003 1241.8L880.203 1230.6L869.003 1215L856.203 1201.4L894.603 1214.6L915.803 1210.6L929.403 1213.8L933.003 1208.2L948.603 1210.6L975.003 1199.8L971.803 1178.2L981.003 1163.4H997.403L998.203 1156.6L1014.2 1153L1022.6 1155.4L1029.8 1148.2L1025.4 1132.6L1031 1117.4L1043.4 1110.6L1031 1093.8L1051.8 1094.6L1055.4 1085.4L1052.2 1075.4L1060.2 1064.6L1054.6 1051.8L1047 1041L1056.6 1029.8L1077.8 1024.6L1101.4 1021.4L1111 1017L1122.6 1013.8L1141.4 1025.8L1153 1045.8L1191 1055.8Z" fill="#ECECEC" stroke="black" stroke-width="0.8" stroke-linecap="round" stroke-linejoin="round"/>
<path d="M2386.6 1751.42L2390.2 1768.62L2392.6 1783.02L2386.2 1806.22L2376.2 1780.22L2366.6 1793.42L2375 1812.22L2369.4 1824.22L2341.8 1809.42L2334.2 1790.62L2340.2 1778.62L2325 1766.22L2318.6 1777.02L2308.2 1775.82L2292.2 1790.22L2288.2 1782.62L2295.4 1761.02L2309 1753.82L2320.6 1744.22L2329.4 1755.82L2346.2 1749.02L2349 1737.42L2365 1736.62L2361.8 1717.02L2381.4 1729.02L2384.2 1741.82L2386.6 1751.42Z" fill="#ECECEC" stroke="black" stroke-width="0.8" stroke-linecap="round" stroke-linejoin="round"/>
<path d="M2328.2 1703.42L2321 1711.82L2315.4 1728.22L2309 1735.82L2293.4 1718.22L2297.4 1711.02L2302.6 1703.82L2303.4 1688.22L2315.8 1686.62L2313.8 1703.82L2328.2 1679.02V1703.42Z" fill="#ECECEC" stroke="black" stroke-width="0.8" stroke-linecap="round" stroke-linejoin="round"/>
<path d="M2207 1728.19L2178.6 1752.59L2188.2 1734.59L2203.4 1718.59L2215.4 1700.99L2224.6 1675.39L2231 1696.59L2217 1710.59L2207 1728.19Z" fill="#ECECEC" stroke="black" stroke-width="0.8" stroke-linecap="round" stroke-linejoin="round"/>
<path d="M2277 1662.2L2291.4 1670.2H2305.4L2306.2 1680.6L2297 1691.8L2283.4 1699.4L2281.4 1687.4L2281.8 1674.2L2277 1662.2Z" fill="#ECECEC" stroke="black" stroke-width="0.8" stroke-linecap="round" stroke-linejoin="round"/>
<path d="M2357.4 1655.02L2367 1683.82L2349 1677.02L2350.2 1685.82L2357.4 1701.42L2347 1707.42L2344.6 1689.02L2337.4 1687.82L2332.6 1672.22L2345.8 1674.22L2344.6 1664.62L2328.6 1645.02L2350.2 1645.42L2357.4 1655.02Z" fill="#ECECEC" stroke="black" stroke-width="0.8" stroke-linecap="round" stroke-linejoin="round"/>
<path d="M2265.4 1631.8L2261.8 1654.2L2251 1641.4L2237 1621.8L2256.2 1622.6L2265.4 1631.8Z" fill="#ECECEC" stroke="black" stroke-width="0.8" stroke-linecap="round" stroke-linejoin="round"/>
<path d="M2239.4 1492.2L2254.6 1499.8L2260.2 1493L2263.4 1499.4L2261.8 1510.2L2272.2 1528.6L2269.8 1549.8L2258.2 1558.2L2257.8 1579L2265.8 1599.4L2277.8 1602.2L2287.4 1599.4L2317.4 1613.4L2317 1627.4L2325.4 1633.8L2324.2 1645.4L2305.4 1633L2295.4 1619.4L2290.6 1629L2274.6 1613.4L2254.6 1617.4L2242.6 1611.8L2242.2 1601L2248.6 1594.6L2241 1588.6L2239.4 1597.8L2226.2 1583L2221 1571.8L2216.6 1547.4L2227 1555.8L2222.6 1515.4L2225.8 1492.2H2239.4Z" fill="#ECECEC" stroke="black" stroke-width="0.8" stroke-linecap="round" stroke-linejoin="round"/>
<path d="M2225.8 879.809L2231.4 884.209L2222.6 882.609L2218.6 891.409L2217.4 899.809L2228.6 918.209L2221 923.809L2219.8 928.209L2216.2 935.809L2204.6 940.209L2199 947.009L2204.2 957.809L2203 960.609L2213.4 965.009L2231 976.209V982.209L2223 983.809L2208.6 985.409L2206.2 996.609L2196.2 995.809V998.209L2183.4 993.409L2183 998.209L2177.8 1000.21L2175 995.409L2168.2 993.009L2160.6 989.009L2161 977.809L2164.6 974.609L2160.6 970.209L2159 956.209L2155.4 952.209L2141.8 949.409L2128.2 942.609L2136.6 926.209L2152.2 912.609L2156.6 894.209L2171 902.209L2189.4 903.409L2178.2 889.809L2203.8 879.009V864.609L2225.8 879.809Z" fill="#ECECEC" stroke="black" stroke-width="0.8" stroke-linecap="round" stroke-linejoin="round"/>
<path d="M297.802 1135.4L299.401 1151.4L297.001 1159L287.001 1162.2L287.401 1155.4L292.602 1151.8L286.602 1149L289.401 1132.2L297.802 1135.4Z" fill="#ECECEC" stroke="black" stroke-width="0.8" stroke-linecap="round" stroke-linejoin="round"/>
<path d="M665.001 1335.02L659.001 1337.02L651.802 1331.82L648.602 1313.02L653.001 1299.82L659.001 1297.02L666.202 1305.02L668.202 1319.82L665.001 1335.02Z" fill="#ECECEC" stroke="black" stroke-width="0.8" stroke-linecap="round" stroke-linejoin="round"/>
<path d="M546.602 1220.21L566.602 1222.61L573.401 1235.01L589.001 1234.21L599.802 1256.61L611.401 1262.21L616.202 1271.41L632.202 1282.21L635.001 1292.61L633.401 1301.41L637.001 1309.81L644.202 1317.01L647.802 1325.41L651.802 1331.81L659.001 1337.01L665.001 1335.01L670.202 1345.01L671.401 1350.61L682.202 1377.01L749.802 1389.81L753.802 1384.21L765.802 1402.61L755.401 1453.81L690.202 1479.41L626.602 1489.41L606.602 1501.01L592.602 1527.81L582.202 1532.21L576.202 1523.81L567.802 1525.01L545.802 1522.21L541.401 1519.81L515.802 1520.21L509.802 1522.61L500.202 1516.21L495.001 1528.61L498.202 1539.41L488.602 1547.81L485.001 1536.61L477.802 1529.01L475.802 1518.61L463.401 1509.41L450.202 1487.81L442.602 1467.01L426.202 1449.41L416.202 1445.01L399.802 1420.61L396.202 1403.01V1387.81L381.802 1359.01L370.602 1349.01L358.602 1343.81L350.202 1329.01L351.001 1323.41L343.802 1309.81L337.001 1304.21L327.001 1285.01L311.802 1264.61L299.401 1247.01H288.602L290.602 1233.01L291.001 1223.81L292.602 1213.41L317.401 1217.81L325.802 1209.81L330.202 1200.61L346.602 1197.01L349.401 1188.21L355.802 1184.21L331.802 1158.21L373.401 1145.41L377.001 1141.41L404.202 1148.61L438.602 1166.61L505.802 1218.21L546.602 1220.21Z" fill="#ECECEC" stroke="black" stroke-width="0.8" stroke-linecap="round" stroke-linejoin="round"/>
<path d="M364.603 1110.21L325.803 1137.81L300.603 1127.41H300.203L302.603 1123.41L301.003 1113.01L304.603 1099.01L315.403 1089.01L310.603 1079.01L300.603 1077.81L296.203 1058.21L300.203 1047.41L305.403 1041.81L310.203 1036.21L309.403 1022.21L317.003 1027.01L339.403 1019.81L351.403 1024.61H369.003L391.803 1015.01L403.403 1015.41L427.003 1011.41L418.603 1027.41L407.803 1033.81L412.603 1052.61L408.603 1083.41L364.603 1110.21Z" fill="#ECECEC" stroke="black" stroke-width="0.8" stroke-linecap="round" stroke-linejoin="round"/>
<path d="M1894.6 1601.02L1873.4 1597.42L1845 1602.22L1832.6 1623.42L1841 1654.62L1819.8 1642.62L1800.6 1643.42L1801.8 1623.02H1782.2L1783 1651.42L1774.2 1689.02L1768.6 1711.82L1771.4 1730.22L1786.2 1731.02L1797 1754.62L1802.2 1776.62L1815.8 1791.42L1829.4 1794.22L1841.8 1807.82L1835 1818.22L1820.2 1821.42L1817.8 1808.22L1798.6 1797.02L1795 1801.42L1785.8 1791.82L1781 1779.02L1768.2 1764.62L1756.6 1752.22L1753.8 1767.42L1748.6 1753.02L1750.2 1737.02L1755 1712.62L1763.8 1686.22L1774.2 1662.22L1763.4 1638.62L1762.6 1626.62L1758.6 1612.22L1741.4 1591.82L1734.2 1579.02L1741.4 1574.22L1747 1552.22L1735.4 1535.02L1719 1516.22L1705 1493.82L1713.8 1489.02L1719.8 1461.42L1735.4 1460.22L1746.6 1449.02L1758.6 1443.02L1769.4 1451.02L1773 1466.62L1788.2 1467.82L1786.6 1494.62L1790.6 1517.82L1811.8 1502.62L1819.4 1507.02L1832.2 1506.22L1835.4 1497.42L1852.6 1499.02L1872.6 1519.82L1877.8 1545.42L1899 1567.82L1900.6 1589.42L1894.6 1601.02Z" fill="#ECECEC" stroke="black" stroke-width="0.8" stroke-linecap="round" stroke-linejoin="round"/>
<path d="M1012.6 934.603L1007 942.203L983.004 938.203L985.404 952.603L1007.4 950.603L1035.8 959.003L1074.2 955.003L1086.6 979.003L1092.6 976.203L1107.4 982.203L1109.4 992.203L1116.6 1006.6H1095L1079.8 1004.6L1069.8 1016.2L1061 1018.6L1055 1024.2L1044.2 1015.8L1040.6 994.203L1033.8 993.003L1034.2 985.003L1021 979.403L1014.2 988.203L1015 998.603L1012.6 1002.2L999.805 1001.8L996.205 1013.4L987.805 1008.6L974.205 1016.6L967.004 1013.8L972.205 987.803L962.604 968.603L945.805 962.603L948.205 951.403L965.805 952.603L971.805 938.603L973.805 922.203L999.805 916.203L999.004 928.203L1004.2 935.003L1012.6 934.603Z" fill="#ECECEC" stroke="black" stroke-width="0.8" stroke-linecap="round" stroke-linejoin="round"/>
<path d="M937.8 1008.21L931.4 1007.41L919.8 1000.61L918.6 1009.41L901.8 1014.61L902.6 1035.01L892.2 1043.01L876.2 1046.61L874.6 1058.21L859 1061.81L835.4 1051.81L828.6 1030.61L812.6 1029.41L783.4 1007.01L766.2 1004.21L739.8 991.009L724.2 988.609L716.2 993.409L701.8 992.609L689.8 1007.41L672.2 1012.21L664.6 994.209L662.2 967.409L643.8 958.609L645.4 941.409L631.4 939.809L631 918.209L652.2 924.609L668.6 916.609L649.8 901.009L640.2 886.609L625 893.009L627.4 911.809L617 895.409L624.2 886.609L646.6 881.409L662.2 888.609L681.4 908.609L691.8 907.409L715.4 907.009L708.6 894.209L723.8 885.409L737.4 870.609L769 884.209L776.6 904.209L785.8 909.409L807.8 908.209L816.2 913.009L833.4 939.409L861.8 957.009L878.6 969.009L903.8 981.409L934.6 992.609L937.8 1008.21Z" fill="#ECECEC" stroke="black" stroke-width="0.8" stroke-linecap="round" stroke-linejoin="round"/>
<path d="M2216.2 1382.2L2210.6 1403.4L2194.6 1381.4L2188.6 1362.6L2196.2 1337.4L2209.4 1317.8L2221.4 1325.4L2221 1341L2216.2 1382.2Z" fill="#ECECEC" stroke="black" stroke-width="0.8" stroke-linecap="round" stroke-linejoin="round"/>
<path d="M995.4 883L1002.2 885.4L990.2 901.8L1008.6 911.4L1021.4 905L1050.2 918.6L1029 937L1012.6 934.6L1004.2 935L999 928.2L999.8 916.2L973.8 922.2L971.8 938.6L965.8 952.6L948.2 951.4L945.8 962.6L962.6 968.6L972.2 987.8L967 1013.8L949.8 1008.2H937.8L934.6 992.6L903.8 981.4L878.6 969L861.8 957L833.4 939.4L816.2 913L807.8 908.2L785.8 909.4L776.6 904.2L769 884.2L737.4 870.6L723.8 885.4L708.6 894.2L715.4 907L691.8 907.4L667 813.8L715 799L719.4 801L756.2 819L775.4 828.6L801.8 851.4L824.6 847.8L859 845.8L889.4 864.2L895.4 889.8L905.8 890.2L915.8 911L942.6 911.8L951.8 923.8H959.8L963.4 905.4L985 887.8L995.4 883Z" fill="#ECECEC" stroke="black" stroke-width="0.8" stroke-linecap="round" stroke-linejoin="round"/>
<path d="M1930.6 1414.2L1904.6 1435.8L1889.8 1460.2L1887.4 1478.2L1908.6 1505L1934.6 1538.6L1957.4 1554.6L1973.8 1575L1989.8 1622.6L1991.4 1667.8L1974.2 1684.6L1949.8 1701.4L1933 1722.6L1906.6 1746.6L1897.4 1730.2L1902.2 1712.6L1884.6 1698.2L1903 1687.8L1926.6 1685.8L1915.4 1670.6L1951.4 1650.6L1951 1619.8L1943.8 1602.6L1944.6 1577L1936.6 1559L1917 1541L1899.4 1518.6L1876.6 1488.2L1847.4 1472.6L1852.2 1463.4L1865.4 1456.6L1853.4 1434.2H1826.2L1812.2 1411L1796.2 1390.6L1807 1384.2L1824.6 1384.6L1845.8 1381.4L1862.2 1367.8L1874.6 1377.4L1895.8 1382.2L1894.6 1397L1907 1407.4L1930.6 1414.2Z" fill="#ECECEC" stroke="black" stroke-width="0.8" stroke-linecap="round" stroke-linejoin="round"/>
<path d="M719.803 1539.79L703.803 1546.59L700.203 1558.19V1566.99L678.603 1577.79L643.403 1589.79L624.603 1607.79L614.603 1609.39L607.803 1607.79L595.003 1618.59L581.003 1623.39L562.203 1624.59L556.603 1626.19L552.203 1632.99L546.203 1634.99L543.003 1641.39L531.803 1640.59L525.003 1644.19L509.003 1642.99L502.603 1627.79V1613.79L498.603 1606.19L493.403 1587.39L486.203 1576.99L490.603 1575.39L487.803 1563.79L490.203 1558.99L488.603 1547.79L498.203 1539.39L495.003 1528.59L500.203 1516.19L509.803 1522.59L515.803 1520.19L541.403 1519.79L545.803 1522.19L567.803 1524.99L576.203 1523.79L582.203 1532.19L592.603 1527.79L606.603 1500.99L626.603 1489.39L690.203 1479.39L711.003 1521.79L719.803 1539.79Z" fill="#ECECEC" stroke="black" stroke-width="0.8" stroke-linecap="round" stroke-linejoin="round"/>
<path d="M2342.6 669.8L2397.4 713.8L2361.8 705.8L2376.6 741.8L2415 767.4L2427 785L2401 769.8L2401.4 789.4L2382.6 768.2L2367.4 743.8L2345 717L2335.4 697.8L2309.8 665L2277.8 640.6L2250.6 607L2258.2 595.8L2240.6 584.6L2245.8 581L2265.4 597L2293 620.6L2313.8 645L2342.6 669.8Z" fill="#ECECEC" stroke="black" stroke-width="0.8" stroke-linecap="round" stroke-linejoin="round"/>
<path d="M1778.2 152.997L1754.6 153.397L1719 150.997L1715 149.797L1717.8 141.797L1734.6 139.797L1768.2 147.797L1778.2 152.997Z" fill="#ECECEC" stroke="black" stroke-width="0.8" stroke-linecap="round" stroke-linejoin="round"/>
<path d="M1828.6 115L1824.2 123L1796.6 121.4L1755.4 113.4L1748.2 107L1781.4 109.8L1828.6 115Z" fill="#ECECEC" stroke="black" stroke-width="0.8" stroke-linecap="round" stroke-linejoin="round"/>
<path d="M1726.6 105.403L1739 120.603L1681.8 119.803L1663.4 124.603L1613.4 111.403L1599.8 97.8031L1613.8 94.2031L1654.6 95.0031L1726.6 105.403Z" fill="#ECECEC" stroke="black" stroke-width="0.8" stroke-linecap="round" stroke-linejoin="round"/>
<path d="M459.803 205.409L451.003 207.009L397.003 204.209L387.803 195.009L356.203 189.409L348.203 177.809L362.203 173.409L355.803 162.209L377.403 144.609L361.403 142.209L388.203 124.209L378.203 115.009L405.403 104.609L446.603 91.8094L493.403 88.2094L513.403 81.0094L540.203 78.6094L557.003 86.2094L551.803 92.2094L506.203 102.209L466.603 111.409L431.803 130.609L420.603 150.609L407.403 170.609L419.803 187.809L459.803 205.409Z" fill="#ECECEC" stroke="black" stroke-width="0.8" stroke-linecap="round" stroke-linejoin="round"/>
<path d="M2231.4 884.197L2225.8 879.797L2218.2 866.597L2228.2 866.197L2212.6 836.197L2193.8 814.597L2205.4 805.797L2233 810.197L2230.6 785.397L2219.4 758.197L2220.6 748.997L2215.4 726.197L2187.8 733.797L2177.4 743.397H2147L2123 720.197L2087 702.197L2047 694.197L2022.2 670.197L2004.2 654.997L1989 644.197L1958.2 619.397L1934.2 610.597L1899.8 602.997L1875 603.797L1854.6 608.197L1847.8 620.597L1862.6 626.197L1872.6 639.797L1867.4 647.797L1868.2 673.797L1875.8 684.997L1858.2 700.597L1828.6 690.997L1806.2 693.397L1790.6 684.997L1777 682.197L1759.4 699.797L1735.8 703.797L1721.4 710.197L1694.2 706.197H1675.8L1656.2 693.397L1629.8 681.797L1608.2 678.197L1585.4 681.397L1569.4 686.197L1535.4 675.797L1521 657.397L1494.2 650.997L1475 647.797L1447 637.797L1441.8 663.397L1457.8 677.797L1448.2 695.397L1416.2 688.997L1396.2 688.197L1377 676.597L1356.2 676.197L1335 668.597L1311.4 680.197L1284.6 701.397L1265.8 705.797L1259 707.797L1241.4 692.597L1217.4 696.197L1204.2 685.397L1188.2 680.597L1171.8 666.197L1158.6 661.797L1133.8 668.197L1100.2 654.197L1095.8 666.997L1022.6 604.597L989 585.797L992.2 577.797L955.4 600.997L937.8 602.197L933.4 588.997L905 580.597L887.8 586.597L870.2 561.397L833.8 556.197L821.4 566.197L777.8 575.397L771 581.397L703 589.797L697.4 598.197L717.8 614.997L701.8 621.397L707.8 627.797L693.8 639.797L731.4 656.997L730.6 668.597L702.6 667.397L699.4 674.997L670.2 662.197L639.4 662.597L621.8 672.997L595.4 662.997L547.4 645.797L517 646.597L484.6 673.397L487 691.397L463 676.997L454.2 704.597L461.4 709.397L454.6 728.597L475.8 745.397L490.2 744.597L507.4 761.397L508.2 774.197L519.4 778.597L513.8 793.397L495.4 797.397L481 823.397L505 847.797L506.6 864.597L535.8 894.597L525.8 904.997L523.4 911.397L513.8 909.397L496.6 894.197L490.6 893.397L476.2 887.397L467.8 876.997L447.4 871.797L435.8 875.797L431 870.997L400.6 858.597L369.8 854.597L351.4 850.197L349.8 853.397L319.4 831.797L294.6 822.197L274.2 807.397L288.6 803.397L301.4 782.597L288.2 772.597L315.8 762.197L314.2 756.597L297 760.597L295.4 749.797L304.2 742.597L323.4 740.997L324.6 732.597L317.4 718.597L322.6 705.797L321 698.197L290.2 690.197L278.6 690.597L264.2 678.997L249.8 682.997L223 674.197L222.6 669.397L213.4 658.597L197.8 657.397L194.6 649.797L198.2 644.597L183 630.597L163.4 632.997L157.4 631.797L153.4 637.397L146.2 636.597L138.2 620.597L132.2 612.597L135.4 610.197L151 610.997L157.4 605.797L150.6 599.397L137 594.997V590.597L128.6 586.197L113.4 570.197L116.2 563.797L111.8 552.197L92.6001 546.597L83 549.397L79.3999 543.397L58.2002 537.397L49.8003 522.997L45.8003 511.397L35.8003 506.197L42.2002 498.597L32.6001 476.197L43 462.597L39.3999 458.597L57.3999 445.397L35.8003 434.197L67.8003 404.597L81.3999 390.997L85 379.397L55.3999 363.797L59 348.597L39.3999 331.797L46.2002 312.597L20.2002 287.397L31.8003 270.597L2.6001 255.797L1 240.597L13.8003 238.597L39.3999 230.197L54.2002 222.597L85 235.397L131.8 240.597L202.6 265.397L219 275.797L225 290.597L210.2 302.197L184.2 308.197L103.4 291.397L91.8003 294.197L124.2 310.597L128.2 320.997L135.8 344.197L160.2 350.997L175.4 356.997L174.6 345.797L161 336.197L169.4 327.397L215.8 341.797L228.6 336.197L211.4 319.397L243.8 297.797L260.2 298.997L278.6 306.597L283 291.397L264.2 278.197L267.4 264.997L250.2 251.397L299.4 258.597L313.8 270.597L293.4 273.397L298.2 285.797L314.6 293.397L338.6 288.597L337 274.597L367.8 263.797L417.4 245.397L430.2 246.197L420.2 259.397L441.8 261.797L450.2 254.197L481 253.797L501 244.597L526.6 257.797L537.8 243.397L513.8 230.997L518.6 223.797L570.6 230.197L597 236.997L671.4 261.797L675.8 250.597L652.2 238.997L649 234.597L627.8 232.197L627 222.197L608.2 205.397L603.8 198.597L621 179.797L618.6 160.597L627.4 156.597L673 162.197L684.6 173.797L681 190.597L695.8 197.397L711 212.197L726.2 241.797L753 254.997L755 269.797L741 300.997L762.2 304.197L764.2 296.197L779.4 290.597L777.4 279.797L785 268.997L767.4 256.597L765.8 242.197L746.6 240.597L735 228.597L733.4 206.997L700.6 189.797L719.4 175.797L704.6 160.997L712.2 160.597L729 171.797L737.4 192.197L757.4 196.197L739 180.997L759.4 172.597L791.8 171.397L830.2 183.397L802.6 166.197L783 144.197L806.6 140.197L844.6 140.997L875.8 138.197L853.4 127.797L858.6 114.597L875.4 113.797L895 104.197L932.2 101.397L931.4 95.7969L968.6 94.1969L985.8 98.5969L1007.4 88.1969L1035.4 88.5969L1029.4 79.7969L1033 71.7969L1057.8 63.7969L1091 70.1969L1077 74.9969L1114.6 77.7969L1131 87.3969L1138.6 82.5969L1182.2 82.9969L1228.6 92.5969L1250.6 99.7969L1260.6 110.197L1251 116.197L1224.6 127.397L1220.2 133.397L1242.6 136.197L1271.4 141.397L1281 137.397L1304.2 150.597L1305 145.397L1325.8 142.197L1380.2 145.397L1395.4 154.997L1465 158.197L1445.8 142.597L1483.8 146.197L1508.2 145.797L1547.8 156.597L1571.8 169.797L1573.4 178.597L1613.8 195.397L1649.8 203.797L1637.8 181.797L1675.4 190.997L1695.4 185.397L1734.6 191.797L1738.6 186.197L1769 188.997L1731.4 169.397L1739.8 160.597L1901.4 174.197L1933 186.597L1998.2 202.597L2057.4 198.597L2094.6 202.197L2121 210.997L2141.4 226.597L2170.6 232.597L2186.2 228.197L2214.2 227.797L2251.4 231.797L2279 229.397L2336.2 248.597L2346.2 241.797L2312.2 228.197L2305 218.597L2366.2 224.597L2398.2 223.397L2461.4 233.397L2499.4 242.997L2632.2 331.397L2624.2 341.397L2599.4 339.797L2632.2 351.797L2668.6 370.597L2685.4 376.597L2700.6 386.197L2704.6 392.197L2664.6 387.397L2638.2 404.597L2626.2 407.397L2619.8 423.797L2611.8 438.197L2618.6 448.997L2572.6 432.597L2548.2 450.997L2529.4 442.197L2523.8 452.597L2495.8 448.997L2508.2 464.597L2512.6 487.797L2524.2 497.397L2551.4 502.597L2587.8 537.397L2571.4 538.597L2585 558.597L2603.8 568.997L2583.8 581.397L2605.4 609.397L2582.6 615.397L2600.6 640.197L2593.8 663.397L2571 646.197L2529 610.597L2464.2 556.197L2438.2 522.997L2438.6 508.597L2427.4 497.397L2450.2 492.197L2449.4 462.197L2452.2 438.197L2462.2 419.397L2435.8 386.597L2417 388.597L2429.8 407.797L2415.4 433.397L2366.2 404.597L2329.8 412.597V451.797L2360.6 466.197L2326.6 472.597L2301 474.997L2283.8 457.797L2251.8 454.197L2241.8 465.797L2181.4 461.797L2128.6 468.597L2114.6 515.397L2094.6 572.197L2127.4 575.397L2150.2 590.597L2173.4 595.797L2175 583.797L2197.4 585.397L2248.6 612.197L2267.4 632.997L2273 657.797L2295 687.397L2316.2 726.997L2312.2 763.397L2317.4 780.597L2309.4 810.197L2301 839.397L2297.4 854.197L2279 868.997L2266.6 869.397L2245.8 856.997L2229.4 875.797L2231.4 884.197Z" fill="#ECECEC" stroke="black" stroke-width="0.8" stroke-linecap="round" stroke-linejoin="round"/>
<path d="M1053 52.6063L980.599 59.8063L975.398 35.4062L984.199 33.4062L996.599 34.6063L1047 45.0063L1053 52.6063Z" fill="#ECECEC" stroke="black" stroke-width="0.8" stroke-linecap="round" stroke-linejoin="round"/>
<path d="M243.805 12.6031L226.604 14.6031L215.004 16.2031V19.0031L200.604 21.8031L182.604 17.8031L187.004 12.2031L155.805 11.8031L181.004 8.60313H201.805L207.805 13.0031L213.004 9.00312L224.205 6.20312L247.404 9.80312L243.805 12.6031Z" fill="#ECECEC" stroke="black" stroke-width="0.8" stroke-linecap="round" stroke-linejoin="round"/>
<path d="M964.999 41.8L936.599 44.2L889.799 39L857.398 32.2L830.999 19.4L807.398 16.2L828.999 4.6L853.799 1L892.199 9L946.999 25.8L964.999 41.8Z" fill="#ECECEC" stroke="black" stroke-width="0.8" stroke-linecap="round" stroke-linejoin="round"/>
<path d="M641.001 1293.39L642.202 1293.79L643.001 1293.39L644.602 1296.19L644.202 1296.99L644.602 1300.59V1303.39L643.802 1304.99L643.401 1303.39L641.001 1300.19L641.401 1298.59L640.602 1295.79V1294.19L641.001 1293.39Z" fill="#ECECEC" stroke="black" stroke-width="0.8" stroke-linecap="round" stroke-linejoin="round"/>
<path d="M257.398 1067L257.799 1067.8L258.999 1069.4L257.398 1069H256.199L254.599 1069.8L253.398 1068.6V1067.4L254.599 1067L255.398 1067.4L257.398 1067Z" fill="#ECECEC" stroke="black" stroke-width="0.8" stroke-linecap="round" stroke-linejoin="round"/>
<path d="M1196.2 1859.42V1860.22L1195.4 1859.82L1196.2 1859.02V1859.42Z" fill="#ECECEC" stroke="black" stroke-width="0.8" stroke-linecap="round" stroke-linejoin="round"/>
</svg>
