<svg width="2121" height="1119" viewBox="0 0 2121 1119" fill="none" xmlns="http://www.w3.org/2000/svg">
<g clip-path="url(#clip0_543_82643)">
<path d="M1474.6 912L1476.2 916.8L1481.8 914.4L1486.6 921.2L1491.8 924L1494.2 933.2L1492.2 942L1496.2 952.8L1505.4 958.8L1505.8 965.6L1499 969.2L1498.6 977.6L1489.8 990L1486.2 988.4L1485.4 982.8L1473 974L1470.2 962L1470.6 944.4L1472.6 936.8L1469 932.8L1467 924.4L1474.6 912Z" fill="#ECECEC" stroke="black" stroke-width="0.8" stroke-linecap="round" stroke-linejoin="round"/>
<path d="M2045.8 1012L2038.6 1012.8L2027.4 997.997L2026.6 993.997H2017.4L2009.8 987.197L2005.8 987.597L1996.2 980.397L1979.4 973.997L1979 961.597L1973.8 952.797L2001.8 948.797L2007.4 955.197L2016.2 959.597L2013.4 965.997L2026.2 974.797L2021.8 983.197L2032.2 989.997L2042.2 993.997L2045.8 1012Z" fill="#ECECEC" stroke="black" stroke-width="0.8" stroke-linecap="round" stroke-linejoin="round"/>
<path d="M1405 763.2L1403.8 766.4L1406.6 774.8L1405.8 785.2H1394.6L1399 790.8L1393.8 806.8L1390.2 811.2L1372.6 811.6L1363 817.6L1346.2 815.6L1317 808.8L1311.8 800.4L1292.2 804.8L1290.2 809.6L1277.8 806L1267.4 805.2L1258.2 800.4L1261 794.4L1260.2 790L1265.8 788.8L1276.6 795.6L1279 788.8L1296.6 790L1310.6 785.6L1320.2 786.4L1327 791.6L1328.6 787.2L1324.6 770.8L1331.4 767.6L1337.8 756L1353 764.4L1363.4 754L1370.2 752L1386.2 759.6L1395.4 758.4L1405 763.2Z" fill="#ECECEC" stroke="black" stroke-width="0.8" stroke-linecap="round" stroke-linejoin="round"/>
<path d="M2038.6 1012.8L2023.4 1009.2L2010.6 997.603L2005.8 987.603L2009.8 987.203L2017.4 994.003H2026.6L2027.4 998.003L2038.6 1012.8Z" fill="#ECECEC" stroke="black" stroke-width="0.8" stroke-linecap="round" stroke-linejoin="round"/>
<path d="M2063.8 944.803L2073.8 934.403L2087.8 947.603L2102.2 966.003L2112.2 967.203L2119.8 974.003L2103 976.003L2103.4 996.003L2101.8 1004.8L2095 1010.8L2098.2 1023.2L2093 1024.8L2077.4 1011.2L2082.2 998.803L2074.6 991.203L2067 993.203L2045.8 1012L2042.2 994.003L2032.2 990.003L2021.8 983.203L2026.2 974.803L2013.4 966.003L2016.2 959.603L2007.4 955.203L2001.8 948.803L2006.2 944.403L2023 952.003L2034.6 953.203L2037 950.403L2023.8 936.403L2028.6 933.203L2034.6 934.003L2051.8 949.203L2061.4 951.203L2063.8 944.803Z" fill="#ECECEC" stroke="black" stroke-width="0.8" stroke-linecap="round" stroke-linejoin="round"/>
<path d="M1188.6 708.394L1187 725.194L1181.8 725.994L1180.2 739.994L1162.6 728.394L1152.6 730.394L1138.6 718.794L1129 708.794L1120.2 708.394L1117 699.594L1132.6 694.794L1147 696.794L1165 691.594L1177.4 702.394L1188.6 708.394Z" fill="#ECECEC" stroke="black" stroke-width="0.8" stroke-linecap="round" stroke-linejoin="round"/>
<path d="M1653 886.397L1643.8 896.797L1638.6 914.797L1647 929.197L1628.6 925.997L1608.6 933.997L1609.8 946.797L1591.4 949.197L1575.8 939.997L1559.8 947.197L1544.6 946.397L1541.4 929.597L1530.2 921.197L1533 917.997L1530.6 914.797L1533 906.797L1540.2 898.797L1529 887.997L1526.2 878.397L1530.6 872.797L1537.8 883.197L1545.4 881.597L1561.4 885.197L1591.8 886.797L1601 880.397L1624.6 874.397L1640.6 883.597L1653 886.397Z" fill="#ECECEC" stroke="black" stroke-width="0.8" stroke-linecap="round" stroke-linejoin="round"/>
<path d="M1454.6 857.194L1462.2 856.794L1457.8 867.994L1468.6 877.994L1466.6 889.594L1462.2 890.794L1458.6 893.194L1452.2 899.194L1450.6 913.194L1431.4 903.594L1423 892.794L1414.6 887.194L1404.6 877.594L1399.4 869.994L1388.6 857.994L1391.8 847.594L1399.8 853.594L1403.8 847.994L1413 847.594L1431 851.994L1445 851.594L1454.6 857.194Z" fill="#ECECEC" stroke="black" stroke-width="0.8" stroke-linecap="round" stroke-linejoin="round"/>
<path d="M1689 650.803L1673.4 650.003L1670.2 652.403L1676.2 660.403L1684.2 676.403L1667.8 677.603L1662.6 683.203L1663.8 695.603L1655.4 693.203L1638.2 694.403L1632.2 688.403L1625.4 692.803L1617.8 689.203L1602.2 688.803L1579.4 682.803L1559.8 680.803L1544.6 681.603L1535 688.003L1525.8 689.203L1523.8 678.003L1516.2 666.803L1527.4 661.603L1525.8 652.003L1519 642.803L1516.6 632.003H1535.4L1554.6 622.803L1556.6 609.203L1571 601.203L1567 590.403L1577.8 586.403L1596.2 577.203L1617.4 583.203L1621 589.203L1630.6 586.403L1649.8 592.003L1654.2 603.603L1651.4 610.003L1666.6 626.003L1675 630.403V634.803L1688.6 639.203L1695.4 645.603L1689 650.803Z" fill="#ECECEC" stroke="black" stroke-width="0.8" stroke-linecap="round" stroke-linejoin="round"/>
<path d="M1260.2 790.006L1261 794.406L1258.2 800.406L1267.4 805.206L1277.8 806.006L1276.6 816.006L1268.2 820.406L1253 817.206L1249 827.206L1239.4 828.006L1235.8 824.006L1225 832.806L1215 834.006L1206.2 828.406L1199 817.606L1189.4 821.606V810.006L1203.8 796.006L1203 789.606L1212.2 792.006L1217.4 787.606H1234.2L1238.2 782.406L1260.2 790.006Z" fill="#ECECEC" stroke="black" stroke-width="0.8" stroke-linecap="round" stroke-linejoin="round"/>
<path d="M1361.4 700.806L1371.4 708.806L1386.2 710.806L1385.4 717.606L1396.6 722.806L1399 716.406L1412.6 719.206L1415.4 727.206L1430.2 728.406L1440.6 740.806H1434.6L1431.8 745.206L1427.4 746.406L1426.6 752.006L1423 753.206L1422.6 755.606L1416.2 758.006L1407.4 757.606L1405 763.206L1395.4 758.406L1386.2 759.606L1370.2 752.006L1363.4 754.006L1353 764.406L1337.8 756.006L1325.8 745.606L1315.4 739.606L1312.6 728.806L1308.6 721.606L1322.2 716.406L1329 710.006L1343 705.206L1347.4 700.406L1352.6 703.206L1361.4 700.806Z" fill="#ECECEC" stroke="black" stroke-width="0.8" stroke-linecap="round" stroke-linejoin="round"/>
<path d="M1338.2 635.6L1343.8 648L1339 654.8L1346.6 663.2L1352.6 676.4L1351.8 685.2L1361.4 700.8L1352.6 703.2L1347.4 700.4L1343 705.2L1329 710L1322.2 716.4L1308.6 721.6L1312.6 728.8L1315.4 739.6L1325.8 745.6L1337.8 756L1331.4 767.6L1324.6 770.8L1328.6 787.2L1327 791.6L1320.2 786.4L1310.6 785.6L1296.6 790L1279 788.8L1276.6 795.6L1265.8 788.8L1260.2 790L1238.2 782.4L1234.2 787.6H1217.4L1219 769.6L1228.6 752.8L1199.8 748L1190.2 741.6L1191 730.8L1187 725.2L1188.6 708.4L1184.2 682.4H1195.8L1200.6 673.2L1204.2 650.8L1200.6 642.4L1203.8 637.2L1219.8 636L1223.8 641.2L1236.2 629.2L1231 620L1229.4 606.4L1244.2 609.6L1255.8 606L1257 615.2L1276.6 620.8L1277 629.6L1295.8 624.8L1306.2 618.4L1328.6 628L1338.2 635.6Z" fill="#ECECEC" stroke="black" stroke-width="0.8" stroke-linecap="round" stroke-linejoin="round"/>
<path d="M1307 590.806L1297.4 610.406L1276.6 596.406L1273 586.406L1300.2 578.406L1307 590.806Z" fill="#ECECEC" stroke="black" stroke-width="0.8" stroke-linecap="round" stroke-linejoin="round"/>
<path d="M1255.8 605.994L1244.2 609.594L1229.4 606.394L1221 592.794L1219.4 568.394L1221.8 561.594L1227 554.394L1243 553.194L1249.4 546.394L1263.8 539.594V551.994L1259 559.994L1261.8 566.394L1272.2 569.994L1268.2 579.194L1262.6 576.794L1250.2 593.994L1255.8 605.994Z" fill="#ECECEC" stroke="black" stroke-width="0.8" stroke-linecap="round" stroke-linejoin="round"/>
<path d="M1577.4 498.403L1581 502.403L1570.6 516.003L1580.2 538.403L1573.8 546.003L1558.6 545.603L1541 536.803L1532.6 534.003L1517.4 538.003L1517 524.003L1511 527.203L1497.8 518.803L1493.8 505.203L1515.8 498.403L1538.2 495.203L1558.6 498.803L1577.4 498.403Z" fill="#ECECEC" stroke="black" stroke-width="0.8" stroke-linecap="round" stroke-linejoin="round"/>
<path d="M1539 280.397L1540.6 295.597L1569.8 310.397L1558.2 327.197L1584.2 352.397L1577.4 371.597L1597 388.397L1593.4 403.597L1623 419.197L1619.4 430.797L1605.8 444.397L1573.8 473.997L1541.8 475.997L1511.4 484.397L1483 489.597L1470.2 476.797L1451.4 469.197L1451.8 445.997L1439.8 425.197L1446.2 411.597L1459.4 397.597L1494.6 372.797L1505 367.997L1501.4 358.397L1475.4 347.997L1468.2 339.197L1461 305.197L1432.2 290.397L1408.2 279.597L1417 273.997L1437.4 285.197L1458.6 284.397L1477.4 289.597L1491 279.997L1495.4 263.997L1519 256.797L1542.2 265.197L1539 280.397Z" fill="#ECECEC" stroke="black" stroke-width="0.8" stroke-linecap="round" stroke-linejoin="round"/>
<path d="M949.398 632.803L935.398 628.003L923.398 628.403L928.198 615.203L924.598 602.403L940.598 601.203L960.198 616.403L949.398 632.803Z" fill="#ECECEC" stroke="black" stroke-width="0.8" stroke-linecap="round" stroke-linejoin="round"/>
<path d="M1013 518L992.598 544L1011.4 540.8H1031.8L1026.6 560.4L1009.4 582L1029 583.2L1030.2 586L1047 614.4L1059.8 618.4L1071.4 646.4L1077 656L1100.6 660.4L1098.2 676.4L1088.6 683.6L1096.2 696.4L1078.6 709.2L1052.6 708.8L1019 716L1010.2 710.8L996.998 722.4L978.998 719.6L964.598 729.2L954.598 724.4L983.798 698.4L1001.4 692.8L970.998 688.8L965.798 678.8L986.198 671.2L976.198 658L980.198 642L1008.6 644.4L1011.8 630L999.398 615.2L998.998 614.8L976.198 610.4L971.798 604L978.998 593.2L972.998 586.4L962.598 598L962.198 574.4L953.398 562.4L960.998 537.6L976.198 518.4L990.598 520L1013 518Z" fill="#ECECEC" stroke="black" stroke-width="0.8" stroke-linecap="round" stroke-linejoin="round"/>
<path d="M1985.4 911.6L2005.8 916.8L2014.2 927.2L2028.6 933.2L2023.8 936.4L2037 950.4L2034.6 953.2L2023 952L2006.2 944.4L2001.8 948.8L1973.8 952.8L1951.4 940L1929.4 941.2L1930.6 930.4L1922.2 913.2L1908.6 903.6L1896.6 900.8L1887.8 893.2L1889.4 890L1907.8 894.4L1938.6 898.4L1969 910.8L1973.8 915.6L1985.4 911.6Z" fill="#ECECEC" stroke="black" stroke-width="0.8" stroke-linecap="round" stroke-linejoin="round"/>
<path d="M1573.4 1090.41L1585.8 1099.21L1602.2 1097.61L1618.2 1099.21V1104.01L1629.4 1100.81L1627.4 1108.41L1597 1110.41L1596.6 1106.41L1570.2 1101.21L1573.4 1090.41Z" fill="#ECECEC" stroke="black" stroke-width="0.8" stroke-linecap="round" stroke-linejoin="round"/>
<path d="M1610.2 959.6L1597.4 958.8L1586.6 956.4L1561.8 962.8L1577.8 977.2L1567.8 981.6H1556.2L1543.8 968.4L1540.2 974L1546.6 989.2L1558.2 1001.2L1550.6 1006.8L1563.4 1018.4L1574.6 1026L1576.2 1040.4L1556.2 1033.6L1563.4 1046.8L1550.2 1049.2L1560.2 1072L1546.2 1072.4L1527.8 1061.2L1518.2 1040.8L1513 1023.6L1503.8 1012L1491.8 997.2L1489.8 990L1498.6 977.6L1499 969.2L1505.8 965.6L1505.4 958.8L1519 956.8L1526.2 951.2L1537.4 951.6L1540.6 947.2L1544.6 946.4L1559.8 947.2L1575.8 940L1591.4 949.2L1609.8 946.8L1608.6 934L1619.4 940.8L1615 956.8L1610.2 959.6Z" fill="#ECECEC" stroke="black" stroke-width="0.8" stroke-linecap="round" stroke-linejoin="round"/>
<path d="M707.8 5.6L787.4 17.6L760.6 23.2L708.6 24L634.6 25.6L640.2 28.4L689.4 26.4L728.2 32L756.2 27.2L765.8 32.8L747.8 42.4L784.6 36L853 30L893 33.2L899.8 40L840.6 51.6L831.8 55.6L786.2 58.8L818.6 59.6L799 72.4L784.6 84L779.8 104.8L794.6 117.6L771 118L745 124.4L770.2 134.8L769.8 151.6L753 153.6L769.4 170.8L734.6 172.4L750.6 180.4L744.2 187.6L721.4 190.8L699.4 191.2L716.2 204.8L714.2 214.4L685 205.6L675.4 211.2L695.4 216.4L713.8 229.2L716.2 246.4L686.6 250.4L675.8 242L659 230L661 244.4L639.4 255.6L682.2 256.4L704.2 257.6L656.6 276.4L607.8 293.6L557 300.8L538.6 301.2L519 309.6L489 332.8L448.2 348.4L436.2 349.6L411.8 354.8L385.4 360.4L366.2 374L360.6 390L347 405.2L312.6 423.6L313.8 441.6L299.4 460.8L283 483.6L257 485.2L237 466L201 465.6L188.2 452.8L185 430.4L165.8 401.6L163 386.8L169 366.4L154.2 346L167.4 329.6L159.8 321.6L187.8 296L216.6 287.6L227 278.8L238.2 262L216.2 269.6L205.8 272.8L189.4 275.6L172.6 268.8L178.6 254L190.6 242.8L205.8 242.4L236.2 248.4L215 234.8L204.2 227.6L186.6 230.4L176.2 225.2L204.2 206L199 198L194.6 184L189 162.4L174.6 154.8L180.2 146.4L147.8 134.8L117 133.2L76.6001 134L38.6001 135.6L26.2002 129.2L11 116.8L55 110.8L85.4001 110L27 104.8L1 97.2L9.80005 90L72.6001 81.2L132.6 72.4L143.8 66L111.4 59.6L129.8 52.8L188.6 41.2L210.2 39.6L211 32.4L247 28L291 25.6H332.6L343.8 30.4L386.2 21.6L414.6 27.6L433 28.8L457.8 34L431 25.6L437.4 18.8L488.2 10L534.6 10.8L555 5.2L602.6 4L707.8 5.6Z" fill="#ECECEC" stroke="black" stroke-width="0.8" stroke-linecap="round" stroke-linejoin="round"/>
<path d="M1448.6 830.394L1454.6 840.394L1461.4 847.594L1454.6 857.194L1445 851.594L1431 851.994L1413 847.594L1403.8 847.994L1399.8 853.594L1391.8 847.594L1388.6 857.994L1399.4 869.994L1404.6 877.594L1414.6 887.194L1423 892.794L1431.4 903.594L1450.6 913.194L1448.6 917.194L1428.6 907.994L1415.8 898.794L1396.6 891.194L1377.8 872.794L1381.8 870.794L1371.8 859.994L1370.6 851.594L1357.4 847.594L1351.8 858.394L1345.4 849.994V841.194L1345.8 840.794L1360.2 841.594L1363.4 837.594L1370.6 841.594L1378.6 841.994L1378.2 835.194L1385 832.394L1386.2 822.394L1401.8 815.594L1408.2 818.794L1424.2 829.594L1441.4 834.394L1448.6 830.394Z" fill="#ECECEC" stroke="black" stroke-width="0.8" stroke-linecap="round" stroke-linejoin="round"/>
<path d="M1507.4 767.606L1519.4 774.406L1521.4 781.206L1509.8 786.406L1502.2 803.206L1491.8 820.406L1476.2 825.206L1463.4 824.006L1448.6 830.406L1441.4 834.406L1424.2 829.606L1408.2 818.806L1401.8 815.606L1397 807.206L1393.8 806.806L1399 790.806L1394.6 785.206H1405.8L1406.6 774.806L1417.4 781.606L1425 784.006L1441.4 781.206L1442.6 776.006L1450.2 775.206L1459.4 771.606L1461.8 773.206L1471 770.006L1475 764.006L1481.4 762.406L1503.4 770.006L1507.4 767.606Z" fill="#ECECEC" stroke="black" stroke-width="0.8" stroke-linecap="round" stroke-linejoin="round"/>
<path d="M949.403 632.806L952.203 650.406L936.603 672.406L901.403 686.806L874.203 683.206L891.403 657.606L883.003 632.806L909.803 613.606L924.603 602.406L928.203 615.206L923.403 628.406L935.403 628.006L949.403 632.806Z" fill="#ECECEC" stroke="black" stroke-width="0.8" stroke-linecap="round" stroke-linejoin="round"/>
<path d="M821.798 338.006L816.198 352.406L833.798 367.606L809.398 384.806L756.998 400.406L741.398 404.806L718.998 401.206L671.398 394.006L690.598 384.006L654.598 373.206L686.198 368.806L686.598 362.006L651.398 356.806L665.798 342.006L692.198 338.806L716.198 354.006L744.198 342.006L764.598 348.006L793.798 336.406L821.798 338.006Z" fill="#ECECEC" stroke="black" stroke-width="0.8" stroke-linecap="round" stroke-linejoin="round"/>
<path d="M1395.4 1025.59L1388.6 1045.99L1392.2 1053.59L1388.6 1066.79L1371.8 1057.19L1361 1054.39L1331 1041.59L1333 1028.39L1357.8 1030.79L1379.4 1027.99L1395.4 1025.59Z" fill="#ECECEC" stroke="black" stroke-width="0.8" stroke-linecap="round" stroke-linejoin="round"/>
<path d="M1259.4 949.594L1272.6 967.594L1271 1001.59L1261.4 999.994L1253 1008.39L1245 1001.59L1243 970.794L1237.8 956.394L1249.4 957.594L1259.4 949.594Z" fill="#ECECEC" stroke="black" stroke-width="0.8" stroke-linecap="round" stroke-linejoin="round"/>
<path d="M1346.2 815.606L1344.6 828.006L1350.2 838.806L1333.8 834.806L1318.2 844.006L1319.8 856.406L1317.8 863.606L1325.4 876.406L1345.4 889.206L1357 910.406L1381.4 930.806L1397.4 930.406L1403 936.006L1397.4 941.206L1416.6 950.406L1432.6 958.006L1451.4 971.606L1453.8 976.006L1450.6 985.206L1438.2 973.206L1419.8 969.206L1412.2 985.606L1427.8 995.206L1426.2 1008.41L1417.8 1010.01L1407.8 1032.01L1399 1034.01L1398.6 1026.01L1402.2 1012.41L1406.6 1006.81L1397.4 992.006L1390.2 979.206L1381.4 976.006L1374.2 965.206L1360.6 960.406L1351 950.006L1335.8 948.406L1318.6 937.206L1299 920.406L1284.2 906.006L1276.6 880.806L1266.2 878.006L1249.4 869.606L1240.2 872.806L1228.6 884.806L1220.2 886.406L1222.2 875.606L1211 872.406L1205 852.806L1211.8 845.206L1205.8 835.606L1206.2 828.406L1215 834.006L1225 832.806L1235.8 824.006L1239.4 828.006L1249 827.206L1253 817.206L1268.2 820.406L1276.6 816.006L1277.8 806.006L1290.2 809.606L1292.2 804.806L1311.8 800.406L1317 808.806L1346.2 815.606Z" fill="#ECECEC" stroke="black" stroke-width="0.8" stroke-linecap="round" stroke-linejoin="round"/>
<path d="M1567 590.406L1571 601.206L1556.6 609.206L1554.6 622.806L1535.4 632.006H1516.6L1511 624.406L1501 621.606L1498.6 615.606L1499.4 608.806L1490.6 605.206L1470.2 600.806L1463.4 580.406L1483.8 573.206L1515.4 574.806L1533.4 572.406L1537 577.206L1547 578.806L1567 590.406Z" fill="#ECECEC" stroke="black" stroke-width="0.8" stroke-linecap="round" stroke-linejoin="round"/>
<path d="M1190.2 741.603L1184.6 742.003L1180.2 740.003L1181.8 726.003L1187 725.203L1191 730.803L1190.2 741.603Z" fill="#ECECEC" stroke="black" stroke-width="0.8" stroke-linecap="round" stroke-linejoin="round"/>
<path d="M1573.8 546L1583.8 551.2L1587.8 562.8L1596.2 577.2L1577.8 586.4L1567 590.4L1547 578.8L1537 577.2L1533.4 572.4L1515.4 574.8L1483.8 573.2L1463.4 580.4L1461.4 562.4L1468.2 547.2L1484.6 539.2L1502.2 557.2L1517 556.4L1517.4 538L1532.6 534L1541 536.8L1558.6 545.6L1573.8 546Z" fill="#ECECEC" stroke="black" stroke-width="0.8" stroke-linecap="round" stroke-linejoin="round"/>
<path d="M1640.2 841.206L1635 829.606L1635.8 818.806L1633.4 808.006L1619.8 792.806L1611.8 782.406L1604.6 775.206L1598.2 772.406L1602.6 768.806L1615.4 766.406L1631.4 774.006L1639.4 775.206L1649.8 782.006L1649.4 790.406L1657.4 794.406L1661.8 804.806L1669.8 811.206L1669 815.206L1673 817.606L1667.8 819.606L1655.8 818.806L1653.4 815.206L1649.4 817.206L1651.8 821.606L1647.4 830.006L1645 838.406L1640.2 841.206Z" fill="#ECECEC" stroke="black" stroke-width="0.8" stroke-linecap="round" stroke-linejoin="round"/>
<path d="M1544.6 946.403L1540.6 947.203L1537.4 951.603L1526.2 951.203L1519 956.803L1505.4 958.803L1496.2 952.803L1492.2 942.003L1494.2 933.203L1497 933.603L1497.4 928.403L1509 924.403L1513.8 923.203L1520.6 922.003L1530.2 921.203L1541.4 929.603L1544.6 946.403Z" fill="#ECECEC" stroke="black" stroke-width="0.8" stroke-linecap="round" stroke-linejoin="round"/>
<path d="M1485 908.797L1481.8 914.397L1476.2 916.797L1474.6 911.997L1467 924.397L1469 932.797L1464.6 930.797L1457.8 922.397L1448.6 917.197L1450.6 913.197L1452.2 899.197L1458.6 893.197L1462.2 890.797L1467.8 895.197L1471.4 898.797L1478.2 901.597L1486.6 906.797L1485 908.797Z" fill="#ECECEC" stroke="black" stroke-width="0.8" stroke-linecap="round" stroke-linejoin="round"/>
<path d="M1577.4 270.003L1551.8 278.403L1539 280.403L1542.2 265.203L1519 256.803L1495.4 264.003L1491 280.003L1477.4 289.603L1458.6 284.403L1437.4 285.203L1417 274.003L1408.2 279.603L1397.8 280.403L1398.2 294.803L1366.2 291.203L1363.8 303.603H1347.8L1338.6 319.203L1325 343.603L1302.2 375.203L1309.4 383.203L1304.2 392.003L1287 391.603L1277.4 413.203L1281.4 444.003L1293.8 455.603L1290.6 483.203L1277 499.203L1269.8 512.803L1256.6 498.403L1222.2 525.603L1197.8 531.203L1171.8 519.203L1164.6 494.003L1156.6 440.003L1172.6 425.203L1217.8 405.603L1250.2 382.003L1279 350.803L1314.6 308.003L1340.2 291.603L1381.4 264.403L1415.4 254.803L1442.2 256.003L1463 238.403L1492.6 239.203L1520.6 235.203L1575.4 250.803L1555.8 256.403L1577.4 270.003Z" fill="#ECECEC" stroke="black" stroke-width="0.8" stroke-linecap="round" stroke-linejoin="round"/>
<path d="M1429 100.794L1398.6 108.394L1371.4 103.994L1380.2 99.1937L1369.8 93.1937L1399 89.5938L1406.6 96.3938L1429 100.794Z" fill="#ECECEC" stroke="black" stroke-width="0.8" stroke-linecap="round" stroke-linejoin="round"/>
<path d="M1326.6 66.7969L1377 80.3969L1342.6 87.5969L1337.8 101.197L1325.8 104.797L1322.2 120.797L1304.6 121.597L1270.6 109.997L1282.6 103.197L1259.8 97.5969L1229 81.9969L1216.2 67.9969L1253.4 61.5969L1262.6 67.5969H1282.6L1286.6 61.5969L1307.4 60.7969L1326.6 66.7969Z" fill="#ECECEC" stroke="black" stroke-width="0.8" stroke-linecap="round" stroke-linejoin="round"/>
<path d="M1424.2 54.8062L1453.8 60.8062L1436.2 70.4062L1395.8 72.4062L1353 69.2062L1349 64.4062H1328.6L1311.4 56.4062L1353.4 51.6062L1375 55.6062L1387.4 50.4062L1424.2 54.8062Z" fill="#ECECEC" stroke="black" stroke-width="0.8" stroke-linecap="round" stroke-linejoin="round"/>
<path d="M1442.2 619.203L1465.8 622.003L1501 621.603L1511 624.403L1516.6 632.003L1519 642.803L1525.8 652.003L1527.4 661.603L1516.2 666.803L1523.8 678.003L1525.8 689.203L1538.6 710.803L1537.4 717.603L1528.2 720.403L1513 741.203L1519.4 752.403L1515 750.803L1495 741.203L1481 744.803L1471.4 742.403L1460.2 747.603L1449.4 738.803L1441.8 742.403L1440.6 740.803L1430.2 728.403L1415.4 727.203L1412.6 719.203L1399 716.403L1396.6 722.803L1385.4 717.603L1386.2 710.803L1371.4 708.803L1361.4 700.803L1351.8 685.203L1352.6 676.403L1346.6 663.203L1339 654.803L1343.8 648.003L1338.2 635.603L1350.6 628.403L1379 617.203L1402.2 609.203L1421.4 613.203L1423.8 619.203H1442.2Z" fill="#ECECEC" stroke="black" stroke-width="0.8" stroke-linecap="round" stroke-linejoin="round"/>
<path d="M1598.2 772.406L1604.6 775.206L1611.8 782.406L1619.8 792.806L1633.4 808.006L1635.8 818.806L1635 829.606L1640.2 841.206L1649.8 846.006L1659 841.606L1668.6 846.006L1670.2 852.806L1661 858.006L1654.6 855.606L1653 886.406L1640.6 883.606L1624.6 874.406L1601 880.406L1591.8 886.806L1561.4 885.206L1545.4 881.606L1537.8 883.206L1530.6 872.806L1526.6 868.406L1530.6 864.006L1525.4 861.206L1519.4 866.806L1507 859.206L1504.2 848.806L1491.4 843.206L1488.2 834.806L1476.2 825.206L1491.8 820.406L1502.2 803.206L1509.8 786.406L1521.4 781.206L1529.4 775.606L1542.2 778.406H1555L1565 784.806L1571.4 780.806L1585.8 778.406L1589.8 772.406H1598.2Z" fill="#ECECEC" stroke="black" stroke-width="0.8" stroke-linecap="round" stroke-linejoin="round"/>
<path d="M1530.6 872.8L1526.2 878.4L1529 888L1540.2 898.8L1533 906.8L1530.6 914.8L1533 918L1530.2 921.2L1520.6 922L1513.8 923.2L1512.6 921.2L1515 918.4L1516.6 912L1513.8 912.4L1509.4 907.6L1505.8 906.4L1502.6 902.4L1498.6 900.8L1495.4 897.2L1491.8 898.8L1489.8 907.2L1485 908.8L1486.6 906.8L1478.2 901.6L1471.4 898.8L1467.8 895.2L1462.2 890.8L1466.6 889.6L1468.6 878L1457.8 868L1462.2 856.8L1454.6 857.2L1461.4 847.6L1454.6 840.4L1448.6 830.4L1463.4 824L1476.2 825.2L1488.2 834.8L1491.4 843.2L1504.2 848.8L1507 859.2L1519.4 866.8L1525.4 861.2L1530.6 864L1526.6 868.4L1530.6 872.8Z" fill="#ECECEC" stroke="black" stroke-width="0.8" stroke-linecap="round" stroke-linejoin="round"/>
<path d="M1515 750.797L1510.2 757.597L1507.4 767.597L1503.4 769.997L1481.4 762.397L1475 763.997L1471 769.997L1461.8 773.197L1459.4 771.597L1450.2 775.197L1442.6 775.997L1441.4 781.197L1425 783.997L1417.4 781.597L1406.6 774.797L1403.8 766.397L1405 763.197L1407.4 757.597L1416.2 757.997L1422.6 755.597L1423 753.197L1426.6 751.997L1427.4 746.397L1431.8 745.197L1434.6 740.797H1440.6L1441.8 742.397L1449.4 738.797L1460.2 747.597L1471.4 742.397L1481 744.797L1495 741.197L1515 750.797Z" fill="#ECECEC" stroke="black" stroke-width="0.8" stroke-linecap="round" stroke-linejoin="round"/>
<path d="M1401.8 815.597L1386.2 822.397L1385 832.397L1378.2 835.197L1378.6 841.997L1370.6 841.597L1363.4 837.597L1360.2 841.597L1345.8 840.797L1350.2 838.797L1344.6 827.997L1346.2 815.597L1363 817.597L1372.6 811.597L1390.2 811.197L1393.8 806.797L1397 807.197L1401.8 815.597Z" fill="#ECECEC" stroke="black" stroke-width="0.8" stroke-linecap="round" stroke-linejoin="round"/>
<path d="M1475.4 347.994L1447.4 354.394L1433.4 369.994L1438.6 383.994L1413.8 401.994L1382.6 421.994L1374.2 454.394L1389 470.794L1408.2 483.994L1395 510.394L1376.6 515.994L1374.2 555.994L1365.8 578.794L1343 576.394L1334.2 595.594L1312.2 596.794L1304.6 573.994L1286.6 546.394L1269.8 512.794L1277 499.194L1290.6 483.194L1293.8 455.594L1281.4 443.994L1277.4 413.194L1287 391.594L1304.2 391.994L1309.4 383.194L1302.2 375.194L1325 343.594L1338.6 319.194L1347.8 303.594H1363.8L1366.2 291.194L1398.2 294.794L1397.8 280.394L1408.2 279.594L1432.2 290.394L1461 305.194L1468.2 339.194L1475.4 347.994Z" fill="#ECECEC" stroke="black" stroke-width="0.8" stroke-linecap="round" stroke-linejoin="round"/>
<path d="M1929.4 941.206L1951.4 940.006L1973.8 952.806L1979 961.606L1979.4 974.006L1996.2 980.406L2005.8 987.606L1992.6 995.206L2004.2 1024.41L2001.4 1032.41L2016.6 1052.81L2007 1057.21L1998.6 1050.81L1973.4 1047.21L1965 1051.21L1941.4 1055.21L1929.8 1054.81L1907 1064.41H1889.4L1877.4 1059.61L1855 1066.81L1847.4 1062.01L1848.2 1076.01L1843.4 1081.61L1838.2 1087.21L1829 1075.61L1835.8 1066.01L1823 1068.41L1804.6 1062.41L1791.8 1077.21L1759.8 1080.01L1741 1066.41L1718.2 1065.61L1714.2 1076.01L1699.8 1079.21L1678.2 1065.61L1655 1066.01L1639.8 1040.41L1623 1026.41L1631 1006.41L1616.6 994.006L1637 969.606L1669 968.806L1675.4 949.206L1715.4 952.806L1737.8 936.406L1761 929.206L1795 928.406L1834.2 946.406L1865.8 956.406L1889 952.406L1907.4 954.806L1929.4 941.206Z" fill="#ECECEC" stroke="black" stroke-width="0.8" stroke-linecap="round" stroke-linejoin="round"/>
<path d="M1610.2 959.6L1615 956.8L1619.4 940.8L1608.6 934L1628.6 926L1647 929.2L1650.6 939.2L1669.8 947.2L1667 953.6L1642.2 954.8L1634.2 962.8L1618.6 976.4L1610.6 964.8L1610.2 959.6Z" fill="#ECECEC" stroke="black" stroke-width="0.8" stroke-linecap="round" stroke-linejoin="round"/>
<path d="M1751.4 698.406L1760.6 709.206L1761 714.006L1787.8 722.806L1802.2 718.806L1816.6 730.406L1828.2 730.006L1859 738.006L1860.6 745.606L1855.4 758.406L1862.6 772.406L1861.4 780.806L1842.2 782.406L1833.4 789.606L1835 800.406L1819.4 802.406L1807.4 810.806L1789 812.006L1773 821.606L1777 837.206L1788.2 843.206L1808.6 841.606L1806.2 850.806L1784.6 855.206L1759.4 869.606L1747 864.406L1749.8 852.806L1726.2 845.206L1729 840.406L1747.4 832.006L1740.6 826.406L1708.2 820.006L1705 810.406L1687 813.606L1681.8 827.606L1668.6 846.006L1659 841.606L1649.8 846.006L1640.2 841.206L1645 838.406L1647.4 830.006L1651.8 821.606L1649.4 817.206L1653.4 815.206L1655.8 818.806L1667.8 819.606L1673 817.606L1669 815.206L1669.8 811.206L1661.8 804.806L1657.4 794.406L1649.4 790.406L1649.8 782.006L1639.4 775.206L1631.4 774.006L1615.4 766.406L1602.6 768.806L1598.2 772.406H1589.8L1585.8 778.406L1571.4 780.806L1565 784.806L1555 778.406H1542.2L1529.4 775.606L1521.4 781.206L1519.4 774.406L1507.4 767.606L1510.2 757.606L1515 750.806L1519.4 752.406L1513 741.206L1528.2 720.406L1537.4 717.606L1538.6 710.806L1525.8 689.206L1535 688.006L1544.6 681.606L1559.8 680.806L1579.4 682.806L1602.2 688.806L1617.8 689.206L1625.4 692.806L1632.2 688.406L1638.2 694.406L1655.4 693.206L1663.8 695.606L1662.6 683.206L1667.8 677.606L1684.2 676.406L1691.4 677.206L1695.4 671.606L1701.4 672.806L1721 670.406L1736.2 684.406L1732.6 689.606L1735.8 697.206L1751.4 698.406Z" fill="#ECECEC" stroke="black" stroke-width="0.8" stroke-linecap="round" stroke-linejoin="round"/>
<path d="M1513.8 923.203L1509 924.403L1497.4 928.403L1497 933.603L1494.2 933.203L1491.8 924.003L1486.6 921.203L1481.8 914.403L1485 908.803L1489.8 907.203L1491.8 898.803L1495.4 897.203L1498.6 900.803L1502.6 902.403L1505.8 906.403L1509.4 907.603L1513.8 912.403L1516.6 912.003L1515 918.403L1512.6 921.203L1513.8 923.203Z" fill="#ECECEC" stroke="black" stroke-width="0.8" stroke-linecap="round" stroke-linejoin="round"/>
<path d="M1188.6 708.394L1177.4 702.394L1165 691.594L1147 696.794L1132.6 694.794L1142.6 687.994L1158.6 651.994L1184.6 641.594L1200.6 642.394L1204.2 650.794L1200.6 673.194L1195.8 682.394H1184.2L1188.6 708.394Z" fill="#ECECEC" stroke="black" stroke-width="0.8" stroke-linecap="round" stroke-linejoin="round"/>
<path d="M910.205 1054.81L901.405 1061.21L890.205 1057.61L879.405 1060.41L883.005 1040.41L881.805 1024.81L872.205 1022.41L867.805 1012.81L869.805 996.006L878.605 986.806L880.605 976.406L885.405 961.206V950.406L881.805 941.206L881.005 932.406L888.605 926.006L897.405 922.406L902.205 934.806H914.205L917.805 931.606L930.205 932.406L935.405 945.206L925.805 952.006L924.605 972.006L921.405 975.606L920.205 988.006L911.005 990.006L919.005 1005.21L912.605 1022.01L919.805 1029.61L916.605 1036.41L908.605 1046.01L910.205 1054.81Z" fill="#ECECEC" stroke="black" stroke-width="0.8" stroke-linecap="round" stroke-linejoin="round"/>
<path d="M1501 621.597L1465.8 621.997L1442.2 619.197L1445 608.797L1470.2 600.797L1490.6 605.197L1499.4 608.797L1498.6 615.597L1501 621.597Z" fill="#ECECEC" stroke="black" stroke-width="0.8" stroke-linecap="round" stroke-linejoin="round"/>
<path d="M1029 893.603L1037 903.203L1075 914.803L1082.6 909.203L1105.8 920.803L1129.4 917.603L1131 932.403L1111.4 949.203L1085 954.803L1083 963.203L1070.2 977.203L1062.2 998.003L1070.2 1012.8L1058.2 1024L1053.4 1040.8L1037.4 1046L1022.6 1065.6L995.4 1066L975.4 1065.6L961.8 1074.4L953.4 1084L943 1082L935.4 1073.2L929.8 1058.8L910.2 1054.8L908.6 1046L916.6 1036.4L919.8 1029.6L912.6 1022L919 1005.2L911 990.003L920.2 988.003L921.4 975.603L924.6 972.003L925.8 952.003L935.4 945.203L930.2 932.403L917.8 931.603L914.2 934.803H902.2L897.4 922.403L888.6 926.003L881 932.403L883 914.403L875 903.603L904.6 885.203L929.4 889.603H957L978.6 894.003L995.8 892.403L1029 893.603Z" fill="#ECECEC" stroke="black" stroke-width="0.8" stroke-linecap="round" stroke-linejoin="round"/>
<path d="M1265.4 925.6L1259.4 945.2L1249.8 940L1244.6 923.2L1248.2 913.6L1261 904L1265.4 925.6Z" fill="#ECECEC" stroke="black" stroke-width="0.8" stroke-linecap="round" stroke-linejoin="round"/>
<path d="M1180.2 739.994L1184.6 741.994L1190.2 741.594L1199.8 747.994L1228.6 752.794L1219 769.594L1217.4 787.594L1212.2 791.994L1203 789.594L1203.8 795.994L1189.4 809.994V821.594L1199 817.594L1206.2 828.394L1205.8 835.594L1211.8 845.194L1205 852.794L1211 872.394L1222.2 875.594L1220.2 886.394L1202.2 900.794L1161.4 893.994L1131.8 902.394L1129.4 917.594L1105.8 920.794L1082.6 909.194L1075 914.794L1037 903.194L1029 893.594L1039.8 878.394L1043.8 827.994L1023.4 801.594L1008.6 788.794L978.202 779.194L976.602 760.794L1002.6 755.594L1035.8 761.994L1029.8 733.594L1048.6 744.394L1094.2 725.194L1100.2 704.794L1117 699.594L1120.2 708.394L1129 708.794L1138.6 718.794L1152.6 730.394L1162.6 728.394L1180.2 739.994Z" fill="#ECECEC" stroke="black" stroke-width="0.8" stroke-linecap="round" stroke-linejoin="round"/>
<path d="M1795.4 1106.8L1795.8 1107.6L1797 1109.2L1795.4 1108.8H1794.2L1792.6 1109.6L1791.4 1108.4V1107.2L1792.6 1106.8L1793.4 1107.2L1795.4 1106.8Z" fill="#ECECEC" stroke="black" stroke-width="0.8" stroke-linecap="round" stroke-linejoin="round"/>
<path d="M1788.6 1108.79V1109.19L1787.8 1109.99L1787.4 1112.39L1787 1113.19H1785.8L1785 1113.99L1783 1114.79L1782.2 1115.19L1779.8 1116.39L1778.2 1115.99L1776.2 1116.39L1775 1117.99L1774.2 1116.79L1773 1117.19H1772.2L1771 1115.99L1769.4 1117.19H1767.4L1765.4 1116.39L1763.4 1115.99L1761.8 1114.79L1760.6 1112.39L1759.4 1111.19L1758.6 1108.39L1757.8 1107.19L1758.2 1105.99L1760.2 1107.19L1761.8 1106.79L1762.6 1105.59L1763 1104.39L1764.2 1103.99L1765 1104.39L1765.8 1103.59H1766.6L1767 1105.19L1769 1105.99L1769.4 1106.79H1771.8L1774.2 1104.79L1775.8 1105.19L1777 1104.39L1778.2 1104.79L1779.8 1105.59L1780.6 1104.39H1781.8L1783 1105.99V1108.39L1784.2 1107.59L1785.4 1108.39L1785.8 1107.99L1788.6 1108.79Z" fill="#ECECEC" stroke="black" stroke-width="0.8" stroke-linecap="round" stroke-linejoin="round"/>
<path d="M945.005 448L946.605 448.8H947.805L948.205 449.6V451.2L949.005 452.4L948.605 453.2L946.205 451.6L945.405 450L944.605 449.2L943.805 448H945.005Z" fill="#ECECEC" stroke="black" stroke-width="0.8" stroke-linecap="round" stroke-linejoin="round"/>
<path d="M946.2 441.603L949.4 442.403L950.2 443.203L949.8 444.803L949.4 445.203L947.8 443.203L945.8 442.803L945 441.203L946.2 441.603Z" fill="#ECECEC" stroke="black" stroke-width="0.8" stroke-linecap="round" stroke-linejoin="round"/>
<path d="M941.083 436.16L941.403 436.8H942.603V438H941.003L940.203 438.8L937.803 438L937.003 437.6L936.203 436.4L938.203 436L938.603 435.6L940.832 435.971L939.803 435.2L940.603 432L942.603 432.4L943.803 434.4V434.8L946.203 435.6L947.403 437.6L948.603 438.4L948.203 440.8L946.203 439.2L945.403 438.4L944.603 438L944.203 437.2L943.403 436.4H941.403L941.083 436.16Z" fill="#ECECEC" stroke="black" stroke-width="0.8" stroke-linecap="round" stroke-linejoin="round"/>
<path d="M955.8 433.6L955 432.8L956.2 432L955.8 433.6Z" fill="#ECECEC" stroke="black" stroke-width="0.8" stroke-linecap="round" stroke-linejoin="round"/>
<path d="M946.2 435.594L944.6 434.794L943.4 433.594L943 432.394L943.4 431.994L945 431.594H946.2L948.6 433.194L948.2 433.994L948.6 434.794L951 435.594V436.394L949.4 437.594L946.2 435.594Z" fill="#ECECEC" stroke="black" stroke-width="0.8" stroke-linecap="round" stroke-linejoin="round"/>
<path d="M954.998 433.197L953.798 434.797L952.598 433.997H951.398L952.198 432.797L951.798 431.197L952.198 430.797L952.998 432.397L954.998 433.197Z" fill="#ECECEC" stroke="black" stroke-width="0.8" stroke-linecap="round" stroke-linejoin="round"/>
<path d="M951.405 433.206H950.605L949.805 431.606L950.205 430.406L951.005 432.006L951.405 433.206Z" fill="#ECECEC" stroke="black" stroke-width="0.8" stroke-linecap="round" stroke-linejoin="round"/>
<path d="M1378.2 1086.79L1377.4 1087.99L1375.4 1087.19L1373.4 1085.99V1083.99L1373 1083.59H1375.4L1377 1084.79L1377.8 1085.59L1378.2 1086.79Z" fill="#ECECEC" stroke="black" stroke-width="0.8" stroke-linecap="round" stroke-linejoin="round"/>
<path d="M1371.8 1082.4L1369.8 1082V1081.2L1371.4 1080.8L1373 1082L1371.8 1082.4Z" fill="#ECECEC" stroke="black" stroke-width="0.8" stroke-linecap="round" stroke-linejoin="round"/>
</g>
<defs>
<clipPath id="clip0_543_82643">
<rect width="2121" height="1119" fill="white"/>
</clipPath>
</defs>
</svg>
