<svg width="2715" height="1823" viewBox="0 0 2715 1823" fill="none" xmlns="http://www.w3.org/2000/svg">
<g clip-path="url(#clip0_543_80591)">
<path d="M1553.8 1599.2H1547L1552.2 1570.4L1555 1550L1555.4 1546L1558.2 1544.8L1561.8 1548L1571.8 1532.4L1576.2 1532L1575.8 1536H1579.8L1578.6 1543.2L1573.4 1554L1575 1558L1571.4 1567.2L1572.6 1569.6L1568.6 1582.8L1563.4 1589.6L1559 1590.4L1553.8 1599.2Z" fill="#ECECEC" stroke="black" stroke-width="0.8" stroke-linecap="round" stroke-linejoin="round"/>
<path d="M2266.2 814.406L2279.8 818.006L2298.6 817.206L2285.4 827.606L2277.4 829.206L2255.4 818.406L2253 810.006L2263 802.406L2266.2 814.406Z" fill="#ECECEC" stroke="black" stroke-width="0.8" stroke-linecap="round" stroke-linejoin="round"/>
<path d="M2323.8 750.403L2314.2 750.803L2291 743.203L2277 731.203L2284.6 729.203L2308.2 735.603L2325 746.003L2323.8 750.403Z" fill="#ECECEC" stroke="black" stroke-width="0.8" stroke-linecap="round" stroke-linejoin="round"/>
<path d="M1092.2 765.203L1079.8 768.803L1054.6 757.603V748.803L1043 740.003L1044.2 732.803L1027 728.403L1029.4 714.803L1035.4 709.203L1051.8 714.403L1061.4 718.403L1077.8 720.803L1078.6 729.603L1080.2 741.203L1093 751.603L1092.2 765.203Z" fill="#ECECEC" stroke="black" stroke-width="0.8" stroke-linecap="round" stroke-linejoin="round"/>
<path d="M2448.6 711.2L2428.6 732.8L2444.2 724.4L2455.8 730L2446.2 738.4L2461.4 745.2L2472.6 739.2L2489.8 746.8L2478.6 765.2L2493.8 760.8L2492.6 774L2494.6 789.6L2480.2 812L2470.6 812.8L2459 808L2469 787.6L2464.2 784.4L2435 806L2423 805.2L2440.6 793.2L2423 787.2L2401 788.8L2362.6 788L2361.8 780.8L2377 771.6L2370.2 765.2L2391.8 750L2424.6 710.4L2441.4 696.4L2461.4 688L2469.8 688.8L2463.8 695.6L2448.6 711.2Z" fill="#ECECEC" stroke="black" stroke-width="0.8" stroke-linecap="round" stroke-linejoin="round"/>
<path d="M1008.6 625.594L1014.6 628.794L1034.6 626.794L1005.8 654.394L1007 674.394H999.398L996.598 663.194L998.598 651.594L995.398 643.994L1000.6 633.194L1008.6 625.594Z" fill="#ECECEC" stroke="black" stroke-width="0.8" stroke-linecap="round" stroke-linejoin="round"/>
<path d="M2142.2 435.606L2127.8 447.606L2121 445.606L2120.6 438.806L2122.2 437.206L2133.4 430.406L2140.2 430.806L2142.2 435.606Z" fill="#ECECEC" stroke="black" stroke-width="0.8" stroke-linecap="round" stroke-linejoin="round"/>
<path d="M2103.4 422.8L2074.6 435.6L2062.6 434.8V428.8L2082.6 418L2106.6 418.4L2103.4 422.8Z" fill="#ECECEC" stroke="black" stroke-width="0.8" stroke-linecap="round" stroke-linejoin="round"/>
<path d="M2091 355.6L2087.4 365.6L2098.2 362L2104.2 368L2118.2 376L2133.4 382.8L2127.8 393.6L2141.8 392L2149.4 399.6L2129.4 406.8L2105.8 401.2L2102.6 390.8L2077.4 403.2L2044.6 414.8L2047.4 401.6L2022.2 403.6L2045 392.4L2059.4 374.4L2079.8 354L2091 355.6Z" fill="#ECECEC" stroke="black" stroke-width="0.8" stroke-linecap="round" stroke-linejoin="round"/>
<path d="M2270.6 322.394L2251 323.594L2253.8 312.794L2269 300.394L2286.2 297.594L2295.4 303.594L2289.4 312.794L2285.8 315.994L2270.6 322.394Z" fill="#ECECEC" stroke="black" stroke-width="0.8" stroke-linecap="round" stroke-linejoin="round"/>
<path d="M1972.6 279.603L1956.2 287.203L1939.4 280.803L1923.8 282.803L1910.2 273.203L1930.2 266.403L1949.8 257.203L1961.8 263.203L1968.2 267.203L1969.8 271.203L1972.6 279.603Z" fill="#ECECEC" stroke="black" stroke-width="0.8" stroke-linecap="round" stroke-linejoin="round"/>
<path d="M2184.6 849.994L2175.8 835.594L2187.4 801.594L2181 794.394L2166.2 798.394L2161.8 791.994L2139.8 810.794L2127 830.394L2115.8 841.994L2105.8 845.994L2099 847.194L2094.6 853.194H2057.4L2026.2 853.594L2015.4 857.994L1988.2 875.594V875.194L1984.6 873.594L1976.6 877.194L1969 882.394L1961.8 877.994L1943 881.194L1927.4 884.794L1919.8 887.994L1910.6 896.394L1917.8 899.194L1924.6 897.594H1925.8L1924.6 905.194L1905.4 907.994L1894.2 911.194L1887.4 915.194L1877 912.794L1870.6 913.994L1859 921.194L1840.6 929.194L1829.8 927.594L1837.8 918.794L1852.6 904.794L1869 896.394L1873.4 889.194L1877 877.194L1892.2 863.194L1895.8 847.194L1900.2 862.794L1915.4 866.394L1925 857.994L1919.4 838.794L1915.8 830.794L1899.8 825.994L1884.6 823.194H1869L1855.4 819.994L1853.8 814.394L1848.2 817.994L1843.4 817.194L1851 808.794L1843.8 805.594L1851.4 795.994L1846.6 788.794L1853.4 781.594L1832.6 777.994L1832.2 763.594L1829 760.394L1815.8 759.594L1799.4 754.794L1793.4 757.994L1786.2 763.994L1773 767.994L1760.6 777.994L1739 771.194L1721.4 774.394L1705.8 766.794L1687.4 762.794L1674.2 761.194L1670.2 757.194L1673.8 743.594H1667L1661.8 753.194H1621H1553H1485.8H1426.2H1367H1308.2H1247.8H1228.6H1169.8H1113.4H1110.6L1089 728.794L1082.6 717.994L1054.6 707.594L1059.8 685.594L1074.2 670.794L1057.8 659.994L1070.2 640.394L1061.8 622.794L1071.8 609.994L1092.2 598.394L1105 583.194L1086.6 567.994L1092.2 540.394L1096.6 523.594L1090.2 512.794L1087 503.194L1089.4 490.794L1063.4 498.394L1033 511.594L1031.8 496.394L1029.8 485.994L1018.6 479.594L1001.8 478.794L1144.2 347.994L1242.6 266.394L1266.6 271.594L1279.8 281.994L1294.6 283.994L1319.8 275.194L1347.8 268.394L1369 270.794L1404.6 261.594L1437.4 256.394L1438.2 265.194L1456.2 259.994L1471.8 249.994L1480.2 252.394L1485.8 271.594L1523.8 256.794L1508.2 273.194L1532.2 269.594L1545 263.594L1563.4 264.794L1579 273.594L1609 281.594L1627.8 285.194L1645.4 283.994L1657 295.194L1623 305.994L1648.6 310.394L1696.2 307.994L1713.8 303.994L1719.4 317.194L1747.8 306.394L1739.4 296.794L1757.4 289.594L1778.2 288.394L1793.8 286.394L1802.2 291.594L1808.2 303.194L1828.2 301.594L1849.4 311.594L1878.2 307.994L1902.2 308.394L1911.8 294.794L1929.8 291.194L1949.4 298.394L1932.2 319.194L1957 301.594L1969.8 302.394L1995.4 280.394L1989 267.194L1977.4 258.394L1999.4 234.794L2032.2 219.594L2050.2 223.194L2058.2 232.394L2059.8 256.394L2036.6 266.794L2063.4 271.194L2045.8 293.194L2081.4 276.394L2090.2 290.394L2073 306.394L2078.2 321.194L2107.4 305.594L2133.4 286.394L2152.2 262.794L2174.2 264.394L2195.8 267.594L2210.2 278.394L2203.4 289.194L2183 300.794L2186.6 312.394L2177 323.194L2133.4 338.794L2107.4 342.394L2094.6 335.594L2081.4 346.794L2051.8 365.594L2039.8 375.594L2009 390.794L1983 392.394L1962.6 401.994L1951 417.194L1928.2 419.994L1893.4 438.794L1855.8 464.794L1835.8 483.194L1816.2 510.794L1840.2 514.794L1834.2 536.794L1831 555.194L1860.2 550.394L1888.2 560.794L1901.4 569.994L1908.2 581.194L1927.8 587.994L1942.2 597.994L1972.6 599.594L1991.8 601.994L1977.4 622.794L1970.6 647.194L1971 674.794L1988.6 698.394L2007.4 690.394L2029.8 664.794L2039 626.394L2032.2 613.594L2068.2 601.994L2098.2 585.194L2117.4 568.394L2124.2 552.394L2122.6 531.994L2109.8 513.994L2145.4 489.194L2149.4 467.994L2165 431.994L2180.2 426.394L2207 432.794L2223.8 435.194L2241.8 428.794L2254.2 436.794L2268.6 450.394L2269.4 459.194L2300.2 461.194L2289.8 480.794L2280.6 510.394L2295.8 514.394L2302.2 528.394L2335 515.194L2365 488.794L2381.8 477.994L2386.2 499.194L2396.6 529.194L2404.6 557.994L2391 573.194L2410.2 586.794L2421.8 600.394L2449.4 606.794L2459 614.394V635.194L2472.6 638.394L2477 647.594L2469 675.194L2451.8 684.394L2435 693.194L2399.8 701.994L2368.2 721.994L2333.8 726.394L2293.4 720.794H2264.2L2243 722.394L2220.2 740.394L2190.6 751.594L2150.2 784.394L2118.6 807.594L2137.4 803.594L2181 770.394L2230.2 749.594L2260.6 747.194L2273.8 759.594L2249.4 776.394L2247 803.194L2247.4 822.394L2269.8 834.794L2304.2 831.194L2333 802.794L2329 821.194L2339 830.394L2309.4 846.794L2259.8 861.994L2236.6 871.994L2207.8 890.394L2193 888.394L2199 867.194L2240.6 845.994L2208.2 846.794L2184.6 849.994Z" fill="#ECECEC" stroke="black" stroke-width="0.8" stroke-linecap="round" stroke-linejoin="round"/>
<path d="M1758.6 194.797L1739.8 204.397L1781.8 198.397L1792.2 208.797L1821.4 197.997L1828.6 204.797L1819.8 225.197L1837 216.797L1848.2 195.597L1865.4 192.397L1877.4 195.597L1886.2 203.997L1875.4 224.397L1865.8 239.197L1882.6 249.597L1902.6 259.997L1892.2 269.197L1863.8 271.197L1867 279.197L1854.2 287.197L1827.4 283.997L1804.6 277.997L1784.2 279.197L1746.2 286.797L1701 289.997L1669.4 291.997L1670.6 281.597L1654.2 275.997L1637 278.397L1634.6 261.197L1647.8 258.797L1677 255.197L1699 256.397L1723.8 252.397L1697.8 247.597L1661.4 249.197L1638.6 248.797V241.197L1685.4 232.397L1660.2 232.797L1638.6 227.197L1669.8 211.597L1690.6 203.197L1747.4 190.797L1758.6 194.797Z" fill="#ECECEC" stroke="black" stroke-width="0.8" stroke-linecap="round" stroke-linejoin="round"/>
<path d="M1916.6 188.8L1888.6 202.4L1879.4 188L1887.8 184.8L1909.8 184L1916.6 188.8Z" fill="#ECECEC" stroke="black" stroke-width="0.8" stroke-linecap="round" stroke-linejoin="round"/>
<path d="M2351 195.194L2348.2 200.794L2331.8 200.394L2315.4 199.994L2295.8 202.794L2292.2 201.194L2283.8 190.394L2290.6 183.194L2299.4 181.594L2333 183.994L2351 195.194Z" fill="#ECECEC" stroke="black" stroke-width="0.8" stroke-linecap="round" stroke-linejoin="round"/>
<path d="M2191.8 193.997L2193 206.797L2221.8 190.397L2268.6 181.997L2277.8 203.197L2265 216.797L2301 210.797L2322.2 202.397L2349.4 212.797L2364.2 222.797L2359.8 231.997L2392.6 227.197L2400.2 240.797L2433.8 249.197L2442.6 257.597L2446.2 277.997L2409.8 287.997L2440.6 302.397L2464.2 307.197L2477.4 327.197L2503.4 328.797L2490.2 344.397L2446.6 370.397L2430.6 360.797L2415.4 339.197L2391.8 341.997L2382.6 355.197L2393.4 367.997L2411.4 378.397L2415.4 384.397L2415 407.197L2400.6 423.597L2381.8 417.197L2347.4 399.197L2361.8 418.797L2373 432.797L2371.8 440.797L2328.2 431.597L2297.8 417.997L2282.6 407.197L2292.2 400.397L2273 388.797L2254.2 377.997L2250.6 384.397L2198.2 387.997L2188.6 380.397L2210.2 363.597L2242.6 363.197L2279.8 360.397L2279 352.397L2291.4 341.197L2326.6 319.597L2328.2 309.597L2326.2 302.397L2307.4 291.597L2279 284.397L2293 278.797L2285 265.197L2271.4 263.997L2263.8 256.797L2250.6 263.197L2219 265.997L2163 261.197L2133.4 254.797L2109.8 251.597L2102.2 243.997L2127.4 234.397H2104.6L2117.8 213.197L2146.2 194.797L2170.2 186.397L2215 180.797L2191.8 193.997Z" fill="#ECECEC" stroke="black" stroke-width="0.8" stroke-linecap="round" stroke-linejoin="round"/>
<path d="M1990.2 180L2004.6 184.4L2035 181.6L2033 187.6L2008.6 197.6L2023.8 206.4L2003 225.2L1969.4 233.2L1955.8 231.6L1952.2 223.6L1928.6 207.6L1935.4 200.8L1965 203.2L1961.4 190L1990.2 180Z" fill="#ECECEC" stroke="black" stroke-width="0.8" stroke-linecap="round" stroke-linejoin="round"/>
<path d="M2080.6 202L2049.4 217.6L2031.8 216.8L2039 198.4L2049.4 188.4L2066.2 179.6L2087 174L2118.6 174.8L2143.4 179.6L2103 198L2080.6 202Z" fill="#ECECEC" stroke="black" stroke-width="0.8" stroke-linecap="round" stroke-linejoin="round"/>
<path d="M1617.4 230.794L1563.4 241.194L1565.8 231.994L1541.8 220.794L1559.4 211.994L1589.4 196.794L1619.8 183.194L1621.4 170.794L1677.4 167.594L1694.2 171.994L1732.2 173.194L1739.8 178.794L1746.2 187.594L1720.2 192.794L1664.6 207.194L1627.8 221.994L1617.4 230.794Z" fill="#ECECEC" stroke="black" stroke-width="0.8" stroke-linecap="round" stroke-linejoin="round"/>
<path d="M2118.2 157.194L2101.8 164.794L2081 163.194L2068.2 157.994L2086.2 149.194L2113.8 143.594L2119.4 150.794L2118.2 157.194Z" fill="#ECECEC" stroke="black" stroke-width="0.8" stroke-linecap="round" stroke-linejoin="round"/>
<path d="M2083 122.406L2083.8 131.606L2072.6 141.606L2049.4 156.806L2021.8 158.806L2009 155.606L2022.6 144.006L1996.2 145.206L2013.4 130.006L2028.6 130.806L2059.4 124.006L2079 125.206L2083 122.406Z" fill="#ECECEC" stroke="black" stroke-width="0.8" stroke-linecap="round" stroke-linejoin="round"/>
<path d="M1925.4 132.803L1922.6 139.603L1940.2 136.403L1954.6 137.203L1945.4 147.203L1925 156.403L1869.4 159.603L1820.2 168.403L1796.2 168.803L1802.2 162.403L1845 153.203L1773.4 155.603L1756.6 152.003L1803.4 132.803L1825 127.203L1858.2 134.003L1869.8 145.603L1894.2 147.203L1897 128.403L1920.2 121.203L1932.6 123.203L1925.4 132.803Z" fill="#ECECEC" stroke="black" stroke-width="0.8" stroke-linecap="round" stroke-linejoin="round"/>
<path d="M2148.2 115.2L2157.4 121.6H2187L2192.6 128L2181.4 135.2L2193.8 139.6L2198.6 144.4L2218.2 145.2L2238.6 146.8L2267 142.8L2299.4 140.8L2322.6 142.4L2331.8 150L2327.8 158L2313.4 163.6L2286.6 168L2269.4 165.2L2222.2 168.4L2190.2 168.8L2167.8 166.4L2133.4 160L2139.8 148.8L2148.2 139.2L2142.6 130.4L2114.6 128L2104.2 122L2119.4 114L2148.2 115.2Z" fill="#ECECEC" stroke="black" stroke-width="0.8" stroke-linecap="round" stroke-linejoin="round"/>
<path d="M1845.4 104.797L1822.2 119.597L1801 126.397L1785.8 127.197L1746.2 135.597L1717.8 138.797L1703.4 134.397L1750.2 119.597L1799 107.197L1821 107.597L1845.4 104.797Z" fill="#ECECEC" stroke="black" stroke-width="0.8" stroke-linecap="round" stroke-linejoin="round"/>
<path d="M2170.2 107.203L2163 107.603L2136.6 106.403L2139.4 101.203L2168.2 101.603L2174.6 104.803L2170.2 107.203Z" fill="#ECECEC" stroke="black" stroke-width="0.8" stroke-linecap="round" stroke-linejoin="round"/>
<path d="M1935 103.603L1899.8 109.203L1886.6 103.203L1907 97.2031L1931 95.2031L1947.4 98.0031L1935 103.603Z" fill="#ECECEC" stroke="black" stroke-width="0.8" stroke-linecap="round" stroke-linejoin="round"/>
<path d="M1966.2 86.8063L1943.4 90.4062H1919.4L1923.4 87.6062L1946.2 82.4062L1953 83.2062L1966.2 86.8063Z" fill="#ECECEC" stroke="black" stroke-width="0.8" stroke-linecap="round" stroke-linejoin="round"/>
<path d="M2153.4 96.8L2127 100.8L2120.6 96.4L2123 89.6L2131.8 82L2149.4 82.8L2156.2 84L2165.4 90.4L2153.4 96.8Z" fill="#ECECEC" stroke="black" stroke-width="0.8" stroke-linecap="round" stroke-linejoin="round"/>
<path d="M2098.2 92L2093.8 99.6L2072.6 97.6L2056.6 91.6L2025.4 90.8L2046.6 85.6L2035.4 81.2L2044.2 74L2068.6 76.4L2098.6 83.2L2098.2 92Z" fill="#ECECEC" stroke="black" stroke-width="0.8" stroke-linecap="round" stroke-linejoin="round"/>
<path d="M2314.6 67.6062L2325.4 73.6062L2299.4 78.8063L2257 92.8063L2229.8 94.0062L2202.6 91.6062L2196.2 84.0062L2204.6 77.6062L2221.8 72.8063H2195.4L2187.4 66.8063L2189 59.2062L2208.6 51.6062L2225 46.4062L2241 45.2062L2239.8 41.2062L2273 40.4062L2279.4 49.2062L2298.2 52.8062L2317.4 56.4062L2314.6 67.6062Z" fill="#ECECEC" stroke="black" stroke-width="0.8" stroke-linecap="round" stroke-linejoin="round"/>
<path d="M2631.4 11.6L2666.2 12.8L2693 14.8L2713.8 18.8L2709.4 22.8L2670.2 29.6L2634.2 32.8L2618.2 36.4H2648.2L2606.2 46.4L2579 51.2L2541.8 65.2L2509.4 68L2497 72L2451.8 73.6L2469.4 76L2456.2 79.2L2459 88.4L2439 94.8L2411.4 100L2397.4 107.2L2371 113.2L2369 117.6L2395 116.8L2390.6 121.6L2339.8 133.2L2305.8 127.6L2259 130.8L2239 128.4L2211.8 127.2L2220.2 118L2252.2 113.6L2260.2 100L2270.6 98.8L2300.6 106.8L2293.8 94.8L2274.2 91.2L2294.2 84L2324.6 79.6L2335.8 73.2L2323.8 66.4L2328.2 57.6L2365.8 58L2374.6 60L2403.8 53.6L2374.6 51.6L2324.2 52.8L2306.6 47.2L2303.4 40.4L2293.4 35.6L2297.8 30.4L2321.8 27.2L2338.6 26.8L2368.2 24.4L2395.4 18.4L2411 19.2L2420.6 23.6L2440.6 15.6L2461.4 13.2L2487.4 11.6L2529 10.8L2534.2 12.4L2575.4 10L2603.4 10.8L2631.4 11.6Z" fill="#ECECEC" stroke="black" stroke-width="0.8" stroke-linecap="round" stroke-linejoin="round"/>
<path d="M1661 1726.39L1665.8 1740.39L1673.8 1750.79L1683.8 1761.59L1675 1763.99L1674.6 1774.39L1679 1777.99L1675.4 1781.19L1676.2 1785.59L1673.8 1790.79L1672.6 1795.99L1660.6 1790.39L1656.2 1784.79L1659 1780.39L1658.6 1774.79L1652.6 1768.79L1643.8 1763.59L1636.6 1760.39L1635.4 1752.79L1629.8 1748.39L1630.6 1755.59L1625.8 1761.99L1621 1754.79L1614.2 1751.99L1611.4 1747.19L1611.8 1739.19L1615.4 1731.19L1609.4 1727.59L1615 1722.39L1618.6 1719.19L1633 1725.99L1638.2 1722.79L1645.4 1724.79L1648.6 1729.99L1655.4 1731.99L1661 1726.39Z" fill="#ECECEC" stroke="black" stroke-width="0.8" stroke-linecap="round" stroke-linejoin="round"/>
<path d="M1781.8 1422.79L1789.4 1431.99L1810.2 1429.19L1817.4 1435.19L1834.2 1451.19L1847 1462.79L1854.2 1462.39L1867 1467.59L1864.6 1474.79L1880.6 1475.99L1896.2 1486.39L1893 1492.39L1877.8 1495.59L1862.6 1496.79L1847.8 1494.79L1815.4 1497.19L1832.2 1483.19L1823.8 1476.39L1809.4 1474.79L1802.6 1467.19L1799.4 1452.79L1786.6 1453.59L1766.6 1446.79L1760.6 1441.19L1732.2 1437.19L1725 1432.39L1734.2 1425.99L1712.6 1424.79L1695 1437.99L1685.8 1438.39L1681.8 1444.79L1670.6 1447.59L1661.4 1444.79L1674.2 1437.19L1680.2 1427.59L1691 1421.99L1703 1417.19L1720.2 1414.79L1725.8 1411.59L1744.6 1413.59L1762.2 1413.99L1781.8 1422.79Z" fill="#ECECEC" stroke="black" stroke-width="0.8" stroke-linecap="round" stroke-linejoin="round"/>
<path d="M1945.4 1544.01L1946.6 1536.81L1941.4 1529.21L1947.4 1524.81L1950.2 1514.81L1949.8 1501.21L1953 1496.81H1970.2L1983 1503.21L1989 1502.81L1991.8 1512.01L2004.2 1511.21L2002.6 1518.81L2012.6 1520.01L2022.6 1529.21L2013.4 1539.61L2003 1534.01L1992.6 1535.21L1985.4 1534.01L1981 1538.81L1972.2 1540.41L1969.4 1534.01L1961.8 1537.61L1951 1555.21L1945.8 1551.21L1945.4 1544.01Z" fill="#ECECEC" stroke="black" stroke-width="0.8" stroke-linecap="round" stroke-linejoin="round"/>
<path d="M1555 1549.99L1552.2 1570.39L1547 1599.19H1553.8L1560.6 1603.99L1563 1599.99L1569 1603.19L1557.8 1613.19L1546.2 1620.39L1544.2 1625.19L1545.4 1630.39L1540.2 1636.79L1534.6 1638.39L1535.8 1641.59L1531 1644.39L1523 1650.79L1521.8 1654.39L1510.6 1649.99L1496.6 1649.59L1487 1644.39L1475.8 1633.99L1477.4 1626.39L1480.6 1620.39L1477.8 1615.59L1491 1594.79H1519.8L1521.4 1585.99L1518.2 1584.39L1516.2 1578.79L1508.6 1572.79L1501.4 1564.39L1511.4 1563.99L1513.4 1549.59H1534.2L1555 1549.99Z" fill="#ECECEC" stroke="black" stroke-width="0.8" stroke-linecap="round" stroke-linejoin="round"/>
<path d="M1681 1622.01L1673.4 1621.61L1669.8 1625.21L1661.8 1628.41H1656.2L1651 1631.61L1646.6 1630.81L1643 1626.81L1640.6 1627.61L1637 1633.61L1635 1633.21L1634.2 1638.81L1625.8 1645.61L1621 1648.81L1618.6 1652.01L1612.6 1646.81L1607 1653.61H1602.2L1597 1654.01L1596.2 1666.81H1593L1589.8 1672.81L1582.6 1674.01L1579.4 1666.01L1572.6 1663.61L1575.4 1653.21L1572.6 1650.41L1567.8 1648.81L1557.8 1651.61L1557.4 1648.41L1551 1644.01L1546.6 1639.21L1540.2 1636.81L1545.4 1630.41L1544.2 1625.21L1546.2 1620.41L1557.8 1613.21L1569 1603.21L1571.4 1604.41L1576.6 1600.01L1583 1599.61L1585 1601.61L1588.6 1600.41L1599 1602.81L1609.4 1602.01L1616.6 1599.21L1619.8 1596.41L1626.6 1597.61L1631.8 1599.21L1637.8 1598.81L1642.6 1596.41L1652.6 1600.01L1655.8 1600.81L1662.2 1605.61L1668.2 1611.21L1675.8 1615.21L1681 1622.01Z" fill="#ECECEC" stroke="black" stroke-width="0.8" stroke-linecap="round" stroke-linejoin="round"/>
<path d="M1949.8 1501.2L1950.2 1514.8L1947.4 1524.8L1941.4 1529.2L1946.6 1536.8L1945.4 1544L1931 1539.6L1920.2 1541.2L1906.6 1539.6L1895.8 1544.4L1884.6 1536.4L1887.4 1528L1907.8 1531.6L1924.2 1533.6L1933 1528L1923.8 1516.8L1925.4 1506.8L1911.4 1502.8L1917.4 1496L1931 1496.8L1949.8 1501.2Z" fill="#ECECEC" stroke="black" stroke-width="0.8" stroke-linecap="round" stroke-linejoin="round"/>
<path d="M1828.6 1548.39L1821.4 1552.79L1809.4 1548.39L1797.8 1539.19L1801 1533.19L1810.6 1531.59L1815.8 1532.39L1830.6 1534.79L1841.4 1540.79L1844.6 1547.99L1828.6 1548.39Z" fill="#ECECEC" stroke="black" stroke-width="0.8" stroke-linecap="round" stroke-linejoin="round"/>
<path d="M1399.8 1343.6L1408.6 1342.8L1395.8 1365.6L1388.6 1384L1381.4 1418.4L1377 1430.8L1378.6 1444.8L1383.8 1457.6L1385.4 1477.2L1397.4 1496.4L1400.6 1511.2L1407.4 1523.6L1430.2 1530.4L1437.8 1541.2L1458.6 1534L1475.8 1531.6L1493.4 1526.8L1507.8 1522.4L1523.4 1512L1530.6 1497.2L1535.4 1475.6L1540.2 1468L1556.2 1461.2L1580.6 1455.2L1600.2 1456.4L1613.8 1454L1618.6 1459.6L1616.2 1472L1602.2 1487.2L1595 1502.8L1598.6 1507.2L1593.8 1518.4L1585.4 1538.4L1580.6 1531.6L1576.2 1532L1571.8 1532.4L1561.8 1548L1558.2 1544.8L1555.4 1546L1555 1550L1534.2 1549.6H1513.4L1511.4 1564L1501.4 1564.4L1508.6 1572.8L1516.2 1578.8L1518.2 1584.4L1521.4 1586L1519.8 1594.8H1491L1477.8 1615.6L1480.6 1620.4L1477.4 1626.4L1475.8 1634L1453.4 1606.4L1443 1598L1425.4 1591.2L1412.6 1593.2L1393.4 1602.8L1381.8 1605.2L1367 1598.4L1350.6 1593.6L1331.4 1582L1315 1578.4L1291.4 1566.4L1274.2 1554L1269.8 1547.2L1257.4 1545.6L1235.8 1537.6L1228.2 1526L1206.6 1511.2L1197.8 1495.2L1194.6 1482.4L1202.2 1480L1201 1472.8L1207.4 1466L1209 1457.2L1203 1445.6V1435.6L1197.8 1422.4L1182.6 1396.8L1164.2 1376.8L1156.6 1360.8L1140.2 1350.4L1137.4 1344L1144.2 1328.4L1134.6 1322.4L1124.6 1309.6L1123.8 1292L1112.6 1289.6L1103.4 1276.4L1096.6 1263.6L1097.8 1255.6L1091.8 1236.4L1090.6 1216.8L1093.8 1206.8L1081.4 1196.4L1073.8 1197.6L1064.2 1190.8L1057 1201.2L1056.6 1213.2L1052.6 1232.8L1056.6 1243.2L1067.8 1260.8L1069.4 1267.2L1072.2 1268.8L1072.6 1277.6L1076.6 1277.2V1294L1081.8 1300.4L1083.8 1309.6L1094.6 1322.4L1096.2 1346.4L1100.2 1357.6L1103.8 1369.6L1102.6 1383.2L1113 1384L1119.4 1395.6L1125.4 1407.2L1124.2 1412L1113 1421.2H1109L1106.2 1405.6L1094.6 1390.8L1081 1378.4L1071 1372L1075.8 1353.2L1075.4 1339.2L1067 1331.2L1054.6 1320L1051 1323.2L1047 1316.4L1035 1310.4L1026.2 1295.2L1028.2 1293.6L1036.6 1294.8L1047.4 1285.2L1051.4 1273.6L1039.8 1255.2L1029.4 1248.4L1026.2 1232.4L1023.8 1215.2L1020.6 1194.8L1019.8 1171.6L1045 1169.6L1073.4 1166.8L1069.8 1172L1097.8 1184.4L1141.4 1202.4H1184.6H1201.8L1205 1191.6H1242.6L1247.8 1200.8L1256.2 1209.2L1265.8 1220.4L1269 1233.6L1270.6 1248L1279.8 1255.6L1295.8 1263.2L1315 1243.2L1333 1242.4L1345.8 1252.8L1352.2 1270.4L1355.8 1285.6L1365.4 1300L1366.2 1318L1369.8 1330L1385.4 1338L1399.8 1343.6Z" fill="#ECECEC" stroke="black" stroke-width="0.8" stroke-linecap="round" stroke-linejoin="round"/>
<path d="M1681 1621.99L1679 1624.79L1677 1630.39L1678.6 1639.59L1672.6 1648.39L1669.4 1658.79L1667.4 1669.99L1668.2 1676.79L1667.8 1688.39L1664.2 1690.79L1661.4 1701.99L1662.2 1708.79L1657.4 1715.19L1657.8 1721.99L1661 1726.39L1655.4 1731.99L1648.6 1729.99L1645.4 1724.79L1638.2 1722.79L1633 1725.99L1618.6 1719.19L1615 1722.39L1607.8 1714.39L1597.8 1703.99L1593.4 1695.59L1584.6 1687.19L1574.6 1675.59L1577.4 1671.59L1580.6 1675.59L1582.6 1673.99L1589.8 1672.79L1593 1666.79H1596.2L1597 1653.99L1602.2 1653.59H1607L1612.6 1646.79L1618.6 1651.99L1621 1648.79L1625.8 1645.59L1634.2 1638.79L1635 1633.19L1637 1633.59L1640.6 1627.59L1643 1626.79L1646.6 1630.79L1651 1631.59L1656.2 1628.39H1661.8L1669.8 1625.19L1673.4 1621.59L1681 1621.99Z" fill="#ECECEC" stroke="black" stroke-width="0.8" stroke-linecap="round" stroke-linejoin="round"/>
<path d="M1799.8 1784.81L1797 1788.41L1801.4 1803.61L1797 1811.21L1789.8 1809.21L1786.2 1821.61L1779 1814.41L1775 1800.41L1780.6 1793.61L1775 1792.01L1771.4 1783.61L1760.2 1776.41L1750.6 1778.01L1745.4 1786.81L1735.8 1793.21L1731 1794.01L1728.6 1799.61L1738.6 1813.61L1732.2 1816.81L1729 1820.41L1718.2 1822.01L1715 1806.41L1711.8 1810.81L1704.6 1809.21L1700.6 1799.21L1691.4 1797.21L1685.4 1794.41H1675.8L1675 1800.01L1672.6 1796.01L1673.8 1790.81L1676.2 1785.61L1675.4 1781.21L1679 1778.01L1674.6 1774.41L1675 1764.01L1683.8 1761.61L1691.4 1770.81L1690.6 1776.41L1699.4 1777.61L1701.8 1775.21L1707.8 1781.61L1719 1779.61L1729 1773.21L1743 1768.01L1751 1760.41L1763.4 1762.01L1762.6 1764.41L1775 1765.21L1784.6 1770.01L1791.8 1777.61L1799.8 1784.81Z" fill="#ECECEC" stroke="black" stroke-width="0.8" stroke-linecap="round" stroke-linejoin="round"/>
<path d="M1572.6 1663.61L1569.8 1669.61L1556.6 1669.21L1548.6 1666.81L1539.8 1661.61L1527.8 1660.01L1521.8 1654.41L1523 1650.81L1531 1644.41L1535.8 1641.61L1534.6 1638.41L1540.2 1636.81L1546.6 1639.21L1551 1644.01L1557.4 1648.41L1557.8 1651.61L1567.8 1648.81L1572.6 1650.41L1575.4 1653.21L1572.6 1663.61Z" fill="#ECECEC" stroke="black" stroke-width="0.8" stroke-linecap="round" stroke-linejoin="round"/>
<path d="M77.8016 1517.21L73.4016 1521.61L68.6016 1518.01L71.0016 1510.81L69.4016 1501.21L71.4016 1498.41L76.2016 1494.41L75.8016 1489.21L77.4016 1486.81L79.0016 1487.21L86.6016 1491.61L90.2016 1494.01L93.0016 1497.21L96.6016 1506.41L95.8016 1507.61L85.8016 1513.21L77.8016 1517.21Z" fill="#ECECEC" stroke="black" stroke-width="0.8" stroke-linecap="round" stroke-linejoin="round"/>
<path d="M75.0016 1477.19L67.0016 1478.79L64.6016 1473.59L62.6016 1471.59V1469.99L65.4016 1467.59L72.6016 1469.99L77.4016 1473.99L75.0016 1477.19Z" fill="#ECECEC" stroke="black" stroke-width="0.8" stroke-linecap="round" stroke-linejoin="round"/>
<path d="M63.0047 1463.61L61.8047 1466.41L49.8047 1465.61L52.2047 1462.41L63.0047 1463.61Z" fill="#ECECEC" stroke="black" stroke-width="0.8" stroke-linecap="round" stroke-linejoin="round"/>
<path d="M44.1985 1459.59L42.5984 1461.19L40.9984 1460.79L33.3984 1459.99L32.1985 1453.99L31.3984 1453.19L38.1985 1449.59L39.7985 1451.19L44.1985 1459.59Z" fill="#ECECEC" stroke="black" stroke-width="0.8" stroke-linecap="round" stroke-linejoin="round"/>
<path d="M10.6 1442.81L7.39999 1445.21L1 1440.81L2.60001 1438.81L6.60001 1436.41L11.8 1436.81L10.6 1442.81Z" fill="#ECECEC" stroke="black" stroke-width="0.8" stroke-linecap="round" stroke-linejoin="round"/>
<path d="M1760.6 777.994L1736.2 785.994L1717.4 795.994L1699 806.794L1697 810.394L1719.8 805.194L1728.2 813.594L1746.6 807.594L1766.2 799.194L1787.8 790.794L1775.4 803.994L1785.4 807.194L1795.4 816.794L1815.8 811.194L1836.2 809.194L1837.4 816.394L1843.4 817.194L1848.2 817.994L1854.2 827.994L1835.4 830.394H1835L1820.2 827.594L1802.2 832.394L1787.4 834.794L1768.6 851.194L1756.6 860.394L1758.2 863.194L1780.2 846.794H1783L1764.2 866.394L1752.6 883.994L1742.6 898.394L1740.2 910.794L1737 916.794L1734.6 923.594L1735 936.794L1736.2 938.794L1743.4 938.394L1749.8 935.594L1755.4 932.394L1768.6 919.994L1775.8 903.194L1775.4 887.594L1781 876.794L1791.4 864.394L1799.8 855.594L1810.6 849.594L1809 857.994L1817.8 845.594L1823 843.194L1829.8 833.594L1845 838.794L1856.2 848.394L1853 859.994L1846.6 871.594L1831.4 881.594L1829.8 887.994H1833.8L1851 877.194L1857.4 879.594L1855.4 894.394L1852.6 904.794L1837.8 918.794L1829.8 927.594L1819 937.194L1829.8 942.394L1839.8 943.994L1855.8 940.394L1870.6 933.594L1882.6 929.994L1901 922.794L1924.2 907.594L1924.6 905.194L1925.8 897.594L1936.6 894.394L1952.2 895.594L1968.2 897.594L1986.6 889.194L1989 879.194L1988.2 875.594L2015.4 857.994L2026.2 853.594L2057.4 853.194H2094.6L2099 847.194L2105.8 845.994L2115.8 841.994L2127 830.394L2139.8 810.794L2161.8 791.994L2166.2 798.394L2181 794.394L2187.4 801.594L2175.8 835.594L2184.6 849.994L2185.4 858.394L2159.8 870.394L2135.8 879.194L2111.8 886.794L2095.8 901.994L2090.6 907.594L2085.8 921.194L2088.6 934.394L2097 935.194L2097.8 925.994L2102.2 931.594L2098.2 938.794L2083 942.794L2073 942.394L2056.2 946.794L2047 947.994L2034.6 949.194L2014.6 956.794L2047 951.994L2051.4 956.794L2019.8 964.394H2006.6L2008.2 961.194L1999.8 968.394L2005.4 969.594L1995.4 987.994L1974.2 1007.59L1974.6 1000.79L1970.2 999.594L1965.4 993.194V1007.19L1969.4 1011.59L1967 1021.19L1957.4 1031.19L1939.4 1051.59L1937.8 1050.79L1949.4 1033.19L1941.4 1023.59L1945.4 1001.99L1937.8 1013.19V1029.59L1925 1025.59L1937 1033.59L1931 1057.99L1936.6 1059.99V1068.79L1932.6 1094.39L1914.2 1113.19L1889.8 1120.79L1872.2 1135.99L1861 1137.59L1847.4 1147.19L1842.2 1155.59L1814.6 1172.39L1799.4 1184.79L1785.4 1199.99L1777.8 1217.99V1235.99L1780.2 1257.99L1786.2 1275.99L1784.2 1287.19L1789.4 1316.79L1785.4 1334.39L1783 1344.39L1775 1359.99L1767.8 1363.19L1757.4 1359.99L1755.8 1348.79L1748.6 1342.79L1740.6 1320.79L1734.2 1301.19L1732.6 1291.19L1740.6 1273.99L1737.4 1259.99L1725 1238.39L1717.4 1234.39L1693 1246.39L1689.4 1244.79L1681.4 1232.79L1669.4 1226.39L1643.8 1229.99L1625.4 1226.79L1608.2 1228.79L1598.2 1232.79L1600.6 1239.59L1597.8 1249.99L1601 1255.19L1596.2 1258.39L1589 1254.79L1579.8 1259.59L1564.2 1258.79L1551 1245.19L1531.4 1248.39L1517 1242.39L1503 1244.39L1483 1250.39L1458.6 1269.19L1434.2 1280.39L1419.4 1292.39L1411.8 1303.99L1407.8 1321.99L1406.2 1333.99L1408.6 1342.79L1399.8 1343.59L1385.4 1337.99L1369.8 1329.99L1366.2 1317.99L1365.4 1299.99L1355.8 1285.59L1352.2 1270.39L1345.8 1252.79L1333 1242.39L1315 1243.19L1295.8 1263.19L1279.8 1255.59L1270.6 1247.99L1269 1233.59L1265.8 1220.39L1256.2 1209.19L1247.8 1200.79L1242.6 1191.59H1205L1201.8 1202.39H1184.6H1141.4L1097.8 1184.39L1069.8 1171.99L1073.4 1166.79L1045 1169.59L1019.8 1171.59L1021 1158.79L1012.6 1143.99L1003.8 1140.79L1004.2 1133.59L992.602 1131.99L987.802 1125.19L968.602 1122.79L965.002 1118.39L968.202 1104.39L958.202 1078.79L956.202 1043.19L959.802 1037.19L954.602 1028.79L948.602 1007.19L955.802 986.394L952.202 972.394L967.802 951.194L979.002 929.594L983.402 909.994L1005.4 885.994L1021.4 863.194L1037.4 840.394L1054.6 806.394L1061.8 785.194L1063.4 773.594L1069 768.394L1092.2 777.194L1088.2 800.794L1097 793.994L1107 773.594L1113.4 753.194H1169.8H1228.6H1247.8H1308.2H1367H1426.2H1485.8H1553H1621H1661.8L1667 743.594H1673.8L1670.2 757.194L1674.2 761.194L1687.4 762.794L1705.8 766.794L1721.4 774.394L1739 771.194L1760.6 777.994Z" fill="#ECECEC" stroke="black" stroke-width="0.8" stroke-linecap="round" stroke-linejoin="round"/>
<path d="M702.598 554.4L674.598 563.6L671.398 557.2L680.598 546L706.198 537.6L720.198 534L730.598 535.6V543.2L702.598 554.4Z" fill="#ECECEC" stroke="black" stroke-width="0.8" stroke-linecap="round" stroke-linejoin="round"/>
<path d="M546.6 487.997L531 491.597L524.2 487.197L521 480.797L543.8 476.797L555.8 479.197L546.6 487.997Z" fill="#ECECEC" stroke="black" stroke-width="0.8" stroke-linecap="round" stroke-linejoin="round"/>
<path d="M551.4 398.406L556.2 402.406L570.2 400.406L576.6 406.406L589.8 409.206L585 412.006L565.4 416.806L558.6 411.606L557.4 407.606L540.2 408.806L539 406.806L551.4 398.406Z" fill="#ECECEC" stroke="black" stroke-width="0.8" stroke-linecap="round" stroke-linejoin="round"/>
<path d="M1242.6 266.394L1144.2 347.994L1001.8 478.794L1018.6 479.594L1029.8 485.994L1031.8 496.394L1033 511.594L1063.4 498.394L1089.4 490.794L1087 503.194L1090.2 512.794L1096.6 523.594L1092.2 540.394L1086.6 567.994L1105 583.194L1092.2 598.394L1071.8 609.994L1069.4 601.194L1059.4 593.194L1072.6 572.394L1066.2 552.794L1077 530.394L1060.6 528.794L1032.2 528.394L1017 521.194L1003.8 496.794L990.605 492.394L967.805 483.994L940.605 485.994L916.605 475.194L905.805 465.194L880.605 469.994L866.605 486.394L855.005 487.994L828.605 492.794L803.805 500.794L778.205 505.994L791.005 491.994L824.605 468.794L851.805 461.594L853.405 455.994L815.805 468.794L786.205 484.394L741.405 501.194L742.205 512.794L706.205 529.594L675.405 539.594L649.005 547.194L633.005 557.594L590.605 569.994L572.605 581.194L539.805 591.594L529.005 589.994L504.205 596.394L476.205 604.794L451.805 612.794L411.805 619.994L413.405 615.594L446.205 604.394L472.605 596.794L507.005 583.594L533.005 581.194L553.005 571.194L594.605 556.794L603.805 551.994L626.605 543.594L649.805 525.594L674.605 511.594L645.405 518.794L644.205 514.394L624.605 523.194L626.205 511.194L611.805 519.594L618.205 507.994L589.005 517.194H577.805L592.605 503.194L605.805 494.394L604.205 485.994L575.405 490.794L573.005 479.594L567.805 473.994L583.805 460.794L582.205 450.794L605.805 437.594L636.605 424.394L657.805 412.794L674.205 411.194L681.405 414.794L709.805 403.594L719.805 405.594L742.205 398.394L752.205 387.994L747.805 383.994L771.805 375.194L760.605 375.594L735.805 380.394L724.205 385.594L717.005 380.394L689.405 383.194L671.005 377.594L675.805 368.394L671.805 355.594L708.605 345.994L761.405 335.194H775.405L758.205 346.394L795.005 345.594L799.805 331.594L790.605 323.194L793.805 311.994L791.005 302.794L777.805 295.994L803.805 284.394L833.805 283.594L869.005 273.994L888.205 263.594L919.805 253.194L939.005 250.794L983.805 241.194L996.205 242.794L1037.8 231.594L1055.4 235.994L1053.4 245.594L1066.6 241.594L1091.8 242.794L1084.2 247.594L1103.8 251.194L1123.4 249.194L1148.2 255.594L1177 257.994L1185.8 260.394L1212.2 257.194L1228.6 263.594L1242.6 266.394Z" fill="#ECECEC" stroke="black" stroke-width="0.8" stroke-linecap="round" stroke-linejoin="round"/>
<path d="M1974.2 1688.01L1972.2 1687.21L1970.2 1685.21L1970.6 1682.81L1971.4 1684.01L1973 1685.61L1974.2 1687.61V1688.01Z" fill="#ECECEC" stroke="black" stroke-width="0.8" stroke-linecap="round" stroke-linejoin="round"/>
<path d="M2139.4 1539.6H2138.6L2139.8 1538H2141L2140.2 1539.2L2139.4 1539.6Z" fill="#ECECEC" stroke="black" stroke-width="0.8" stroke-linecap="round" stroke-linejoin="round"/>
<path d="M2165.4 1567.61L2167.8 1568.81L2167 1570.01H2166.2L2163.4 1570.41L2162.6 1570.01V1568.01L2163.8 1567.61L2164.2 1566.41H2165L2165.4 1567.61Z" fill="#ECECEC" stroke="black" stroke-width="0.8" stroke-linecap="round" stroke-linejoin="round"/>
<path d="M2165.4 1552.81H2166.2L2167 1553.61L2167.4 1555.21L2167 1556.41L2166.2 1556.81L2165.8 1556.01L2164.6 1555.21V1553.21L2165.4 1552.81Z" fill="#ECECEC" stroke="black" stroke-width="0.8" stroke-linecap="round" stroke-linejoin="round"/>
<path d="M1924.2 1463.99L1922.6 1465.99L1921.8 1467.99L1919.4 1469.19H1917.4L1917 1468.79L1915.4 1469.59L1913.4 1469.99L1911 1469.19L1909.4 1469.59L1909 1467.59L1910.2 1466.79L1911 1465.59L1912.6 1464.79L1913.8 1463.19H1915.4L1916.6 1462.39L1917.4 1463.59L1919.4 1464.39L1921.4 1463.59L1924.2 1459.59H1925.4V1460.39L1924.2 1463.99Z" fill="#ECECEC" stroke="black" stroke-width="0.8" stroke-linecap="round" stroke-linejoin="round"/>
<path d="M1925 1457.19L1924.2 1454.79L1926.6 1453.59L1927.8 1454.79V1455.59L1926.6 1455.99L1925 1457.19Z" fill="#ECECEC" stroke="black" stroke-width="0.8" stroke-linecap="round" stroke-linejoin="round"/>
<path d="M1926.6 1431.21L1927.4 1430.81L1929.4 1432.01H1931L1932.6 1432.41L1933.8 1433.21V1434.41L1933 1434.81L1931 1433.21H1929.4L1929 1432.81L1927 1433.61L1925 1432.81V1432.41L1925.8 1430.41L1926.6 1431.21Z" fill="#ECECEC" stroke="black" stroke-width="0.8" stroke-linecap="round" stroke-linejoin="round"/>
<path d="M1911 1424L1910.2 1425.6V1428.4L1909.8 1430L1908.2 1431.2L1907.4 1432.8L1905.8 1434L1903 1435.2L1902.6 1436L1901.8 1435.2L1902.2 1434.4L1903.8 1434L1904.6 1433.2V1432.4L1906.2 1432L1907 1430.4L1908.6 1430L1909.8 1428.4L1909 1427.2H1907.4L1906.6 1426.4L1908.2 1424.4L1908.6 1424H1911Z" fill="#ECECEC" stroke="black" stroke-width="0.8" stroke-linecap="round" stroke-linejoin="round"/>
<path d="M1903.4 1422.81L1903.8 1423.21H1905.4L1907 1424.01L1905.4 1425.61L1905 1424.81H1904.2L1902.6 1424.41L1901 1423.61L1899.8 1421.21L1901 1420.81L1902.6 1421.21L1903.4 1422.81Z" fill="#ECECEC" stroke="black" stroke-width="0.8" stroke-linecap="round" stroke-linejoin="round"/>
<path d="M1866.6 1399.19L1869 1401.99L1870.2 1402.79L1871.4 1404.79L1870.2 1404.39L1869.8 1403.59L1868.6 1403.19L1867 1401.59L1866.2 1401.19L1865.4 1399.59L1866.6 1399.19Z" fill="#ECECEC" stroke="black" stroke-width="0.8" stroke-linecap="round" stroke-linejoin="round"/>
<path d="M1881.4 1399.19L1882.6 1401.59L1883.4 1403.59V1405.19L1884.2 1405.99L1885 1408.79V1412.39L1885.8 1413.59L1887.8 1414.39L1889.4 1416.79V1419.99L1887.8 1417.19V1416.39L1886.6 1414.79L1884.2 1413.99L1885 1413.19L1883.8 1411.99V1410.79L1884.6 1409.59L1884.2 1407.59L1883 1405.99L1883.4 1405.59L1882.2 1403.99L1881.8 1401.59L1881 1401.99L1881.4 1399.19Z" fill="#ECECEC" stroke="black" stroke-width="0.8" stroke-linecap="round" stroke-linejoin="round"/>
<path d="M1893 1399.2L1891.8 1400L1890.6 1399.6L1890.2 1398.8L1892.6 1398L1893 1399.2Z" fill="#ECECEC" stroke="black" stroke-width="0.8" stroke-linecap="round" stroke-linejoin="round"/>
<path d="M1860.2 1391.61L1859.8 1391.21L1858.6 1388.41H1859.4L1860.2 1391.61Z" fill="#ECECEC" stroke="black" stroke-width="0.8" stroke-linecap="round" stroke-linejoin="round"/>
<path d="M1902.2 1389.59L1900.6 1391.99H1899L1899.8 1390.79L1900.2 1388.39L1901.8 1387.19L1902.2 1388.79V1389.59Z" fill="#ECECEC" stroke="black" stroke-width="0.8" stroke-linecap="round" stroke-linejoin="round"/>
<path d="M1828.2 1384.81L1827 1385.21L1826.2 1386.41L1825 1386.01L1827.4 1384.41L1828.2 1384.81Z" fill="#ECECEC" stroke="black" stroke-width="0.8" stroke-linecap="round" stroke-linejoin="round"/>
<path d="M1829 1387.59L1830.6 1388.39L1831.4 1387.59L1831.8 1385.59L1832.6 1385.19L1833.4 1387.59V1389.59L1833 1390.79L1833.4 1393.19V1394.39L1831.8 1397.59L1831 1397.99L1829.4 1397.19L1830.2 1395.99L1831.8 1395.19L1831.4 1394.79L1829 1396.39L1828.2 1395.59L1829.8 1394.39H1828.2L1827.4 1394.79L1826.6 1393.99V1391.19L1827 1390.39L1825.4 1388.39V1387.59L1827 1386.79L1827.4 1385.59L1828.6 1385.19L1829 1384.39L1831.4 1383.19L1831.8 1384.79L1829.8 1386.39L1829 1387.59Z" fill="#ECECEC" stroke="black" stroke-width="0.8" stroke-linecap="round" stroke-linejoin="round"/>
<path d="M1883 1385.21L1883.4 1387.21L1882.6 1386.81L1880.6 1387.21L1879 1387.61L1878.6 1386.81L1879.8 1386.01L1881.4 1384.81V1384.01L1879.8 1383.21L1879 1380.81L1878.6 1378.41L1877 1376.81V1376.01L1875 1374.01L1876.2 1372.81L1877.8 1374.41V1376.41L1878.6 1377.61L1879 1379.61L1880.2 1381.61L1881.8 1382.81L1882.2 1384.01L1883 1385.21Z" fill="#ECECEC" stroke="black" stroke-width="0.8" stroke-linecap="round" stroke-linejoin="round"/>
<path d="M1841.8 1363.19L1843 1363.99L1840.6 1365.19L1839.4 1364.79L1838.6 1365.59L1836.6 1365.19L1837.4 1363.99L1839 1363.19H1841.8Z" fill="#ECECEC" stroke="black" stroke-width="0.8" stroke-linecap="round" stroke-linejoin="round"/>
<path d="M1825 1361.2L1826.6 1360.4L1827.8 1361.6L1827.4 1362.4L1827.8 1363.2L1827 1364.8L1828.2 1366L1829 1369.6L1829.8 1370.8L1831.4 1372.8L1830.6 1375.6L1831 1378L1830.2 1379.2L1829 1379.6L1827.4 1381.2L1826.2 1382H1825L1823.8 1382.8H1822.6V1381.2L1821.4 1380.4L1821.8 1378L1820.6 1379.2L1819.8 1378.8L1817.4 1377.2L1816.2 1376L1815.4 1374.8L1818.2 1373.6L1820.2 1376.4L1820.6 1374L1819.4 1373.6L1819 1372.4L1819.4 1371.2L1821.8 1368.8L1822.6 1367.2L1822.2 1366.8L1823.4 1365.2V1363.2L1822.6 1360.4L1823 1360H1824.2L1825 1361.2Z" fill="#ECECEC" stroke="black" stroke-width="0.8" stroke-linecap="round" stroke-linejoin="round"/>
<path d="M1857.4 1350.81L1857.8 1351.61L1859 1353.21L1862.2 1356.01L1864.2 1356.41L1864.6 1356.81L1865.4 1358.41L1866.6 1360.01L1868.6 1361.61V1362.41L1867.8 1365.61L1867.4 1366.41V1367.61L1867 1369.61L1866.2 1370.81L1865.8 1373.61L1865.4 1374.01L1864.6 1371.61L1863 1370.41L1863.4 1369.61L1865.4 1370.01L1866.2 1369.21L1865.8 1368.41L1866.2 1366.81L1867.4 1365.21L1867.8 1363.21V1362.01L1865.8 1360.41L1864.2 1357.61L1863 1356.81L1860.6 1355.61L1859.4 1354.41L1857 1353.61L1855.4 1354.41L1857 1350.81H1857.4Z" fill="#ECECEC" stroke="black" stroke-width="0.8" stroke-linecap="round" stroke-linejoin="round"/>
<path d="M1822.2 1320.81L1824.2 1321.61H1824.6L1827.4 1322.01L1828.2 1321.21L1829 1321.61H1831L1832.6 1320.81H1834.2L1835.4 1320.01L1835.8 1322.01L1835.4 1322.81H1834.2H1832.6L1828.2 1323.61H1827L1821 1325.21L1818.2 1326.81H1816.6L1815.8 1326.41L1814.6 1325.21L1812.6 1322.81L1815 1324.01L1815.4 1324.81H1817.4L1819.4 1324.01L1821 1321.61L1819.8 1321.21L1820.6 1320.01L1821 1318.81L1822.2 1320.81Z" fill="#ECECEC" stroke="black" stroke-width="0.8" stroke-linecap="round" stroke-linejoin="round"/>
<path d="M1839.4 1315.59L1842.6 1316.39L1843.4 1315.99L1845 1317.19L1848.6 1321.19L1849.4 1323.59L1851 1323.99L1853.8 1325.99V1326.79L1853 1328.79L1853.8 1331.59H1852.2L1850.2 1333.19L1849.8 1333.99L1848.6 1337.99L1848.2 1341.59L1847.4 1342.39L1846.2 1341.59L1845.8 1339.99L1844.2 1339.59L1845.4 1337.59H1846.2L1848.2 1335.99L1847.8 1334.39L1848.6 1332.79V1331.59L1849.4 1330.39V1327.99L1850.2 1327.59L1851 1326.39L1851.4 1325.19L1850.2 1324.79L1848.2 1324.39L1847.8 1323.19V1322.39L1846.2 1321.59V1320.39L1845 1317.59L1844.2 1317.19L1843 1317.59L1841 1317.19H1839.8L1837.4 1315.59H1839.4Z" fill="#ECECEC" stroke="black" stroke-width="0.8" stroke-linecap="round" stroke-linejoin="round"/>
<path d="M2143.4 1548.01L2143 1546.81L2144.2 1547.21L2143.4 1548.01Z" fill="#ECECEC" stroke="black" stroke-width="0.8" stroke-linecap="round" stroke-linejoin="round"/>
<path d="M2151.8 1175.99H2150.6L2150.2 1176.39L2150.6 1177.19L2149 1177.99L2148.6 1177.59L2149.4 1177.19H2149.8L2150.2 1175.99L2151.4 1175.59L2151.8 1175.99Z" fill="#ECECEC" stroke="black" stroke-width="0.8" stroke-linecap="round" stroke-linejoin="round"/>
<path d="M2208.6 1672.01L2206.2 1671.21L2205.8 1669.21V1666.01L2206.6 1664.41L2207.4 1665.21L2208.2 1667.61L2210.2 1668.81L2210.6 1670.41L2208.6 1672.01Z" fill="#ECECEC" stroke="black" stroke-width="0.8" stroke-linecap="round" stroke-linejoin="round"/>
<path d="M1733.4 1511.2L1734.6 1511.6L1735.4 1510L1737 1510.4H1739L1739.4 1511.2L1738.6 1512L1737.8 1511.6L1736.2 1512L1735.4 1512.4H1732.6L1733.4 1511.2Z" fill="#ECECEC" stroke="black" stroke-width="0.8" stroke-linecap="round" stroke-linejoin="round"/>
<path d="M1765.8 1501.19L1763 1502.39L1763.8 1501.19H1765.8Z" fill="#ECECEC" stroke="black" stroke-width="0.8" stroke-linecap="round" stroke-linejoin="round"/>
<path d="M1768.2 1501.6L1767.8 1501.2L1771 1500L1770.2 1501.2L1768.2 1501.6Z" fill="#ECECEC" stroke="black" stroke-width="0.8" stroke-linecap="round" stroke-linejoin="round"/>
<path d="M2170.6 1606.8L2172.6 1607.2L2173.4 1609.2V1611.6L2173 1614.8L2172.6 1615.6L2171.8 1616L2170.2 1616.8L2170.6 1615.2L2170.2 1614.4L2169.8 1611.6L2168.6 1609.6V1608.4L2169 1607.2V1606H2169.8L2170.6 1606.8Z" fill="#ECECEC" stroke="black" stroke-width="0.8" stroke-linecap="round" stroke-linejoin="round"/>
<path d="M2147.8 1567.99H2146.6L2146.2 1567.19L2147 1565.59H2147.8L2148.2 1566.39L2147.8 1567.99Z" fill="#ECECEC" stroke="black" stroke-width="0.8" stroke-linecap="round" stroke-linejoin="round"/>
<path d="M2145 1562L2144.6 1563.2H2143.8L2142.2 1562.4L2141.4 1561.6L2142.6 1560L2144.6 1561.6L2145 1562Z" fill="#ECECEC" stroke="black" stroke-width="0.8" stroke-linecap="round" stroke-linejoin="round"/>
<path d="M2177.4 1655.19L2176.6 1654.39L2175 1653.59L2174.6 1652.79V1650.39L2175 1649.59L2177.8 1645.19L2179 1645.99V1648.79L2178.6 1651.99L2178.2 1653.59L2177.4 1655.19Z" fill="#ECECEC" stroke="black" stroke-width="0.8" stroke-linecap="round" stroke-linejoin="round"/>
<path d="M2139.4 1544L2137.8 1543.6L2138.6 1542.4L2139.8 1542L2139.4 1544Z" fill="#ECECEC" stroke="black" stroke-width="0.8" stroke-linecap="round" stroke-linejoin="round"/>
<path d="M2155.4 1575.59L2156.2 1577.19V1578.39L2155.4 1579.19L2154.6 1578.79L2154.2 1577.59L2155.4 1575.59Z" fill="#ECECEC" stroke="black" stroke-width="0.8" stroke-linecap="round" stroke-linejoin="round"/>
<path d="M2031 1543.6L2029.8 1542.8L2030.2 1542H2031.4L2031.8 1542.4L2031 1543.6Z" fill="#ECECEC" stroke="black" stroke-width="0.8" stroke-linecap="round" stroke-linejoin="round"/>
<path d="M2089.4 1541.61H2088.6L2085 1542.81H2082.6L2083.4 1542.01L2085 1541.21L2086.6 1540.81L2089 1541.21L2089.4 1541.61Z" fill="#ECECEC" stroke="black" stroke-width="0.8" stroke-linecap="round" stroke-linejoin="round"/>
<path d="M2051.4 1531.99L2053.8 1532.39H2056.2L2057.4 1532.79L2059.8 1532.39L2061 1532.79L2062.6 1532.39L2063.4 1532.79L2065.4 1532.39L2067 1532.79H2068.2L2071.4 1533.59V1532.79L2073.8 1533.59L2074.2 1533.19L2077.4 1533.59L2078.2 1534.39H2079L2081.4 1535.59L2082.2 1535.19L2081.8 1537.99L2082.6 1539.19L2079 1540.39L2077.8 1541.99L2076.6 1544.39L2075.4 1545.19L2074.2 1545.59H2072.6L2070.2 1545.99L2069 1546.79L2066.2 1546.39L2065.4 1545.59L2063.4 1546.39L2062.2 1545.19L2059.4 1545.99L2055.8 1545.59L2054.6 1545.99L2052.2 1546.39L2051.4 1546.79L2050.6 1545.99L2049 1545.59L2047.8 1546.39L2045.4 1545.99L2046.6 1543.19V1541.59L2047.4 1539.99L2046.6 1537.59L2045.8 1537.19L2045.4 1535.59L2047 1534.79L2047.8 1534.39V1532.39L2049.4 1531.59L2051.4 1531.99Z" fill="#ECECEC" stroke="black" stroke-width="0.8" stroke-linecap="round" stroke-linejoin="round"/>
<path d="M2139.4 1543.99V1544.39L2137.8 1543.99V1543.59L2139.4 1543.99Z" fill="#ECECEC" stroke="black" stroke-width="0.8" stroke-linecap="round" stroke-linejoin="round"/>
<path d="M1953.4 1446.41H1956.2L1957.4 1448.01H1956.2L1955 1447.61L1953 1448.01L1952.6 1446.81L1953.4 1446.41Z" fill="#ECECEC" stroke="black" stroke-width="0.8" stroke-linecap="round" stroke-linejoin="round"/>
<path d="M1942.6 1446L1943.8 1447.6L1946.2 1447.2L1945.4 1448H1943L1941.4 1447.2L1942.6 1446Z" fill="#ECECEC" stroke="black" stroke-width="0.8" stroke-linecap="round" stroke-linejoin="round"/>
<path d="M1951.4 1443.59V1445.59L1949.4 1444.79L1949 1443.59L1949.4 1443.19L1951.4 1443.59Z" fill="#ECECEC" stroke="black" stroke-width="0.8" stroke-linecap="round" stroke-linejoin="round"/>
<path d="M2171.4 1669.6L2171 1670L2169 1668.8V1667.2L2169.8 1666L2170.6 1664H2172.2L2172.6 1665.6L2172.2 1668.8L2171.4 1669.6Z" fill="#ECECEC" stroke="black" stroke-width="0.8" stroke-linecap="round" stroke-linejoin="round"/>
<path d="M2107 1533.59L2105.4 1534.39H2105L2103.8 1535.19L2103.4 1534.79L2103.8 1533.59L2106.2 1533.19L2107 1533.59Z" fill="#ECECEC" stroke="black" stroke-width="0.8" stroke-linecap="round" stroke-linejoin="round"/>
<path d="M2100.6 1551.21L2101.8 1552.41L2097.4 1553.21L2097 1551.21L2099.8 1550.41L2100.6 1551.21Z" fill="#ECECEC" stroke="black" stroke-width="0.8" stroke-linecap="round" stroke-linejoin="round"/>
<path d="M2103.4 1535.99L2102.6 1536.79H2100.6V1535.99L2101.8 1535.59L2103.4 1535.99Z" fill="#ECECEC" stroke="black" stroke-width="0.8" stroke-linecap="round" stroke-linejoin="round"/>
<path d="M2097.8 1535.19L2099.4 1536.39L2098.6 1537.19L2097.4 1536.39H2095.4L2096.2 1535.59L2097.8 1535.19Z" fill="#ECECEC" stroke="black" stroke-width="0.8" stroke-linecap="round" stroke-linejoin="round"/>
<path d="M2139.8 1558.39L2139 1558.79V1557.99L2139.4 1557.59L2139.8 1558.39Z" fill="#ECECEC" stroke="black" stroke-width="0.8" stroke-linecap="round" stroke-linejoin="round"/>
<path d="M2133.8 1554.8H2133.4L2133.8 1554L2134.2 1554.4L2133.8 1554.8Z" fill="#ECECEC" stroke="black" stroke-width="0.8" stroke-linecap="round" stroke-linejoin="round"/>
<path d="M2178.6 1627.59V1628.39L2180.2 1627.99L2179.4 1629.99L2180.2 1630.79V1631.59L2181 1632.39L2181.8 1635.99L2180.6 1637.19L2180.2 1635.59L2179.8 1635.99L2177.4 1635.59H2175.8L2175 1634.39L2177.4 1632.39H2175.8L2174.2 1630.79L2173.8 1628.79L2173 1626.79L2174.2 1625.19L2175.8 1625.59L2177.8 1626.79L2178.6 1627.59Z" fill="#ECECEC" stroke="black" stroke-width="0.8" stroke-linecap="round" stroke-linejoin="round"/>
<path d="M2174.6 1599.6H2173.4L2172.6 1598L2173 1597.2L2174.2 1596L2175.4 1596.8L2175.8 1598V1598.8L2174.6 1599.6Z" fill="#ECECEC" stroke="black" stroke-width="0.8" stroke-linecap="round" stroke-linejoin="round"/>
<path d="M2167.4 1589.19H2168.6V1589.99V1590.39L2167.8 1590.79V1593.99V1595.59L2167 1596.39L2164.6 1597.59V1596.79L2163.8 1595.99L2163.4 1593.99V1591.99L2163 1589.99V1588.79L2163.8 1587.59L2165 1587.19L2167 1588.39L2167.4 1589.19Z" fill="#ECECEC" stroke="black" stroke-width="0.8" stroke-linecap="round" stroke-linejoin="round"/>
<path d="M2173 1587.59L2174.6 1587.99L2176.6 1589.59L2171.4 1590.79L2170.2 1591.19L2168.6 1589.99L2169 1587.59L2169.8 1587.19L2169.4 1584.79L2169.8 1583.99L2171 1583.19L2172.2 1584.79V1586.39L2173 1587.59Z" fill="#ECECEC" stroke="black" stroke-width="0.8" stroke-linecap="round" stroke-linejoin="round"/>
</g>
<defs>
<clipPath id="clip0_543_80591">
<rect width="2715" height="1823" fill="white"/>
</clipPath>
</defs>
</svg>
