<svg width="1061" height="1781" viewBox="0 0 1061 1781" fill="none" xmlns="http://www.w3.org/2000/svg">
<g clip-path="url(#clip0_543_81065)">
<path d="M576.195 1762.61L564.195 1761.81H544.195L520.195 1707.41L532.595 1718.61L549.795 1737.01L580.995 1751.81L610.195 1757.81L606.995 1769.81L589.396 1771.01L576.195 1762.61Z" fill="#ECECEC" stroke="black" stroke-width="0.8" stroke-linecap="round" stroke-linejoin="round"/>
<path d="M454.195 934.613L499.396 976.212L517.795 980.212L546.995 999.413L570.595 1009.41L574.995 1020.61L558.195 1059.81L581.396 1066.61L606.595 1070.61L623.396 1066.61L640.595 1046.61L641.795 1024.21L652.195 1019.01L664.995 1034.21L666.595 1054.61L649.795 1068.61L636.595 1079.01L615.396 1104.21L591.396 1139.01L589.396 1159.81L587.795 1186.21L592.595 1211.81L588.995 1217.41L590.595 1233.81L591.795 1247.41L622.995 1269.41L623.795 1287.01L639.396 1298.21L640.595 1310.61L627.396 1343.41L599.396 1357.41L558.595 1362.61L534.595 1359.81L542.995 1375.41L543.396 1394.21L550.595 1407.01L540.595 1416.21L520.195 1419.81L497.795 1410.21L491.795 1417.01L501.795 1442.21L517.795 1449.81L526.995 1441.81L536.995 1455.01L520.195 1463.01L508.595 1479.01L513.396 1504.21L512.995 1517.81H493.795L481.795 1530.61L482.195 1549.81L508.195 1568.21L528.995 1573.01L529.795 1595.81L511.396 1609.81L508.995 1639.01L494.995 1648.61L491.396 1660.21L508.195 1686.21L526.595 1700.21L518.195 1699.01L498.595 1695.01L450.195 1691.81L436.195 1677.41L428.595 1659.01L416.195 1660.61L405.795 1651.41L393.396 1625.41L404.195 1614.21L404.595 1598.61L397.396 1585.81L400.195 1564.21L395.795 1531.01L388.595 1516.21L395.795 1511.41L390.195 1501.81L378.995 1497.01L382.195 1486.21L369.795 1476.61L354.995 1447.41L361.795 1442.21L348.595 1411.01L345.396 1385.01L344.595 1362.21L354.595 1353.01L341.396 1327.81L334.995 1304.61L346.995 1287.81L341.396 1266.21L347.795 1241.41L342.195 1217.81L335.795 1213.01L316.195 1168.61L324.595 1142.21L317.795 1117.41L321.396 1093.81L331.795 1069.81L344.995 1053.81L336.995 1043.81L340.195 1035.41L333.795 992.613L356.195 980.212L360.995 953.413L357.396 947.012L373.396 923.812L403.396 930.212L418.195 948.613L424.595 927.812L450.195 929.012L454.195 934.613Z" fill="#ECECEC" stroke="black" stroke-width="0.8" stroke-linecap="round" stroke-linejoin="round"/>
<path d="M549.8 881.413L548.6 873.413L527 860.212L506.2 859.812L467.8 867.413L459.4 889.812L460.2 903.812L454.2 934.613L450.2 929.012L424.6 927.812L418.2 948.613L403.4 930.212L373.4 923.812L357.4 947.012L341.8 950.613L329.4 915.012L314.6 886.212L319 861.413L306.2 850.613L301.4 832.212L288.6 814.613L300.2 787.012L288.6 765.413L293 756.613L288.2 747.012L295.8 734.212L294.6 712.613V694.212L299 685.812L277 644.212L293.8 646.613L305.4 645.812L309.8 638.212L329 627.812L340.6 618.212L369.8 613.812L368.2 633.012L371.8 643.012L370.6 660.212L396.6 683.012L422.2 687.413L431.4 697.012L447 702.212L457 709.413H471L484.6 717.012L486.6 731.812L491.4 739.413L492.6 750.212L485.8 750.613L497 780.613L539.8 781.812L537.8 796.613L541 806.613L553.8 813.812L560.6 829.812L558.2 850.212L553 861.413L556.2 875.812L549.8 881.413Z" fill="#ECECEC" stroke="black" stroke-width="0.8" stroke-linecap="round" stroke-linejoin="round"/>
<path d="M562.997 314.225L575.397 316.625L577.797 311.025L573.797 306.225L576.197 298.625L585.397 301.025L596.197 298.225L608.997 303.825L618.997 309.025L625.797 302.225L630.997 303.025L634.197 310.225L644.997 308.625L653.797 298.625L660.997 279.825L674.597 256.225L682.597 255.025L687.797 269.425L699.797 314.225L712.197 318.625L712.597 336.225L695.397 357.425L702.197 365.025L742.597 369.025L743.397 395.025L760.597 378.225L788.997 387.425L826.997 403.025L838.197 417.825L834.597 432.225L860.997 424.225L904.997 437.825L938.997 437.025L972.597 458.225L1002.2 487.025L1019.8 494.225L1039 495.425L1047.4 503.425L1055.4 536.225L1059.8 551.825L1051.4 594.225L1040.6 611.025L1009.8 646.625L996.197 675.825L980.197 697.825L974.597 698.625L969.397 717.425L972.997 765.425L968.597 805.025L967.397 821.825L960.997 832.225L958.997 866.625L938.197 899.825L936.197 926.625L918.997 937.425L914.597 953.025H890.597L856.597 962.625L841.797 974.225L817.797 981.825L793.397 1002.22L776.997 1027.82L775.797 1047.02L780.997 1061.02L779.797 1087.02L776.597 1099.43L762.997 1113.82L744.997 1159.02L728.997 1179.02L716.197 1191.43L710.197 1215.82L698.597 1230.22L690.197 1215.82L697.397 1203.43L682.197 1186.22L662.997 1171.82L637.797 1155.43L630.197 1156.22L604.997 1136.22L591.397 1139.02L615.397 1104.22L636.597 1079.02L649.797 1068.62L666.597 1054.62L664.997 1034.22L652.197 1019.02L641.797 1024.22L644.597 1009.43L645.797 994.225L644.597 979.825L636.197 975.425L628.197 979.425L619.797 978.225L616.597 968.625L612.197 945.025L607.397 937.425L591.797 930.225L582.997 935.425L559.397 930.225L557.797 895.425L549.797 881.425L556.197 875.825L552.997 861.425L558.197 850.225L560.597 829.825L553.797 813.825L540.997 806.625L537.797 796.625L539.797 781.825L496.997 780.625L485.797 750.625L492.597 750.225L491.397 739.425L486.597 731.825L484.597 717.025L470.997 709.425H456.997L446.997 702.225L431.397 697.025L422.197 687.425L396.597 683.025L370.597 660.225L371.797 643.025L368.197 633.025L369.797 613.825L340.597 618.225L328.997 627.825L309.797 638.225L305.397 645.825L293.797 646.625L276.997 644.225L264.197 648.625L253.797 645.825L253.397 607.025L235.797 621.825L215.797 621.425L206.597 607.425L191.397 606.225L195.397 595.025L182.197 579.425L171.797 556.225L177.797 551.825L176.997 540.625L190.597 533.425L187.797 519.425L193.397 510.625L194.597 498.625L219.797 481.025L238.197 476.225L241.397 472.225L261.797 473.425L270.597 403.025L270.997 391.825L267.397 377.425L256.997 367.825L257.397 349.025L270.197 345.025L274.597 347.825L275.397 337.825L262.197 335.025V319.025L306.197 319.825L313.797 310.625L320.197 319.025L324.197 334.225L328.597 331.025L340.997 344.625L358.597 343.025L362.997 335.025L379.797 329.025L389.397 324.625L392.197 313.825L408.597 306.625L407.397 301.025L388.197 299.025L385.397 282.625L386.597 265.425L376.597 259.025L380.997 256.625L397.397 259.825L415.397 266.225L422.197 260.225L438.597 256.225L464.197 246.625L472.597 236.625L469.797 229.425L481.797 228.625L486.597 234.225L483.397 245.825L491.397 249.425L496.197 261.425L489.797 270.625L485.797 292.225L491.397 305.425L492.597 317.425L506.597 329.425L517.797 330.625L520.197 325.425L527.397 324.225L537.797 319.825L544.997 313.025L557.797 315.425L562.997 314.225Z" fill="#ECECEC" stroke="black" stroke-width="0.8" stroke-linecap="round" stroke-linejoin="round"/>
<path d="M237.396 60.6125L222.595 65.0125L216.195 77.8125L206.995 85.0125L199.795 94.6125L196.195 113.012L188.995 128.213L200.595 129.812L202.995 141.412L207.795 147.412L208.995 157.412L206.195 167.012L206.595 172.613L212.195 174.613L216.995 183.412L246.195 181.012L259.396 184.213L274.595 206.613L283.795 203.812L300.195 205.012L312.995 202.213L320.995 206.613L316.195 220.213L310.995 229.012L308.595 247.412L312.995 264.613L318.995 272.213L319.795 277.812L308.195 290.613L316.195 296.213L322.195 305.412L328.595 331.012L324.195 334.213L320.195 319.012L313.795 310.613L306.195 319.812L262.195 319.012V335.012L275.396 337.812L274.595 347.812L270.195 345.012L257.396 349.012L256.995 367.812L267.396 377.412L270.995 391.812L270.595 403.012L261.795 473.413L250.195 459.812L243.396 459.413L257.396 433.012L239.795 421.012L226.195 423.413L217.795 419.012L205.396 425.812L188.595 422.212L174.595 395.412L164.195 389.012L156.995 376.613L141.795 364.613L135.795 367.012L126.195 361.012L114.995 352.613L108.595 356.613L89.3955 353.012L83.7954 341.812L79.3955 342.213L56.9954 327.812L54.1953 319.812L62.5955 317.812L61.7954 305.012L67.3955 295.412L78.5955 293.812L88.5955 277.812L97.3955 264.213L89.3955 258.213L94.1953 243.412L89.7954 219.812L94.9954 213.012L92.1953 191.412L83.3955 177.412L86.9954 165.012L94.1953 167.012L98.5955 159.412L94.1953 144.213L96.9954 140.613L108.595 141.412L126.595 123.412L136.195 120.613L136.595 112.213L142.195 90.2125L155.795 78.6125L169.795 77.8125L172.195 72.6125L189.795 74.6125L208.195 61.8125L217.396 56.2125L228.995 43.8125L236.995 45.4125L242.195 52.2125L237.396 60.6125Z" fill="#ECECEC" stroke="black" stroke-width="0.8" stroke-linecap="round" stroke-linejoin="round"/>
<path d="M135.798 367.012L138.998 386.613L132.198 403.012L107.798 430.212L80.9983 440.212L67.3984 462.613L63.7983 479.812L51.3984 490.613L41.3984 477.413L32.1982 474.613L22.9983 476.613L21.7983 467.413L28.1982 461.413L25.3984 450.613L36.9983 431.413L31.7983 420.212L23.3984 432.212L9.39844 420.613L13.7983 413.413L9.79834 390.213L17.7983 386.213L21.7983 370.213L30.1982 353.812L28.9983 343.412L41.3984 337.812L56.9983 327.812L79.3984 342.213L83.7983 341.812L89.3984 353.012L108.598 356.613L114.998 352.613L126.198 361.012L135.798 367.012Z" fill="#ECECEC" stroke="black" stroke-width="0.8" stroke-linecap="round" stroke-linejoin="round"/>
<path d="M551.4 209.819L547.4 233.019L533.4 239.419L534.6 245.419L530.2 259.019L539.8 277.419H547L549.8 291.819L563 314.219L557.8 315.419L545 313.019L537.8 319.819L527.4 324.219L520.2 325.419L517.8 330.619L506.6 329.419L492.6 317.419L491.4 305.419L485.8 292.219L489.8 270.619L496.2 261.419L491.4 249.419L483.4 245.819L486.6 234.219L481.8 228.619L469.8 229.419L455 210.219L461.4 203.019V191.019L475.4 187.019L481 182.219L473.8 172.619L475.8 163.419L494.6 148.219L509 157.819L522.2 174.219L522.6 187.819L531 188.219L543 200.619L551.4 209.819Z" fill="#ECECEC" stroke="black" stroke-width="0.8" stroke-linecap="round" stroke-linejoin="round"/>
<path d="M261.8 473.425L241.4 472.225L238.2 476.225L219.8 481.025L194.6 498.625L193.4 510.625L187.8 519.425L190.6 533.425L177 540.625L177.8 551.825L171.8 556.225L182.2 579.425L195.4 595.025L191.4 606.225L206.6 607.425L215.8 621.425L235.8 621.825L253.4 607.025L253.8 645.825L264.2 648.625L277 644.225L299 685.825L294.6 694.225V712.625L295.8 734.225L288.2 747.025L293 756.625L288.6 765.425L300.2 787.025L288.6 814.625L284.2 827.825L273 834.225L249.4 819.425L246.2 809.025L199.4 783.425L156.6 755.025L137.8 739.425L126.6 718.225L129.8 710.625L108.2 677.025L82.6001 629.825L58.6001 578.625L49 566.625L41 547.825L22.6001 531.025L6.19995 520.625L13 509.425L1 484.625L7.80005 466.625L25.4001 450.625L28.2 461.425L21.8 467.425L23 476.625L32.2 474.625L41.4001 477.425L51.4001 490.625L63.8 479.825L67.4001 462.625L81 440.225L107.8 430.225L132.2 403.025L139 386.625L135.8 367.025L141.8 364.625L157 376.625L164.2 389.025L174.6 395.425L188.6 422.225L205.4 425.825L217.8 419.025L226.2 423.425L239.8 421.025L257.4 433.025L243.4 459.425L250.2 459.825L261.8 473.425Z" fill="#ECECEC" stroke="black" stroke-width="0.8" stroke-linecap="round" stroke-linejoin="round"/>
<path d="M549.795 881.413L557.795 895.413L559.396 930.212L582.995 935.413L591.795 930.212L607.396 937.413L612.195 945.012L616.595 968.613L619.795 978.212L628.195 979.413L636.195 975.413L644.595 979.812L645.795 994.212L644.595 1009.41L641.795 1024.21L640.595 1046.61L623.396 1066.61L606.595 1070.61L581.396 1066.61L558.195 1059.81L574.995 1020.61L570.595 1009.41L546.995 999.413L517.795 980.212L499.396 976.212L454.195 934.613L460.195 903.812L459.396 889.812L467.795 867.413L506.195 859.812L526.995 860.212L548.595 873.413L549.795 881.413Z" fill="#ECECEC" stroke="black" stroke-width="0.8" stroke-linecap="round" stroke-linejoin="round"/>
<path d="M623.795 215.419L611.396 237.419L612.595 255.019L621.396 270.219L616.995 281.019L614.995 293.019L608.995 303.819L596.195 298.219L585.396 301.019L576.195 298.619L573.795 306.219L577.795 311.019L575.396 316.619L562.995 314.219L549.795 291.819L546.995 277.419H539.795L530.195 259.019L534.595 245.419L533.396 239.419L547.396 233.019L551.396 209.819L578.595 215.019L580.995 210.219L599.396 208.219L623.795 215.419Z" fill="#ECECEC" stroke="black" stroke-width="0.8" stroke-linecap="round" stroke-linejoin="round"/>
<path d="M698.597 1230.22L692.197 1246.62L670.597 1260.62L653.797 1255.42L642.597 1258.22L620.597 1247.42L606.197 1248.22L590.597 1233.82L588.997 1217.42L592.597 1211.82L587.797 1186.22L589.397 1159.82L591.397 1139.02L604.997 1136.22L630.197 1156.22L637.797 1155.42L662.997 1171.82L682.197 1186.22L697.397 1203.42L690.197 1215.82L698.597 1230.22Z" fill="#ECECEC" stroke="black" stroke-width="0.8" stroke-linecap="round" stroke-linejoin="round"/>
<path d="M494.6 148.225L475.8 163.425L473.8 172.625L481 182.225L475.4 187.025L461.4 191.025V203.025L455 210.225L469.8 229.425L472.6 236.625L464.2 246.625L438.6 256.225L422.2 260.225L415.4 266.225L397.4 259.825L381 256.625L376.6 259.025L386.6 265.425L385.4 282.625L388.2 299.025L407.4 301.025L408.6 306.625L392.2 313.825L389.4 324.625L379.8 329.025L363 335.025L358.6 343.025L341 344.625L328.6 331.025L322.2 305.425L316.2 296.225L308.2 290.625L319.8 277.825L319 272.225L313 264.625L308.6 247.425L311 229.025L316.2 220.225L321 206.625L313 202.225L300.2 205.025L283.8 203.825L274.6 206.625L259.4 184.225L246.2 181.025L217 183.425L212.2 174.625L206.6 172.625L206.2 167.025L209 157.425L207.8 147.425L203 141.425L200.6 129.825L189 128.225L196.2 113.025L199.8 94.625L207 85.0249L216.2 77.825L222.6 65.0249L237.4 60.625L236.6 66.625L223 69.825L229.8 81.4249L228.6 95.0249L217.8 109.825L225.4 130.225L235.4 128.625L241.4 109.825L234.6 101.025V81.4249L263.4 71.0249L261 59.0249L269.4 50.625L276.2 69.0249L292.2 69.4249L305.8 83.4249L306.6 92.225H326.6L351 89.825L363.4 101.025L380.2 104.225L393.4 96.225L393.8 89.825L422.2 88.225L449 87.825L429.4 95.4249L436.6 107.825L454.6 109.425L471.4 122.225L474.2 142.625L485.8 142.225L494.6 148.225Z" fill="#ECECEC" stroke="black" stroke-width="0.8" stroke-linecap="round" stroke-linejoin="round"/>
<path d="M520.195 1707.42L544.195 1761.82H564.195L576.195 1762.62L574.195 1772.22L561.396 1779.82L551.795 1779.02L539.396 1777.02L522.595 1769.82L500.995 1766.22L470.995 1752.62L445.396 1739.82L406.195 1712.22L424.595 1717.42L458.995 1733.82L488.195 1742.62L492.995 1731.42L491.795 1714.62L505.396 1704.22L520.195 1707.42Z" fill="#ECECEC" stroke="black" stroke-width="0.8" stroke-linecap="round" stroke-linejoin="round"/>
<path d="M357.4 947.025L361 953.425L356.2 980.225L333.8 992.625L340.2 1035.43L337 1043.82L345 1053.82L331.8 1069.82L321.4 1093.82L317.8 1117.43L324.6 1142.22L316.2 1168.62L335.8 1213.02L342.2 1217.82L347.8 1241.43L341.4 1266.22L347 1287.82L335 1304.62L341.4 1327.82L354.6 1353.02L344.6 1362.22L345.4 1385.02L348.6 1411.02L361.8 1442.22L355 1447.43L369.8 1476.62L382.2 1486.22L379 1497.02L390.2 1501.82L395.8 1511.43L388.6 1516.22L395.8 1531.02L400.2 1564.22L397.4 1585.82L404.6 1598.62L404.2 1614.22L393.4 1625.43L405.8 1651.43L416.2 1660.62L428.6 1659.02L436.2 1677.43L450.2 1691.82L498.6 1695.02L518.2 1699.02H501L494.2 1705.02L480.6 1713.82L487.4 1736.62L479.8 1737.02L454.6 1729.43L424.6 1712.22L394.2 1698.22L381.4 1682.62L380.2 1668.22L363.4 1651.43L343.4 1609.02L342.6 1585.02L356.2 1565.82L323 1558.22L333.8 1536.22L325.8 1494.22L351.8 1503.02L344.6 1450.62L328.6 1443.82L332.6 1475.43L318.6 1471.82L312.6 1435.82L304.6 1388.62L309 1371.02L295.8 1346.22L286.2 1317.43L295 1316.22L297.4 1275.02L302.2 1233.82L302.6 1195.82L289.4 1157.02L291.8 1135.82L283.4 1104.22L290.6 1073.02L287 1023.43V969.825L287.4 912.625L281.4 870.625L273 834.225L284.2 827.825L288.6 814.625L301.4 832.225L306.2 850.625L319 861.425L314.6 886.225L329.4 915.025L341.8 950.625L357.4 947.025Z" fill="#ECECEC" stroke="black" stroke-width="0.8" stroke-linecap="round" stroke-linejoin="round"/>
<path d="M609 303.806L615 292.606L617 281.006L621 270.206L612.6 255.006L611.4 237.406L623.8 215.406L631.4 218.206L647.8 224.206L671.4 245.806L674.6 256.206L661 279.806L653.8 298.606L645 308.606L634.2 310.206L631 303.006L625.8 302.206L619 309.006L609 303.806Z" fill="#ECECEC" stroke="black" stroke-width="0.8" stroke-linecap="round" stroke-linejoin="round"/>
<path d="M271.398 43.825L269.398 43.0249L267.398 41.0249L267.798 38.625L268.598 39.825L270.198 41.4249L271.398 43.4249V43.825Z" fill="#ECECEC" stroke="black" stroke-width="0.8" stroke-linecap="round" stroke-linejoin="round"/>
<path d="M505.8 27.8187L503.4 27.0187L503 25.0187V21.8187L503.8 20.2188L504.6 21.0187L505.4 23.4187L507.4 24.6188L507.8 26.2188L505.8 27.8187Z" fill="#ECECEC" stroke="black" stroke-width="0.8" stroke-linecap="round" stroke-linejoin="round"/>
<path d="M295.8 53.8H294.6L293 52.6001L291.8 52.2001L290.6 51L290.2 50.2001L289 49.8L288.2 48.2001L287 47L287.4 45L289.4 46.2001L289.8 48.2001L291.4 49.8L294.2 50.6001L295 51.8L296.2 53.4L295.8 53.8Z" fill="#ECECEC" stroke="black" stroke-width="0.8" stroke-linecap="round" stroke-linejoin="round"/>
<path d="M689.397 1700.6L690.997 1700.2V1701.8L687.797 1700.6L688.997 1699.4L689.797 1699L689.397 1700.6Z" fill="#ECECEC" stroke="black" stroke-width="0.8" stroke-linecap="round" stroke-linejoin="round"/>
<path d="M686.594 1695L687.394 1695.8L688.994 1696.2L689.394 1697.8L688.194 1698.2L687.794 1696.6L686.994 1695.8L686.594 1695Z" fill="#ECECEC" stroke="black" stroke-width="0.8" stroke-linecap="round" stroke-linejoin="round"/>
<path d="M711.397 1691.81L712.197 1692.21L711.797 1693.81L710.597 1693.41L709.797 1692.21L710.997 1691.41L711.397 1691.81Z" fill="#ECECEC" stroke="black" stroke-width="0.8" stroke-linecap="round" stroke-linejoin="round"/>
<path d="M662.995 1688.22V1689.02L663.396 1690.22L661.795 1690.62L660.595 1690.22L659.795 1689.42L658.595 1689.02L658.195 1687.42H658.995L659.396 1686.62L660.595 1686.22L661.396 1686.62L660.195 1687.82L661.396 1688.22L662.595 1687.02L662.995 1688.22Z" fill="#ECECEC" stroke="black" stroke-width="0.8" stroke-linecap="round" stroke-linejoin="round"/>
<path d="M674.597 1683.01L672.997 1682.21L670.997 1681.01L667.797 1679.81L668.197 1678.21L665.397 1677.81L664.197 1677.41L662.997 1675.81L663.797 1675.41L666.997 1676.61L670.197 1678.21L672.197 1678.61L673.797 1679.01L674.997 1677.81L675.397 1676.61L676.197 1677.01L677.797 1676.21L678.197 1677.01H680.197V1678.21H681.397L684.997 1677.41L685.397 1678.21H686.597L688.197 1677.81L686.997 1677.01L686.597 1675.81H688.197L690.597 1676.61L690.997 1678.21L689.397 1680.21L689.797 1681.41L688.997 1682.21H687.397L686.197 1685.41L684.997 1686.61L683.797 1689.01L683.397 1690.21L681.397 1691.41L680.997 1690.61H679.397V1691.81L676.197 1691.41L675.797 1691.81L676.997 1693.41L676.597 1693.81L675.797 1695.41H674.197L672.997 1697.01L671.797 1697.41H670.997L670.197 1696.21L668.597 1695.01V1694.21H666.597L668.997 1695.81H667.397L665.397 1694.61L664.597 1694.21L662.997 1693.41L661.797 1692.61V1691.81L664.597 1692.61L666.997 1691.81L664.997 1691.01L664.597 1690.61H668.197L669.797 1691.01L670.997 1691.81V1691.01L672.597 1690.61L672.997 1689.41L671.397 1688.61L670.597 1686.61L670.997 1685.81H673.397L674.197 1686.21L675.797 1685.81L675.397 1684.61H672.197V1685.01L670.597 1685.81H668.197L666.197 1684.61V1683.41L668.997 1684.21L671.397 1683.41H672.597L674.597 1683.01L676.197 1683.81V1683.41L674.597 1683.01Z" fill="#ECECEC"/>
<path d="M674.597 1683.01L672.997 1682.21L670.997 1681.01L667.797 1679.81L668.197 1678.21L665.397 1677.81L664.197 1677.41L662.997 1675.81L663.797 1675.41L666.997 1676.61L670.197 1678.21L672.197 1678.61L673.797 1679.01L674.997 1677.81L675.397 1676.61L676.197 1677.01L677.797 1676.21L678.197 1677.01H680.197V1678.21H681.397L684.997 1677.41L685.397 1678.21H686.597L688.197 1677.81L686.997 1677.01L686.597 1675.81H688.197L690.597 1676.61L690.997 1678.21L689.397 1680.21L689.797 1681.41L688.997 1682.21H687.397L686.197 1685.41L684.997 1686.61L683.797 1689.01L683.397 1690.21L681.397 1691.41L680.997 1690.61H679.397V1691.81L676.197 1691.41L675.797 1691.81L676.997 1693.41L676.597 1693.81L675.797 1695.41H674.197L672.997 1697.01L671.797 1697.41H670.997L670.197 1696.21L668.597 1695.01V1694.21H666.597L668.997 1695.81H667.397L665.397 1694.61L664.597 1694.21L662.997 1693.41L661.797 1692.61V1691.81L664.597 1692.61L666.997 1691.81L664.997 1691.01L664.597 1690.61H668.197L669.797 1691.01L670.997 1691.81V1691.01L672.597 1690.61L672.997 1689.41L671.397 1688.61L670.597 1686.61L670.997 1685.81H673.397L674.197 1686.21L675.797 1685.81L675.397 1684.61H672.197V1685.01L670.597 1685.81H668.197L666.197 1684.61V1683.41L668.997 1684.21L671.397 1683.41H672.597L674.597 1683.01ZM674.597 1683.01L676.197 1683.81V1683.41L674.597 1683.01Z" stroke="black" stroke-width="0.8" stroke-linecap="round" stroke-linejoin="round"/>
<path d="M681 1675.41H682.2L683.4 1676.61L682.2 1677.01H681V1675.41Z" fill="#ECECEC" stroke="black" stroke-width="0.8" stroke-linecap="round" stroke-linejoin="round"/>
<path d="M676.998 1675.42H675.798L675.398 1674.22L676.998 1674.62V1675.42Z" fill="#ECECEC" stroke="black" stroke-width="0.8" stroke-linecap="round" stroke-linejoin="round"/>
<path d="M671.396 1674.62L673.795 1674.22L674.595 1675.42L673.396 1677.02L672.595 1676.62L671.396 1677.02L670.195 1676.22L671.396 1675.42L672.595 1676.22L672.995 1675.42L670.995 1675.02L671.396 1674.62Z" fill="#ECECEC" stroke="black" stroke-width="0.8" stroke-linecap="round" stroke-linejoin="round"/>
<path d="M700.194 1675.02H702.594L702.994 1674.62L704.994 1674.22L706.594 1675.02L708.194 1676.22L708.594 1677.42V1677.82L706.594 1678.22L705.794 1677.02L704.994 1676.62L704.594 1677.82L705.394 1678.22L705.794 1679.42L706.994 1678.62L707.794 1679.02L708.194 1680.62L709.394 1681.02L709.794 1680.62L711.794 1681.82L712.194 1680.22L708.994 1679.42L709.394 1677.42L710.594 1676.62L716.594 1676.22L719.394 1678.62L720.194 1679.02V1680.62L717.794 1680.22L715.794 1679.42L713.394 1680.22L714.594 1681.02L716.194 1681.42L719.794 1681.82L720.994 1682.22L721.394 1683.02L720.594 1685.02H718.594L718.194 1685.42L715.394 1685.82L713.394 1686.62L714.594 1687.42L710.994 1689.02L709.394 1688.62L707.394 1689.02H704.594L702.194 1688.22L699.794 1686.62V1687.82L700.994 1688.62L703.394 1689.42L704.594 1690.62L705.394 1690.22L706.994 1690.62L708.594 1691.82L707.794 1692.22L708.594 1694.22H707.794L706.594 1693.02L704.994 1692.62L702.994 1694.22L702.194 1693.02L700.994 1692.22H699.794L697.794 1691.42L696.994 1691.82L697.794 1693.42H698.994L699.794 1694.22L698.994 1694.62L701.794 1697.02L700.994 1697.42L699.394 1696.62H698.194L696.994 1695.42L695.794 1695.02L694.594 1694.62L694.194 1697.02L696.194 1697.42V1698.62L695.794 1699.42L694.194 1699.02L693.794 1698.22L691.794 1697.42L691.394 1696.62H690.594L688.994 1694.62L690.194 1693.02V1692.22L688.594 1690.22V1689.42L690.594 1688.62L690.194 1687.82L692.194 1687.42L691.794 1686.22L694.194 1684.62L696.594 1683.82L698.194 1685.42V1687.02L699.394 1686.62L697.394 1684.22L697.794 1683.02L695.394 1682.22L693.794 1681.02L694.194 1680.22L695.794 1681.02L696.194 1679.02L693.394 1678.22L693.794 1677.02L694.594 1677.42L695.794 1676.62H696.994L697.794 1675.42L696.594 1674.22H698.194L700.194 1675.02Z" fill="#ECECEC" stroke="black" stroke-width="0.8" stroke-linecap="round" stroke-linejoin="round"/>
<path d="M680.2 1673.4H683L683.8 1674.2L684.6 1673.4L685.4 1673.8L686.2 1675L685.4 1675.4L683.8 1675L682.2 1674.2L679 1673.8L679.4 1673L680.2 1673.4Z" fill="#ECECEC" stroke="black" stroke-width="0.8" stroke-linecap="round" stroke-linejoin="round"/>
<path d="M653 1669.01L651 1668.61L651.4 1667.81L653 1669.01Z" fill="#ECECEC" stroke="black" stroke-width="0.8" stroke-linecap="round" stroke-linejoin="round"/>
<path d="M456.597 53.8L454.997 55L454.197 54.6001L453.797 52.6001L454.597 50.6001L455.797 49H456.997L457.397 50.2001L456.997 53L456.597 53.8Z" fill="#ECECEC" stroke="black" stroke-width="0.8" stroke-linecap="round" stroke-linejoin="round"/>
<path d="M474.597 11L473.797 10.2001L472.197 9.40002L471.797 8.6001V6.20007L472.197 5.40002L474.997 1L476.197 1.80005V4.6001L475.797 7.80005L475.397 9.40002L474.597 11Z" fill="#ECECEC" stroke="black" stroke-width="0.8" stroke-linecap="round" stroke-linejoin="round"/>
<path d="M470.998 84.625L470.198 86.625L468.998 88.225L468.198 88.625L467.798 90.225L468.598 92.625L467.798 93.0249V95.825L468.598 97.0249L469.398 97.825L468.598 98.625L468.198 99.825V102.625L467.398 103.025L465.798 103.825L463.798 104.225H462.598L460.598 104.625L458.598 104.225L456.998 104.625L455.798 104.225L453.798 105.025L452.198 104.225H449.798L448.598 105.025L447.398 104.625L449.398 103.825L450.598 102.625L452.198 102.225L453.798 101.025L454.598 99.825L456.998 100.225L458.198 98.625L457.398 95.4249L458.198 93.825V91.825V91.0249L456.998 89.4249L455.798 89.0249L454.198 88.625L453.798 88.225L455.398 87.0249L459.798 86.625L460.598 85.825H464.998L465.398 85.4249L470.198 84.625H470.998Z" fill="#ECECEC" stroke="black" stroke-width="0.8" stroke-linecap="round" stroke-linejoin="round"/>
<path d="M480.6 71.8125L480.2 73.8125L479 74.2125L477.4 75.4125H476.6L473.8 77.0125L473 76.2125L474.2 75.0125L477 73.0125L480.6 71.8125Z" fill="#ECECEC" stroke="black" stroke-width="0.8" stroke-linecap="round" stroke-linejoin="round"/>
<path d="M468.595 25.4125L468.195 25.8125L466.195 24.6125V23.0125L466.995 21.8125L467.795 19.8125H469.396L469.795 21.4125L469.396 24.6125L468.595 25.4125Z" fill="#ECECEC" stroke="black" stroke-width="0.8" stroke-linecap="round" stroke-linejoin="round"/>
<path d="M307.797 54.2001H306.997L306.597 52.2001L306.997 51L306.597 49.8L304.997 49.4L303.797 48.2001L304.197 47L308.997 49.4L308.597 50.2001V51.8L307.797 52.6001V54.2001Z" fill="#ECECEC" stroke="black" stroke-width="0.8" stroke-linecap="round" stroke-linejoin="round"/>
</g>
<defs>
<clipPath id="clip0_543_81065">
<rect width="1061" height="1781" fill="white"/>
</clipPath>
</defs>
</svg>
